<svg width="14" height="14" viewBox="0 0 14 14" fill="none" xmlns="http://www.w3.org/2000/svg">
<path fill-rule="evenodd" clipRule="evenodd" d="M5.58294 0.871868C4.54155 -0.16953 2.85311 -0.169528 1.81171 0.871869L1.45469 1.22889C0.962441 1.72114 0.625756 2.45878 0.817797 3.25785C1.11221 4.48286 1.99813 6.71515 4.64013 9.35715C7.28214 11.9992 9.51443 12.8851 10.7394 13.1795C11.5385 13.3715 12.2762 13.0348 12.7684 12.5426L13.1254 12.1856C14.1668 11.1442 14.1668 9.45574 13.1254 8.41434L12.5062 7.79509C11.6573 6.94625 10.3459 6.76922 9.30241 7.3626L9.23805 7.3992C8.81043 7.64235 8.31917 7.62248 7.97115 7.37061C7.69033 7.16738 7.42194 6.95351 7.23286 6.76443C7.04378 6.57534 6.82991 6.30695 6.62667 6.02613C6.37481 5.67811 6.35493 5.18686 6.59809 4.75923L6.63468 4.69488C7.22807 3.65135 7.05104 2.33996 6.2022 1.49112L5.58294 0.871868ZM2.75452 1.81468C3.27522 1.29398 4.11944 1.29398 4.64013 1.81468L5.25939 2.43393C5.68381 2.85835 5.77232 3.51404 5.47563 4.03581L5.43904 4.10016C4.9691 4.9266 4.95261 5.98718 5.54653 6.80784C5.76468 7.10928 6.02686 7.44404 6.29005 7.70723C6.55325 7.97043 6.88801 8.2326 7.18944 8.45075C8.0101 9.04467 9.07068 9.02818 9.89712 8.55825L9.96148 8.52166C10.4832 8.22496 11.1389 8.31348 11.5634 8.7379L12.1826 9.35715C12.7033 9.87785 12.7033 10.7221 12.1826 11.2428L11.8256 11.5998C11.5677 11.8577 11.2834 11.9389 11.051 11.8831C10.0716 11.6477 8.05606 10.8875 5.58294 8.41434C3.10983 5.94123 2.34959 3.92564 2.11422 2.94628C2.05836 2.71385 2.13959 2.4296 2.39749 2.1717L2.75452 1.81468Z" fill="#101928"/>
</svg>
