<svg width="48" height="48" viewBox="0 0 48 48" fill="none" xmlns="http://www.w3.org/2000/svg">
<g clip-path="url(#clip0_318_20698)">
<path d="M32.9411 41.8823C41.2579 41.8823 48 35.1402 48 26.8235C48 18.5067 41.2579 11.7646 32.9411 11.7646C24.6244 11.7646 17.8823 18.5067 17.8823 26.8235C17.8823 35.1402 24.6244 41.8823 32.9411 41.8823Z" fill="#B1FFB8"/>
<mask id="mask0_318_20698" style="mask-type:luminance" maskUnits="userSpaceOnUse" x="0" y="5" width="38" height="38">
<path d="M37.6471 5.17651H0V42.8236H37.6471V5.17651Z" fill="white"/>
</mask>
<g mask="url(#mask0_318_20698)">
<path d="M8.08991 15.8376C9.51115 15.8376 10.6632 14.6855 10.6632 13.2643C10.6632 11.843 9.51115 10.6909 8.08991 10.6909C6.66867 10.6909 5.51654 11.843 5.51654 13.2643C5.51654 14.6855 6.66867 15.8376 8.08991 15.8376Z" fill="#10441E"/>
<path d="M13.8088 18.9829C15.3363 17.4554 16.1777 15.4244 16.1777 13.2641C16.1777 8.80461 12.5495 5.17651 8.09001 5.17651C3.63053 5.17651 0.00244141 8.80461 0.00244141 13.2641C0.00244141 15.4244 0.843665 17.4554 2.37128 18.9829L8.09001 24.7016L13.8088 18.9829ZM3.31101 13.2642C3.31101 10.6291 5.45488 8.48524 8.09001 8.48524C10.7251 8.48524 12.869 10.6291 12.869 13.2642C12.869 15.8993 10.7251 18.0432 8.09001 18.0432C5.45488 18.0432 3.31101 15.8993 3.31101 13.2642Z" fill="#10441E"/>
<path d="M31.7629 28.6233C28.5196 28.6233 25.8809 31.262 25.8809 34.5053C25.8809 36.0764 26.4927 37.5535 27.6036 38.6644L31.7629 42.8236L35.9221 38.6644C37.033 37.5535 37.6449 36.0763 37.6449 34.5053C37.6449 31.262 35.0063 28.6233 31.7629 28.6233Z" fill="#10441E"/>
<path d="M9.19266 35.7211C9.19266 33.0235 11.3874 30.8289 14.085 30.8289H18.1774C20.6007 30.8289 22.5721 28.8574 22.5721 26.434C22.5721 24.0108 20.6007 22.0393 18.1774 22.0393H13.8984V24.245H18.1775C19.3846 24.245 20.3667 25.2269 20.3667 26.434C20.3667 27.6412 19.3846 28.6232 18.1775 28.6232H14.0851C10.1712 28.6232 6.98712 31.8074 6.98712 35.7212C6.98712 39.635 10.1712 42.8191 14.0851 42.8191H26.3963V40.6135H14.0851C11.3874 40.6135 9.19266 38.4187 9.19266 35.7211Z" fill="#10441E"/>
</g>
</g>
<defs>
<clipPath id="clip0_318_20698">
<rect width="48" height="37.6471" fill="white" transform="translate(0 5.17651)"/>
</clipPath>
</defs>
</svg>
