<svg width="107" height="76" viewBox="0 0 107 76" fill="none" xmlns="http://www.w3.org/2000/svg">
<g style="mix-blend-mode:multiply" opacity="0.4">
<path d="M105.361 46.91L29.4822 2.0679C27.5109 0.902311 24.5109 0.747813 22.782 1.72175L21.3368 2.53727L-19.8384 25.7553C-21.5672 26.7292 -21.3677 28.4639 -19.3964 29.6295L56.4825 74.4715C56.9793 74.7649 57.5425 74.9957 58.1351 75.158C59.8874 75.643 61.89 75.5452 63.1827 74.8177L105.805 50.7842C107.534 49.8103 107.334 48.0756 105.363 46.91H105.361ZM57.476 33.9261L58.1175 33.5702L58.184 33.533L59.8228 32.6236L61.1586 31.8824L66.1749 29.0995C68.203 27.975 70.7825 28.7142 71.9071 30.7403C72.6443 32.0682 72.5759 33.6308 71.8758 34.8688C71.778 36.1595 71.0446 37.3799 69.8125 38.0507L65.111 40.6087L63.9083 41.2639L63.7284 41.3617L63.2942 41.5983L61.4793 42.5859C59.5373 43.644 57.0653 42.9477 55.9877 41.0409C55.5966 40.3506 55.4441 39.5918 55.4969 38.8545C54.9238 36.9907 55.71 34.904 57.4799 33.9242L57.476 33.9261ZM39.9941 23.4162L40.1838 23.3106L40.3109 23.2402L40.6336 23.0603L41.4433 22.6105L42.3409 22.1138L43.6766 21.3725L48.693 18.5896C50.721 17.4651 53.3006 18.2043 54.4251 20.2304C55.1624 21.5583 55.094 23.1209 54.3938 24.3589C54.2961 25.6496 53.5627 26.87 52.3306 27.5408L47.6291 30.0988L46.4264 30.754L46.2464 30.8518L45.8123 31.0884L43.9974 32.076C42.0554 33.1341 39.5834 32.4379 38.5058 30.5311C38.1147 29.8407 37.9621 29.0819 38.0149 28.3446C37.4419 26.4808 38.2281 24.3941 39.998 23.4143L39.9941 23.4162ZM22.4887 12.92L23.1301 12.5641L24.681 11.7036L24.8355 11.6175L25.6608 11.1599L31.1856 8.09535C33.2137 6.97083 35.7933 7.71007 36.9178 9.73617C37.6551 11.0641 37.5866 12.6267 36.8865 13.8646C36.7887 15.1554 36.0553 16.3757 34.8232 17.0466L30.1217 19.6046L28.919 20.2598L28.7391 20.3575L28.3049 20.5942L26.49 21.5818C24.548 22.6398 22.076 21.9436 20.9984 20.0368C20.6073 19.3464 20.4547 18.5876 20.5075 17.8503C19.9345 15.9866 20.7207 13.8998 22.4906 12.92H22.4887ZM13.6587 28.6106C13.5609 29.9013 12.8276 31.1217 11.5955 31.7925L6.89398 34.3505L5.69122 35.0057L5.51129 35.1035L5.07713 35.3401L3.26224 36.3277C1.32024 37.3858 -1.15175 36.6895 -2.22933 34.7827C-2.62047 34.0924 -2.77302 33.3336 -2.72021 32.5963C-3.29323 30.7325 -2.50704 28.6458 -0.737139 27.666L0.993645 26.7057L2.94542 25.6223L7.96178 22.8393C9.98983 21.7148 12.5694 22.454 13.6939 24.4801C14.4312 25.8081 14.3628 27.3707 13.6626 28.6086L13.6587 28.6106ZM31.1641 39.1204C31.0663 40.4112 30.3329 41.6316 29.1009 42.3024L24.3994 44.8604L23.1966 45.5156L23.0167 45.6134L22.5825 45.85L20.7676 46.8376C18.8256 47.8956 16.3537 47.1994 15.2761 45.2926C14.8849 44.6023 14.7324 43.8434 14.7852 43.1062C14.2122 41.2424 14.9984 39.1557 16.7683 38.1758L16.958 38.0702L17.5994 37.7143L19.1151 36.8734L20.4508 36.1322L25.4672 33.3492C27.4952 32.2247 30.0748 32.9639 31.1993 34.99C31.9366 36.3179 31.8682 37.8805 31.168 39.1185L31.1641 39.1204ZM48.6461 49.6166C48.5483 50.9074 47.8149 52.1278 46.5828 52.7986L41.8813 55.3566L40.6786 56.0118L40.4986 56.1096L40.0645 56.3462L38.2496 57.3338C36.3076 58.3918 33.8356 57.6956 32.758 55.7888C32.3669 55.0985 32.2143 54.3396 32.2671 53.6024C31.6941 51.7386 32.4803 49.6519 34.2502 48.6721L34.4399 48.5664L34.7939 48.3689L34.8897 48.3161L37.9308 46.6284L42.9472 43.8454C44.9752 42.7209 47.5548 43.4601 48.6793 45.4862C49.4166 46.8141 49.3482 48.3768 48.648 49.6147L48.6461 49.6166ZM66.1241 60.1383C66.0263 61.429 65.2929 62.6494 64.0608 63.3202L59.3593 65.8782L58.1566 66.5334L57.9767 66.6312L57.5425 66.8678L55.7276 67.8554C53.7856 68.9135 51.3136 68.2173 50.236 66.3105C49.8449 65.6201 49.6924 64.8613 49.7452 64.124C49.1721 62.2602 49.9583 60.1735 51.7282 59.1937L54.0751 57.8931L55.4108 57.1519L60.4271 54.369C62.4552 53.2445 65.0348 53.9837 66.1593 56.0098C66.8966 57.3377 66.8281 58.9003 66.128 60.1383H66.1241ZM77.0232 57.0894L76.8999 57.1598C76.4443 57.4179 75.6522 57.3768 75.1301 57.0678L5.61494 15.9866C5.09473 15.6795 5.04193 15.2199 5.49761 14.9637L5.62082 14.8933C6.07649 14.6352 6.86856 14.6762 7.39073 14.9852L76.9058 56.0665C77.426 56.3736 77.4788 56.8332 77.0232 57.0894ZM89.3577 45.3904C89.2599 46.6812 88.5265 47.9015 87.2945 48.5723L82.593 51.1304L81.3902 51.7855L81.2103 51.8833L80.7761 52.1199L78.9613 53.1076C77.0192 54.1656 74.5473 53.4694 73.4697 51.5626C73.0785 50.8722 72.926 50.1134 72.9768 49.3761C72.4038 47.5143 73.19 45.4256 74.9599 44.4458L75.6014 44.0899L75.6463 44.0644L77.3087 43.1433L78.6444 42.4021L83.6608 39.6191C85.6888 38.4946 88.2684 39.2339 89.3929 41.26C90.1302 42.5879 90.0618 44.1505 89.3616 45.3884L89.3577 45.3904Z" fill="#FFE7DE"/>
</g>
<path d="M102.377 45.8284L26.4976 0.98636C24.5263 -0.179232 21.5262 -0.33373 19.7974 0.640205L18.3521 1.45573L-22.823 24.6737C-24.5518 25.6476 -24.3524 27.3823 -22.381 28.5479L53.4979 73.39C53.9946 73.6834 54.5579 73.9141 55.1505 74.0765C56.9028 74.5615 58.9054 74.4637 60.1981 73.7362L102.82 49.7027C104.549 48.7287 104.35 46.994 102.378 45.8284H102.377ZM46.7586 63.0424C46.1856 61.1787 46.9718 59.0919 48.7417 58.1121L51.0885 56.8097L52.4242 56.0684L57.4406 53.2855C59.4686 52.161 62.0482 52.9002 63.1727 54.9263C63.91 56.2542 63.8416 57.8168 63.1414 59.0548C63.0436 60.3455 62.3102 61.5659 61.0782 62.2367L56.3767 64.7947L55.1739 65.4499L54.994 65.5477L54.5598 65.7843L52.7449 66.7719C50.8029 67.83 48.331 67.1337 47.2534 65.2269C46.8622 64.5366 46.7097 63.7778 46.7605 63.0405L46.7586 63.0424ZM29.2806 52.5208C28.7075 50.657 29.4937 48.5703 31.2636 47.5905L31.4533 47.4849L31.8073 47.2874L31.9031 47.2346L34.9442 45.5468L39.9606 42.7639C41.9886 41.6393 44.5682 42.3786 45.6927 44.4047C46.43 45.7326 46.3616 47.2952 45.6614 48.5332C45.5637 49.8239 44.8303 51.0443 43.5982 51.7151L38.8967 54.2731L37.694 54.9283L37.514 55.0261L37.0799 55.2627L35.265 56.2503C33.323 57.3084 30.851 56.6121 29.7734 54.7053C29.3823 54.015 29.2297 53.2562 29.2825 52.5189L29.2806 52.5208ZM11.7986 42.0246C11.2256 40.1608 12.0118 38.0741 13.7817 37.0943L13.9714 36.9887L14.6129 36.6328L16.1285 35.7918L17.4642 35.0506L22.4806 32.2677C24.5087 31.1431 27.0882 31.8824 28.2128 33.9085C28.9501 35.2364 28.8816 36.799 28.1815 38.037C28.0837 39.3277 27.3503 40.5481 26.1182 41.2189L21.4167 43.7769L20.214 44.4321L20.034 44.5299L19.5999 44.7665L17.785 45.7541C15.843 46.8121 13.371 46.1159 12.2934 44.2091C11.9023 43.5188 11.7497 42.76 11.8025 42.0227L11.7986 42.0246ZM-1.99293 25.6242L-0.041132 24.5407L4.9752 21.7578C7.00325 20.6332 9.58282 21.3725 10.7073 23.3986C11.4446 24.7265 11.3762 26.2891 10.676 27.5271C10.5783 28.8178 9.84489 30.0382 8.61281 30.709L3.91131 33.267L2.70856 33.9222L2.52863 34.02L2.09447 34.2566L0.279581 35.2442C-1.66242 36.3022 -4.13441 35.606 -5.212 33.6992C-5.60313 33.0089 -5.75568 32.2501 -5.70288 31.5128C-6.27589 29.649 -5.4897 27.5623 -3.7198 26.5825L-1.98902 25.6222L-1.99293 25.6242ZM4.40611 13.9037L73.9212 54.985C74.4414 55.292 74.4942 55.7516 74.0385 56.0078L73.9153 56.0782C73.4596 56.3364 72.6676 56.2953 72.1454 55.9863L2.63033 14.905C2.11011 14.598 2.05731 14.1384 2.51299 13.8822L2.6362 13.8118C3.09188 13.5536 3.88394 13.5947 4.40611 13.9037ZM33.9332 8.65463C34.6705 9.98254 34.602 11.5451 33.9019 12.7831C33.8041 14.0739 33.0707 15.2942 31.8386 15.965L27.1371 18.5231L25.9344 19.1782L25.7544 19.276L25.3203 19.5126L23.5054 20.5003C21.5634 21.5583 19.0914 20.8621 18.0138 18.9553C17.6227 18.2649 17.4701 17.5061 17.5229 16.7688C16.9499 14.905 17.7361 12.8183 19.506 11.8385L20.1455 11.4826L21.6964 10.6221L21.8509 10.536L22.6762 10.0784L28.201 7.01381C30.2291 5.88928 32.8086 6.62853 33.9332 8.65463ZM51.4386 19.1508C52.1759 20.4787 52.1074 22.0413 51.4073 23.2793C51.3095 24.5701 50.5761 25.7904 49.344 26.4612L44.6425 29.0193L43.4398 29.6744L43.2598 29.7722L42.8257 30.0088L41.0108 30.9965C39.0688 32.0545 36.5968 31.3583 35.5192 29.4515C35.1281 28.7611 34.9755 28.0023 35.0283 27.265C34.4553 25.4012 35.2415 23.3145 37.0114 22.3347L37.2011 22.2291L37.3282 22.1587L37.6509 21.9788L38.4606 21.529L39.3563 21.0322L40.692 20.291L45.7084 17.5081C47.7364 16.3835 50.316 17.1228 51.4405 19.1489L51.4386 19.1508ZM68.9205 29.6607C69.6578 30.9886 69.5893 32.5512 68.8892 33.7892C68.7914 35.0799 68.058 36.3003 66.8259 36.9711L62.1245 39.5292L60.9217 40.1843L60.7418 40.2821L60.3076 40.5187L58.4927 41.5064C56.5507 42.5644 54.0787 41.8682 53.0012 39.9613C52.61 39.271 52.4575 38.5122 52.5103 37.7749C51.9373 35.9111 52.7234 33.8244 54.4934 32.8446L55.1348 32.4887L55.2013 32.4515L56.8402 31.5421L58.1759 30.8009L63.1923 28.0179C65.2203 26.8934 67.7999 27.6327 68.9244 29.6588L68.9205 29.6607ZM86.4024 40.1804C87.1397 41.5083 87.0713 43.0709 86.3711 44.3089C86.2734 45.5996 85.54 46.82 84.3079 47.4908L79.6064 50.0488L78.4037 50.704L78.2237 50.8018L77.7896 51.0384L75.9747 52.026C74.0327 53.084 71.5607 52.3878 70.4831 50.481C70.092 49.7907 69.9394 49.0319 69.9903 48.2946C69.4172 46.4308 70.2034 44.3441 71.9733 43.3643L72.6148 43.0083L72.6598 42.9829L74.3221 42.0618L75.6579 41.3206L80.6742 38.5376C82.7023 37.4131 85.2818 38.1523 86.4063 40.1784L86.4024 40.1804Z" fill="#F4F4F4"/>
<path d="M74.0365 56.0099L73.9133 56.0804C73.4576 56.3385 72.6656 56.2974 72.1434 55.9884L2.62833 14.9072C2.10812 14.6001 2.05532 14.1405 2.511 13.8843L2.63421 13.8139C3.08988 13.5558 3.88195 13.5968 4.40412 13.9058L73.9192 54.9871C74.4394 55.2942 74.4922 55.7538 74.0365 56.0099Z" fill="#228821"/>
<g style="mix-blend-mode:multiply" opacity="0.4">
<path d="M70.3306 49.0964C71.4551 51.1244 74.0347 51.8637 76.0627 50.7372L76.2524 50.6316L84.7597 45.9125C85.4598 45.5253 86.0016 44.9601 86.3712 44.3088C86.2734 45.5996 85.54 46.8199 84.3079 47.4907L79.6064 50.0488L78.4037 50.7039L78.2238 50.8017L77.7896 51.0384L75.9747 52.026C74.0327 53.084 71.5607 52.3878 70.4831 50.481C70.092 49.7906 69.9395 49.0318 69.9903 48.2945C70.0744 48.5683 70.1878 48.8363 70.3306 49.0964Z" fill="#FFE7DE"/>
</g>
<path d="M86.3713 44.311C86.0016 44.9622 85.4599 45.5274 84.7598 45.9146L76.2525 50.6337L77.9559 49.6891L78.4077 49.4388L78.5954 49.3351L79.851 48.6389C81.7539 47.5828 81.8145 45.6389 80.8836 43.7282L84.8126 41.706C85.2311 41.4909 85.3973 40.9707 85.1822 40.5521C84.9671 40.1336 84.4469 39.9654 84.0283 40.1825L79.9468 42.2829C78.8223 40.9746 77.2831 40.4211 75.6501 41.3266L80.6665 38.5436C82.6946 37.4191 85.2741 38.1584 86.3986 40.1845C87.1359 41.5124 87.0675 43.075 86.3674 44.3129L86.3713 44.311Z" fill="#89DAAA"/>
<path d="M74.3185 42.0638L72.6581 42.985L74.3185 42.0638Z" fill="#8DDE44"/>
<path d="M70.9721 48.7425C72.0966 50.7706 74.6762 51.5098 76.7042 50.3833L78.4096 49.4368L77.9578 49.6871L76.2544 50.6317L76.0647 50.7373C74.0367 51.8618 71.4571 51.1226 70.3326 49.0965C70.1879 48.8364 70.0764 48.5685 69.9923 48.2947C69.4193 46.4309 70.2055 44.3442 71.9754 43.3644L72.6168 43.0084C70.5888 44.1329 69.8495 46.7125 70.976 48.7406L70.9721 48.7425Z" fill="#228821"/>
<path d="M79.9508 42.279L74.9638 44.8448C74.5453 45.06 74.379 45.5802 74.5942 45.9987C74.8093 46.4172 75.3295 46.5854 75.748 46.3683L80.8856 43.7242C81.8146 45.6349 81.7559 47.5809 79.853 48.635L78.5975 49.3312L78.4097 49.4349L76.7043 50.3814C74.6763 51.5059 72.0967 50.7667 70.9722 48.7406C69.8477 46.7125 70.587 44.133 72.6131 43.0085L72.658 42.983L74.3204 42.0619L75.6561 41.3207C77.2891 40.4152 78.8282 40.9687 79.9527 42.277L79.9508 42.279Z" fill="#952766"/>
<path d="M75.748 46.3683C75.3295 46.5834 74.8093 46.4171 74.5942 45.9986C74.3791 45.5801 74.5453 45.0599 74.9638 44.8448L79.9508 42.2789L84.0324 40.1785C84.4509 39.9634 84.9711 40.1296 85.1862 40.5481C85.4013 40.9666 85.2351 41.4868 84.8166 41.702L80.8876 43.7242L75.75 46.3683H75.748Z" fill="#FFE7DE"/>
<g style="mix-blend-mode:multiply" opacity="0.4">
<path d="M52.8488 38.5767C53.9733 40.6048 56.5529 41.344 58.581 40.2175L58.7707 40.1119L62.0953 38.2677L62.3711 38.1152L67.2779 35.3929C67.9781 35.0056 68.5198 34.4404 68.8894 33.7892C68.7916 35.0799 68.0582 36.3003 66.8261 36.9711L62.1247 39.5291L60.9219 40.1843L60.742 40.2821L60.3078 40.5187L58.4929 41.5064C56.5509 42.5644 54.0789 41.8682 53.0014 39.9613C52.6102 39.271 52.4577 38.5122 52.5105 37.7749C52.5946 38.0487 52.708 38.3166 52.8508 38.5767H52.8488Z" fill="#FFE7DE"/>
</g>
<path d="M68.8893 33.7912C68.5197 34.4424 67.978 35.0076 67.2778 35.3949L62.371 38.1172C64.2739 37.0611 64.3345 35.1172 63.4036 33.2064L67.3326 31.1843C67.7511 30.9691 67.9173 30.4489 67.7022 30.0304C67.4871 29.6119 66.9669 29.4437 66.5484 29.6608L62.4668 31.7612C61.3423 30.4528 59.8032 29.8994 58.1702 30.8049L63.1865 28.0219C65.2146 26.8974 67.7941 27.6366 68.9187 29.6627C69.656 30.9906 69.5875 32.5532 68.8874 33.7912H68.8893Z" fill="#89DAAA"/>
<path d="M58.7687 40.114L59.2204 39.8637L61.1155 38.8135L62.0953 38.2698L58.7706 40.114H58.7687Z" fill="#F4F4F4"/>
<path d="M56.8365 31.5441L55.1976 32.4535L56.8365 31.5441Z" fill="#8DDE44"/>
<path d="M53.4901 38.2229C54.6146 40.2509 57.1942 40.9902 59.2222 39.8656L58.7705 40.116L58.5808 40.2216C56.5527 41.3461 53.9732 40.6068 52.8486 38.5807C52.7039 38.3206 52.5924 38.0527 52.5083 37.7789C51.9353 35.9151 52.7215 33.8284 54.4914 32.8486L55.1329 32.4927C53.1048 33.6172 52.3656 36.1968 53.4921 38.2248L53.4901 38.2229Z" fill="#228821"/>
<path d="M62.4688 31.7592L57.4818 34.3251C57.0633 34.5402 56.897 35.0604 57.1122 35.4789C57.3273 35.8974 57.8475 36.0656 58.266 35.8486L63.4036 33.2045C64.3326 35.1152 64.2739 37.0591 62.371 38.1152L62.0953 38.2677L61.1155 38.8114L59.2223 39.8616C57.1943 40.9861 54.6148 40.2469 53.4902 38.2208C52.3657 36.1928 53.105 33.6132 55.1311 32.4887L55.1975 32.4515L56.8364 31.5421L58.1721 30.8009C59.8051 29.8954 61.3443 30.4489 62.4688 31.7572V31.7592Z" fill="#952766"/>
<path d="M58.266 35.8485C57.8475 36.0636 57.3273 35.8974 57.1122 35.4789C56.8971 35.0603 57.0633 34.5401 57.4818 34.325L62.4689 31.7591L66.5504 29.6587C66.9689 29.4436 67.4891 29.6098 67.7042 30.0283C67.9193 30.4469 67.7531 30.9671 67.3346 31.1822L63.4056 33.2044L58.268 35.8485H58.266Z" fill="#FFE7DE"/>
<g style="mix-blend-mode:multiply" opacity="0.4">
<path d="M35.3669 28.067C36.4914 30.095 39.071 30.8343 41.099 29.7078L41.2887 29.6022L44.6134 27.758L44.8892 27.6054L49.796 24.8831C50.4961 24.4959 51.0378 23.9307 51.4075 23.2794C51.3097 24.5702 50.5763 25.7905 49.3442 26.4613L44.6427 29.0194L43.44 29.6745L43.26 29.7723L42.8259 30.009L41.011 30.9966C39.069 32.0546 36.597 31.3584 35.5194 29.4516C35.1283 28.7612 34.9757 28.0024 35.0285 27.2651C35.1126 27.5389 35.2261 27.8068 35.3688 28.067H35.3669Z" fill="#FFE7DE"/>
</g>
<path d="M37.1973 22.2291L37.3245 22.1587L37.1973 22.2291Z" fill="#F4F4F4"/>
<path d="M51.4073 23.2813C51.0377 23.9326 50.496 24.4978 49.7958 24.885L44.889 27.6073C46.7919 26.5512 46.8525 24.6073 45.9216 22.6966L49.8506 20.6744C50.2691 20.4592 50.4354 19.939 50.2202 19.5205C50.0051 19.102 49.4849 18.9338 49.0664 19.1509L44.9848 21.2513C43.8603 19.9429 42.3212 19.3895 40.6882 20.295L45.7045 17.512C47.7326 16.3875 50.3122 17.1267 51.4367 19.1528C52.174 20.4808 52.1055 22.0434 51.4054 23.2813H51.4073Z" fill="#89DAAA"/>
<path d="M41.2867 29.604L41.7385 29.3536L43.6316 28.3034L44.6134 27.7598L41.2887 29.604H41.2867Z" fill="#F4F4F4"/>
<path d="M39.3545 21.0343L38.4588 21.531L39.3545 21.0343Z" fill="#8DDE44"/>
<path d="M36.0064 27.713C37.1309 29.741 39.7105 30.4803 41.7386 29.3558L41.2868 29.6061L41.0971 29.7117C39.069 30.8362 36.4895 30.097 35.3649 28.0709C35.2202 27.8108 35.1087 27.5428 35.0246 27.269C34.4516 25.4053 35.2378 23.3185 37.0077 22.3387L37.1974 22.2331L37.3245 22.1627L37.6472 21.9828C35.6192 23.1073 34.8799 25.6869 36.0064 27.7149V27.713Z" fill="#228821"/>
<path d="M44.9869 21.2494L39.9999 23.8153C39.5814 24.0304 39.4151 24.5506 39.6302 24.9692C39.8454 25.3877 40.3656 25.5559 40.7841 25.3388L45.9217 22.6947C46.8506 24.6054 46.792 26.5494 44.8891 27.6054L44.6133 27.758L43.6335 28.3017L41.7404 29.3519C39.7124 30.4764 37.1328 29.7371 36.0083 27.711C34.8838 25.683 35.623 23.1034 37.6491 21.9789L38.4588 21.5291L39.3564 21.0324L40.6922 20.2911C42.3252 19.3857 43.8643 19.9391 44.9888 21.2475L44.9869 21.2494Z" fill="#952766"/>
<path d="M40.7841 25.3387C40.3656 25.5538 39.8454 25.3876 39.6303 24.9691C39.4151 24.5506 39.5814 24.0304 39.9999 23.8152L44.9869 21.2494L49.0684 19.1489C49.487 18.9338 50.0072 19.1001 50.2223 19.5186C50.4374 19.9371 50.2712 20.4573 49.8527 20.6724L45.9237 22.6946L40.7861 25.3387H40.7841Z" fill="#FFE7DE"/>
<g style="mix-blend-mode:multiply" opacity="0.4">
<path d="M17.8616 17.5706C18.9862 19.5987 21.5657 20.3379 23.5938 19.2114L23.7835 19.1058L24.5951 18.656L25.9249 17.9187L25.9406 17.9109L26.1283 17.8073L27.3839 17.111L32.2907 14.3887C32.9909 14.0015 33.5326 13.4363 33.9022 12.785C33.8044 14.0758 33.071 15.2961 31.839 15.9669L27.1375 18.525L25.9347 19.1802L25.7548 19.2779L25.3206 19.5146L23.5058 20.5022C21.5638 21.5602 19.0918 20.864 18.0142 18.9572C17.623 18.2668 17.4705 17.508 17.5233 16.7707C17.6074 17.0445 17.7208 17.3125 17.8636 17.5726L17.8616 17.5706Z" fill="#FFE7DE"/>
</g>
<path d="M33.902 12.7851C33.5324 13.4363 32.9907 14.0015 32.2905 14.3888L27.3837 17.1111C29.2866 16.055 29.3472 14.1111 28.4163 12.2003L32.3453 10.1782C32.7638 9.96303 32.9301 9.44281 32.7149 9.0243C32.4998 8.60578 31.9796 8.43759 31.5611 8.65467L27.4795 10.7551C26.355 9.44673 24.8159 8.89326 23.1829 9.79875L22.6724 10.0823L28.1973 7.01775C30.2253 5.89323 32.8049 6.63249 33.9294 8.65858C34.6667 9.9865 34.5982 11.5491 33.8981 12.787L33.902 12.7851Z" fill="#89DAAA"/>
<path d="M23.783 19.1079L24.2348 18.8576L24.5946 18.6581L23.783 19.1079Z" fill="#F4F4F4"/>
<path d="M21.849 10.538L21.6965 10.6221L21.849 10.538Z" fill="#8DDE44"/>
<path d="M25.9247 17.9213L25.9412 17.911L25.9247 17.9213Z" fill="#8DDE44"/>
<path d="M18.5029 17.2168C19.6274 19.2448 22.207 19.9841 24.2351 18.8576L23.7833 19.1079L23.5936 19.2135C21.5655 20.338 18.986 19.5988 17.8615 17.5727C17.7167 17.3126 17.6053 17.0447 17.5212 16.7709C16.9481 14.9071 17.7343 12.8204 19.5042 11.8406L20.1438 11.4846C18.1157 12.6091 17.3764 15.1887 18.5029 17.2168Z" fill="#228821"/>
<path d="M27.4814 10.7531L22.4944 13.319C22.0759 13.5341 21.9096 14.0543 22.1247 14.4728C22.3399 14.8913 22.8601 15.0595 23.2786 14.8425L28.4162 12.1984C29.3451 14.1091 29.2865 16.053 27.3836 17.1091L26.128 17.8053L25.9403 17.909L25.9246 17.9168L24.5948 18.6541L24.2349 18.8536C22.2069 19.9781 19.6273 19.2389 18.5028 17.2128C17.3783 15.1847 18.1175 12.6051 20.1436 11.4806L21.6945 10.6201L21.849 10.5341L22.6743 10.0764L23.1847 9.79286C24.8177 8.88737 26.3569 9.44083 27.4814 10.7492V10.7531Z" fill="#952766"/>
<path d="M23.2786 14.8425C22.8601 15.0576 22.3399 14.8914 22.1248 14.4729C21.9097 14.0544 22.0759 13.5341 22.4944 13.319L27.4814 10.7531L31.563 8.65274C31.9815 8.43761 32.5017 8.60384 32.7168 9.02236C32.9319 9.44088 32.7657 9.96109 32.3472 10.1762L28.4182 12.1984L23.2806 14.8425H23.2786Z" fill="#FFE7DE"/>
<g style="mix-blend-mode:multiply" opacity="0.4">
<path d="M35.3532 54.9635L35.5429 54.8579L44.0501 50.1388C44.7503 49.7516 45.292 49.1864 45.6616 48.5352C45.5638 49.8259 44.8304 51.0463 43.5984 51.7171L38.8969 54.2751L37.6941 54.9303L37.5142 55.0281L37.08 55.2647L35.2652 56.2523C33.3232 57.3104 30.8512 56.6141 29.7736 54.7073C29.3824 54.017 29.2299 53.2582 29.2827 52.5209C29.3668 52.7947 29.4802 53.0626 29.623 53.3227C30.7475 55.3507 33.3271 56.09 35.3551 54.9635H35.3532Z" fill="#FFE7DE"/>
</g>
<path d="M31.4515 47.485L31.8074 47.2875L31.4515 47.485Z" fill="#F4F4F4"/>
<path d="M44.05 50.1388L35.5427 54.8579L35.9945 54.6075L37.8876 53.5573L39.1431 52.8611C41.046 51.805 41.1066 49.8611 40.1757 47.9503L44.1047 45.9282C44.5233 45.713 44.6895 45.1928 44.4744 44.7743C44.2592 44.3558 43.739 44.1876 43.3205 44.4047L39.239 46.5051C38.1144 45.1967 36.5753 44.6433 34.9423 45.5487L39.9587 42.7658C41.9867 41.6413 44.5663 42.3805 45.6908 44.4066C46.4281 45.7345 46.3596 47.2971 45.6595 48.5351C45.2899 49.1863 44.7482 49.7515 44.048 50.1388H44.05Z" fill="#89DAAA"/>
<path d="M31.2617 47.5906L31.4514 47.485L31.8054 47.2874L31.9012 47.2346C29.8731 48.3591 29.1358 50.9387 30.2604 52.9668C31.3849 54.9948 33.9645 55.7341 35.9925 54.6095L35.5407 54.8599L35.351 54.9655C33.323 56.09 30.7434 55.3507 29.6189 53.3246C29.4742 53.0645 29.3627 52.7966 29.2786 52.5228C28.7056 50.659 29.4918 48.5723 31.2617 47.5925V47.5906Z" fill="#228821"/>
<path d="M39.2412 46.5032L34.2542 49.0691C33.8357 49.2842 33.6694 49.8044 33.8846 50.2229C34.0997 50.6415 34.6199 50.8097 35.0384 50.5926L40.176 47.9485C41.105 49.8592 41.0463 51.8051 39.1434 52.8592L37.8879 53.5554L35.9947 54.6056C33.9667 55.7302 31.3872 54.9909 30.2626 52.9648C29.1381 50.9368 29.8774 48.3572 31.9035 47.2327L34.9445 45.5449C36.5775 44.6394 38.1167 45.1929 39.2412 46.5013V46.5032Z" fill="#952766"/>
<path d="M35.0382 50.5946C34.6197 50.8097 34.0995 50.6435 33.8844 50.225C33.6692 49.8064 33.8355 49.2862 34.254 49.0711L39.241 46.5052L43.3225 44.4048C43.7411 44.1897 44.2613 44.3559 44.4764 44.7744C44.6915 45.193 44.5253 45.7132 44.1068 45.9283L40.1778 47.9505L35.0402 50.5946H35.0382Z" fill="#FFE7DE"/>
<g style="mix-blend-mode:multiply" opacity="0.4">
<path d="M47.099 63.8443C48.2235 65.8723 50.8031 66.6116 52.8312 65.4851L53.0209 65.3795L61.5281 60.6604C62.2283 60.2732 62.77 59.708 63.1396 59.0568C63.0418 60.3475 62.3084 61.5679 61.0764 62.2387L56.3749 64.7967L55.1721 65.4519L54.9922 65.5497L54.558 65.7863L52.7431 66.7739C50.8011 67.832 48.3292 67.1357 47.2516 65.2289C46.8604 64.5386 46.7079 63.7798 46.7587 63.0425C46.8428 63.3163 46.9563 63.5842 47.099 63.8443Z" fill="#FFE7DE"/>
</g>
<path d="M61.528 60.6604L53.0207 65.3795L54.1511 64.7517L55.1075 64.2217L55.1779 64.1826L55.3656 64.0789L56.6212 63.3827C58.5241 62.3266 58.5847 60.3827 57.6538 58.472L61.5828 56.4498C62.0013 56.2346 62.1675 55.7144 61.9524 55.2959C61.7373 54.8774 61.217 54.7092 60.7985 54.9263L56.717 57.0267C55.5925 55.7183 54.0534 55.1649 52.4203 56.0704L57.4367 53.2874C59.4647 52.1629 62.0443 52.9021 63.1688 54.9282C63.9061 56.2562 63.8377 57.8187 63.1375 59.0567C62.7679 59.7079 62.2262 60.2731 61.526 60.6604H61.528Z" fill="#89DAAA"/>
<path d="M48.7397 58.1122L51.0865 56.8097L49.3812 57.7562C47.3531 58.8808 46.6139 61.4603 47.7404 63.4884C48.8649 65.5164 51.4444 66.2557 53.4725 65.1292L54.1511 64.7518L53.0207 65.3795L52.831 65.4851C50.803 66.6097 48.2234 65.8704 47.0989 63.8443C46.9542 63.5842 46.8427 63.3163 46.7586 63.0425C46.1856 61.1787 46.9718 59.092 48.7417 58.1122H48.7397Z" fill="#228821"/>
<path d="M55.1754 64.1847L55.1076 64.2234L55.1754 64.1847Z" fill="#8DDE44"/>
<path d="M56.7191 57.0248L51.732 59.5907C51.3135 59.8058 51.1473 60.326 51.3624 60.7446C51.5775 61.1631 52.0978 61.3313 52.5163 61.1142L57.6539 58.4701C58.5828 60.3808 58.5242 62.3267 56.6213 63.3808L55.3657 64.077L55.178 64.1807L55.1076 64.2198L54.1512 64.7498L53.4726 65.1273C51.4446 66.2518 48.865 65.5125 47.7405 63.4864C46.6159 61.4584 47.3552 58.8788 49.3813 57.7543L51.0867 56.8077L52.4224 56.0665C54.0554 55.1611 55.5945 55.7145 56.7191 57.0229V57.0248Z" fill="#952766"/>
<path d="M52.5163 61.1162C52.0978 61.3313 51.5776 61.1651 51.3625 60.7466C51.1473 60.328 51.3136 59.8078 51.7321 59.5927L56.7191 57.0268L60.8006 54.9264C61.2191 54.7113 61.7394 54.8775 61.9545 55.296C62.1696 55.7146 62.0034 56.2348 61.5849 56.4499L57.6559 58.4721L52.5183 61.1162H52.5163Z" fill="#FFE7DE"/>
<g style="mix-blend-mode:multiply" opacity="0.4">
<path d="M12.1392 42.8266C13.2637 44.8546 15.8433 45.5939 17.8714 44.4674L18.0611 44.3618L26.5703 39.6427C27.2704 39.2555 27.8121 38.6903 28.1818 38.0391C28.084 39.3298 27.3506 40.5502 26.1185 41.221L21.417 43.779L20.2143 44.4342L20.0343 44.532L19.6002 44.7686L17.7853 45.7562C15.8433 46.8142 13.3713 46.118 12.2937 44.2112C11.9026 43.5209 11.75 42.7621 11.8028 42.0248C11.8869 42.2986 12.0004 42.5665 12.1431 42.8266H12.1392Z" fill="#FFE7DE"/>
</g>
<path d="M14.4215 36.7384L13.9697 36.9887L14.6112 36.6328L14.6053 36.6367L14.4215 36.7384Z" fill="#F4F4F4"/>
<path d="M26.568 39.6427L18.0607 44.3618L18.5125 44.1114L19.1246 43.7731L19.7661 43.4172L20.1631 43.1981L20.4075 43.0632L21.6631 42.367C23.566 41.3109 23.6266 39.3669 22.6957 37.4562L26.6247 35.434C27.0432 35.2189 27.2094 34.6987 26.9943 34.2802C26.7792 33.8616 26.259 33.6934 25.8405 33.9105L21.7589 36.011C20.6344 34.7026 19.0953 34.1491 17.4623 35.0546L22.4786 32.2717C24.5067 31.1471 27.0862 31.8864 28.2108 33.9125C28.9481 35.2404 28.8796 36.803 28.1795 38.041C27.8098 38.6922 27.2681 39.2574 26.568 39.6446V39.6427Z" fill="#89DAAA"/>
<path d="M13.7799 37.0943L13.9696 36.9887L14.4213 36.7384C12.3933 37.8629 11.654 40.4425 12.7805 42.4705C13.905 44.4986 16.4846 45.2378 18.5127 44.1133L18.0609 44.3636L17.8712 44.4693C15.8431 45.5938 13.2636 44.8545 12.139 42.8284C11.9943 42.5683 11.8828 42.3004 11.7988 42.0266C11.2257 40.1628 12.0119 38.0761 13.7818 37.0963L13.7799 37.0943Z" fill="#228821"/>
<path d="M14.6052 36.6367L14.6111 36.6328L16.1268 35.7919L14.6052 36.6367Z" fill="#8DDE44"/>
<path d="M19.7646 43.4172L19.1231 43.7731L20.1596 43.1981L19.7646 43.4172Z" fill="#8DDE44"/>
<path d="M21.759 36.009L16.772 38.5748C16.3535 38.79 16.1873 39.3102 16.4024 39.7287C16.6175 40.1472 17.1377 40.3154 17.5563 40.0983L22.6939 37.4542C23.6228 39.3649 23.5641 41.3108 21.6613 42.365L20.4057 43.0612L20.1612 43.1961L19.1228 43.7711L18.5106 44.1094C16.4826 45.234 13.903 44.4947 12.7785 42.4686C11.654 40.4406 12.3932 37.861 14.4193 36.7365L14.6032 36.6348L16.1247 35.7919L17.4604 35.0507C19.0934 34.1452 20.6326 34.6986 21.7571 36.007L21.759 36.009Z" fill="#952766"/>
<path d="M17.5563 40.0982C17.1378 40.3134 16.6176 40.1471 16.4024 39.7286C16.1873 39.3101 16.3535 38.7899 16.7721 38.5748L21.7591 36.0089L25.8406 33.9085C26.2591 33.6933 26.7793 33.8596 26.9945 34.2781C27.2096 34.6966 27.0434 35.2168 26.6248 35.432L22.6958 37.4541L17.5582 40.0982H17.5563Z" fill="#FFE7DE"/>
<g style="mix-blend-mode:multiply" opacity="0.4">
<path d="M0.365743 33.9575L0.555439 33.8519L1.90096 33.1049L2.69694 32.6629L2.71257 32.655L2.90031 32.5514L3.40098 32.2737L9.06466 29.1328C9.7648 28.7456 10.3065 28.1804 10.6761 27.5292C10.5784 28.8199 9.84499 30.0403 8.61291 30.7111L3.91141 33.2691L2.70866 33.9243L2.52873 34.0221L2.09457 34.2587L0.27968 35.2463C-1.66232 36.3044 -4.13431 35.6081 -5.2119 33.7013C-5.60303 33.011 -5.75558 32.2522 -5.70278 31.5149C-5.61868 31.7887 -5.50525 32.0566 -5.36249 32.3167C-4.23796 34.3448 -1.65839 35.084 0.369658 33.9575H0.365743Z" fill="#FFE7DE"/>
</g>
<path d="M9.06273 29.1328L3.39905 32.2736L4.1559 31.8551C6.05879 30.799 6.11942 28.8551 5.18851 26.9444L9.11749 24.9222C9.53601 24.7071 9.70225 24.1868 9.48712 23.7683C9.272 23.3498 8.75178 23.1816 8.33326 23.3987L4.25173 25.4991C3.12721 24.1908 1.58808 23.6373 -0.0449219 24.5428L4.97143 21.7598C6.99949 20.6353 9.57903 21.3745 10.7036 23.4006C11.4409 24.7286 11.3724 26.2912 10.6723 27.5291C10.3026 28.1804 9.76091 28.7456 9.06077 29.1328H9.06273Z" fill="#89DAAA"/>
<path d="M0.555359 33.8538L1.00714 33.6034L1.90088 33.1067L0.555359 33.8538Z" fill="#F4F4F4"/>
<path d="M-4.72474 31.9607C-3.60021 33.9888 -1.02064 34.728 1.00741 33.6015L0.555635 33.8519L0.365938 33.9575C-1.66212 35.082 -4.24168 34.3428 -5.36621 32.3167C-5.51093 32.0565 -5.6224 31.7886 -5.7065 31.5148C-6.27951 29.651 -5.49332 27.5643 -3.72342 26.5845L-1.99264 25.6243L-3.08195 26.2286C-5.11 27.3531 -5.84926 29.9327 -4.72278 31.9607H-4.72474Z" fill="#228821"/>
<path d="M2.69714 32.6651L2.71354 32.6569L2.69714 32.6651Z" fill="#952766"/>
<path d="M-0.0428505 24.5427C1.59015 23.6372 3.12928 24.1907 4.2538 25.4991L-0.733215 28.0649C-1.15173 28.2801 -1.31797 28.8003 -1.10284 29.2188C-0.887718 29.6373 -0.367499 29.8055 0.0510192 29.5884L5.18863 26.9443C6.11758 28.855 6.0589 30.801 4.15602 31.8551L3.39916 32.2736L2.89849 32.5513L2.71076 32.6549L2.69512 32.6628L1.89914 33.1047L1.00344 33.6015C-1.02461 34.726 -3.60418 33.9868 -4.72871 31.9607C-5.85323 29.9326 -5.11397 27.3531 -3.08788 26.2285L-1.99854 25.6242L-0.0467653 24.5408L-0.0428505 24.5427Z" fill="#952766"/>
<path d="M8.33535 23.3987C8.75387 23.1836 9.27409 23.3498 9.48921 23.7683C9.70434 24.1869 9.5381 24.7071 9.11958 24.9222L5.1906 26.9444L0.0529963 29.5885C-0.365522 29.8036 -0.885741 29.6374 -1.10087 29.2188C-1.31599 28.8003 -1.14976 28.2801 -0.731238 28.065L4.25578 25.4991L8.33731 23.3987H8.33535Z" fill="#FFE7DE"/>
</svg>
