<svg width="121" height="98" viewBox="0 0 121 98" fill="none" xmlns="http://www.w3.org/2000/svg">
<g style="mix-blend-mode:multiply" opacity="0.4">
<path d="M112.555 54.1591L63.3969 81.6176C62.9001 81.2842 62.532 81.0925 62.532 81.0925L43.0744 77.7936L42.7084 86.6247C42.7084 86.6247 50.7332 92.4445 59.7429 89.9606C63.8414 90.6535 67.4214 89.625 70.0513 87.0822L114.337 61.8071C115.15 61.5238 115.917 61.1425 116.632 60.6697C120.698 57.9766 116.813 51.782 112.555 54.1591Z" fill="#05053A"/>
</g>
<g style="mix-blend-mode:multiply" opacity="0.4">
<path d="M18.1566 90.7711C14.4829 92.9587 8.60433 92.8323 5.02658 90.4878C1.44883 88.1433 1.52946 84.4697 5.20308 82.2821C8.8767 80.0945 14.7553 80.2208 18.3331 82.5653C21.9108 84.9098 21.8302 88.5834 18.1566 90.7711Z" fill="#05053A"/>
</g>
<g style="mix-blend-mode:multiply" opacity="0.4">
<path d="M47.6654 82.036L47.6741 82.0294L47.4976 81.8137L45.5844 79.4561L45.3339 79.1467L45.3143 79.162C44.3491 78.2076 42.8173 77.7435 40.8868 77.9832C36.6423 78.5083 32.0775 82.2146 30.6895 86.2587C30.0577 88.0998 30.1949 89.6948 30.9314 90.8343L30.9118 90.8496L33.252 93.7323L33.2607 93.7257C34.2194 94.7389 35.786 95.2335 37.7753 94.9873C42.0198 94.4622 46.5847 90.7559 47.9726 86.7119C48.6219 84.8162 48.4606 83.1821 47.6654 82.036Z" fill="#05053A"/>
</g>
<path d="M116.29 43.8138C116.861 30.0061 107.86 12.8146 96.1872 5.41511C90.6289 1.89184 85.4693 1.22728 81.5233 2.98347C81.0984 3.17303 80.6866 3.39092 80.29 3.63496L31.2997 29.054L63.5474 83.5263L107.979 58.1662C112.766 56.495 115.972 51.4835 116.29 43.8116V43.8138Z" fill="#F4F4F4"/>
<path d="M61.2191 85.3986C70.196 80.6996 70.8753 64.2857 62.7364 48.7371C54.5974 33.1885 40.7222 24.3932 31.7453 29.0922C22.7684 33.7912 22.0892 50.2051 30.2282 65.7537C38.3671 81.3022 52.2422 90.0976 61.2191 85.3986Z" fill="#FFC872"/>
<path d="M54.4371 82.7491C61.8493 78.8988 62.4617 65.3892 55.805 52.5745C49.1483 39.7599 37.7433 32.4928 30.3311 36.3432C22.9189 40.1935 22.3064 53.7031 28.9631 66.5178C35.6198 79.3324 47.0249 86.5994 54.4371 82.7491Z" fill="white"/>
<path d="M106.844 53.3777C114.257 49.5273 114.869 36.0177 108.212 23.203C101.556 10.3884 90.1507 3.12137 82.7385 6.9717C75.3263 10.822 74.7137 24.3317 81.3704 37.1463C88.0271 49.961 99.4322 57.228 106.844 53.3777Z" fill="white"/>
<path d="M45.6848 36.9807C40.0131 33.3855 34.8142 33.1742 31.206 35.7431C33.7226 35.8847 36.5181 36.8369 39.4357 38.6868C49.7135 45.2017 57.6382 60.3363 57.1349 72.4945C56.9104 77.9439 55.0257 81.8638 52.0951 83.9512C58.44 84.3085 63.0244 79.4931 63.384 70.7885C63.8873 58.6302 55.9627 43.4956 45.6848 36.9807Z" fill="#8DDE44"/>
<path d="M43.8654 81.0076C33.5875 74.4927 25.6629 59.3581 26.1662 47.1998C26.3907 41.7504 28.2754 37.8306 31.206 35.7432C24.861 35.3858 20.2766 40.2012 19.9171 48.9059C19.4138 61.0641 27.3384 76.1987 37.6163 82.7136C43.2879 86.3088 48.4868 86.5202 52.0951 83.9512C49.5785 83.8096 46.7829 82.8574 43.8654 81.0076Z" fill="#FF6464"/>
<path opacity="0.37" d="M80.3837 16.1309L54.47 30.2698C52.5265 31.3309 50.0687 30.6075 49.0097 28.6639C47.9486 26.7204 48.672 24.2626 50.6156 23.2036L76.5291 9.06478C78.4727 8.00366 80.9305 8.72705 81.9895 10.6706C83.0506 12.6142 82.3273 15.072 80.3837 16.1309Z" fill="white"/>
<path d="M52.3719 82.7571C48.5087 84.5918 42.6692 83.9185 39.3268 81.2493C35.9844 78.5824 36.4049 74.9327 40.268 73.0959C44.1312 71.2613 49.9707 71.9346 53.3131 74.6037C56.6555 77.2707 56.2351 80.9203 52.3719 82.7571Z" fill="#FFE7DE"/>
<path d="M55.9319 75.6081L37.4839 73.4768L37.0578 77.1651L55.5058 79.2964L55.9319 75.6081Z" fill="#FFE7DE"/>
<path d="M52.7204 79.7416C48.8572 81.5762 43.0178 80.903 39.6754 78.2338C36.333 75.5669 36.7535 71.9172 40.6166 70.0804C44.4798 68.2458 50.3193 68.919 53.6617 71.5882C57.0041 74.2552 56.5836 77.9048 52.7204 79.7416Z" fill="#E8C9D7"/>
<path d="M51.1407 78.0486C48.3168 79.3908 44.0441 78.8962 41.5994 76.9461C39.1546 74.996 39.464 72.3247 42.2878 70.9825C45.1117 69.6403 49.3845 70.1327 51.8292 72.085C54.2739 74.0351 53.9645 76.7064 51.1407 78.0486Z" fill="#FFE7DE"/>
<path d="M39.3584 92.0641C43.3408 88.8323 44.9323 84.1952 42.9129 81.7069C40.8936 79.2186 36.0282 79.8213 32.0458 83.0531C28.0634 86.2849 26.4721 90.922 28.4914 93.4103C30.5107 95.8986 35.376 95.2959 39.3584 92.0641Z" fill="#FFE7DE"/>
<path d="M40.7723 79.0797L26.3524 90.7817L28.692 93.6647L43.1119 81.9627L40.7723 79.0797Z" fill="#FFE7DE"/>
<path d="M37.4428 89.705C41.4252 86.4732 43.0166 81.8361 40.9973 79.3478C38.978 76.8595 34.1126 77.4622 30.1302 80.6941C26.1478 83.9259 24.5563 88.563 26.5757 91.0513C28.595 93.5396 33.4604 92.9368 37.4428 89.705Z" fill="#E8C9D7"/>
<path d="M39.1327 84.1559C38.1173 87.1149 34.7792 89.8233 31.6743 90.2089C28.5694 90.5924 26.8764 88.5072 27.8918 85.5483C28.9071 82.5893 32.2452 79.8809 35.3501 79.4953C38.4551 79.1118 40.148 81.197 39.1327 84.1559Z" fill="#FFE7DE"/>
<path d="M39.7712 70.5292C35.5986 69.5901 31.4195 65.4567 30.4346 61.295C29.4498 57.1333 32.034 54.5208 36.2066 55.4599C40.3792 56.399 44.5582 60.5324 45.5431 64.6941C46.5279 68.8558 43.9438 71.4683 39.7712 70.5292Z" fill="#FFE7DE"/>
<path d="M46.9188 67.1573L33.7165 54.097L31.1054 56.7366L44.3077 69.7968L46.9188 67.1573Z" fill="#FFE7DE"/>
<path d="M41.9066 68.3721C37.734 67.433 33.5548 63.2996 32.57 59.1379C31.5851 54.9762 34.1693 52.3637 38.3419 53.3028C42.5145 54.2419 46.6937 58.3753 47.6785 62.537C48.6634 66.6987 46.0792 69.3112 41.9066 68.3721Z" fill="#E8C9D7"/>
<path d="M41.7062 66.0646C38.6557 65.3783 35.5987 62.354 34.8775 59.31C34.1585 56.2661 36.0475 54.3552 39.098 55.0416C42.1484 55.7279 45.2055 58.7523 45.9267 61.7962C46.6479 64.8401 44.7566 66.751 41.7062 66.0646Z" fill="#FFE7DE"/>
<path d="M15.7621 89.9716C12.0885 92.1592 6.20973 92.0329 2.63199 89.6884C-0.94576 87.3439 -0.865128 83.6703 2.80849 81.4826C6.48211 79.295 12.3608 79.4214 15.9386 81.7659C19.5163 84.1104 19.4357 87.784 15.7621 89.9716Z" fill="#FFE7DE"/>
<path d="M18.6571 82.3762L0.0906982 81.9775L0.0109989 85.6895L18.5774 86.0882L18.6571 82.3762Z" fill="#FFE7DE"/>
<path d="M15.8274 86.9364C12.1538 89.124 6.27522 88.9976 2.69747 86.6531C-0.880278 84.3086 -0.799753 80.635 2.87387 78.4474C6.54748 76.2598 12.4262 76.3861 16.0039 78.7306C19.5817 81.0751 19.5011 84.7487 15.8274 86.9364Z" fill="#E8C9D7"/>
<path d="M16.2388 82.4518C16.2895 80.1082 13.2907 78.1425 9.54064 78.0614C5.79061 77.9802 2.70948 79.8143 2.65875 82.1579C2.60802 84.5015 5.6069 86.4672 9.35693 86.5483C13.107 86.6295 16.1881 84.7954 16.2388 82.4518Z" fill="#FFE7DE"/>
<path d="M13.7573 82.9424L4.29871 82.8444C3.79538 82.84 3.38795 82.4239 3.39449 81.9205C3.39884 81.4172 3.81506 81.0098 4.31839 81.0163L13.7769 81.1144C14.2802 81.1187 14.6878 81.5349 14.6812 82.0382C14.6769 82.5415 14.2607 82.949 13.7573 82.9424Z" fill="#8DDE44"/>
<path d="M37.3134 82.0142L30.0489 88.0737C29.6633 88.3961 29.0837 88.3438 28.7612 87.9582C28.4387 87.5725 28.4911 86.9929 28.8767 86.6705L36.139 80.6109C36.5247 80.2885 37.1042 80.3408 37.4267 80.7264C37.7491 81.1121 37.6969 81.6917 37.3112 82.0142H37.3134Z" fill="#8DDE44"/>
<path d="M51.3739 75.4884L41.9697 74.5755C41.4686 74.5276 41.1003 74.0787 41.1483 73.5776C41.1962 73.0764 41.6451 72.706 42.1462 72.7539L51.5504 73.6669C52.0515 73.7148 52.4198 74.1637 52.3718 74.6648C52.3239 75.166 51.875 75.5364 51.3739 75.4884Z" fill="#8DDE44"/>
<path d="M42.5057 64.692L37.4179 56.7303C37.1477 56.3076 37.272 55.7389 37.6969 55.4687C38.1196 55.1964 38.6883 55.3228 38.9585 55.7455L44.0462 63.7071C44.3164 64.1298 44.1921 64.6985 43.7672 64.9687C43.3445 65.2411 42.7758 65.1147 42.5057 64.692Z" fill="#8DDE44"/>
</svg>
