<svg width="371" height="248" viewBox="0 0 371 248" fill="none" xmlns="http://www.w3.org/2000/svg">
<path d="M161.591 208.953C167.989 208.827 173.112 205.484 173.033 201.486C172.954 197.488 167.704 194.349 161.305 194.475C154.907 194.601 149.784 197.945 149.863 201.943C149.942 205.941 155.193 209.079 161.591 208.953Z" fill="#FF6464"/>
<path d="M158.563 208.078C164.962 207.952 170.084 204.609 170.006 200.611C169.927 196.613 164.676 193.474 158.278 193.6C151.879 193.726 146.756 197.07 146.835 201.068C146.914 205.066 152.165 208.204 158.563 208.078Z" fill="#FFC872"/>
<path d="M169.912 196.363L146.744 196.82L146.836 201.452L170.004 200.995L169.912 196.363Z" fill="#FFC872"/>
<path d="M166.637 202.011C162.168 204.926 154.834 205.072 150.254 202.333C145.674 199.597 145.585 195.012 150.052 192.095C154.521 189.179 161.855 189.033 166.435 191.772C171.015 194.509 171.104 199.093 166.637 202.011Z" fill="#F4F4F4"/>
<path d="M158.44 201.847C163.119 201.755 166.866 199.31 166.808 196.386C166.75 193.463 162.911 191.168 158.232 191.26C153.553 191.352 149.806 193.797 149.864 196.721C149.922 199.644 153.761 201.94 158.44 201.847Z" fill="#FFC872"/>
<path d="M163.851 197.141L152.054 197.505C151.427 197.525 150.897 197.028 150.88 196.4C150.86 195.773 151.357 195.243 151.984 195.226L163.781 194.862C164.408 194.842 164.938 195.339 164.955 195.967C164.975 196.594 164.478 197.124 163.851 197.141Z" fill="#FF6464"/>
<path d="M95.5751 200.431L95.9324 200.237L98.4818 198.86L102.513 196.681L111.965 191.572C115.787 189.506 120.689 190.62 122.859 194.045C125.029 197.47 123.681 201.963 119.859 204.029L110.612 209.027L108.245 210.306L107.892 210.498L107.04 210.96L103.471 212.888C99.6496 214.954 94.7471 213.84 92.5769 210.415C90.4068 206.99 91.7555 202.497 95.5773 200.431H95.5751Z" fill="#FF6464"/>
<path d="M118.918 201.39L101.205 211.452C96.9849 213.851 91.5681 212.358 89.1713 208.138C86.7724 203.917 88.2649 198.501 92.4876 196.102L110.2 186.04C114.42 183.641 119.837 185.133 122.234 189.354C124.633 193.574 123.14 198.991 118.918 201.39Z" fill="#FFC872"/>
<path d="M92.0912 196.326L96.9763 193.552C101.197 191.156 106.614 192.646 109.01 196.869C111.409 201.089 109.917 206.506 105.694 208.905L104.753 209.441L100.811 211.681C96.5906 214.08 91.1739 212.587 88.7771 208.365C86.3781 204.144 87.8706 198.727 92.0933 196.328L92.0912 196.326Z" fill="#89DAAA"/>
<path d="M93.4247 195.568L99.7566 191.971C103.977 189.574 107.947 191.886 110.344 196.108C112.743 200.329 112.924 204.795 108.701 207.194L106.086 208.68L102.145 210.92C97.9241 213.319 92.5074 211.827 90.1106 207.606C87.7116 203.386 89.2042 197.969 93.4269 195.57L93.4247 195.568Z" fill="#89DAAA"/>
<path opacity="0.61" d="M100.059 202.534L118.944 192.572C119.815 192.112 120.153 191.021 119.693 190.149C119.234 189.275 118.142 188.938 117.27 189.399L98.3859 199.361C97.5143 199.821 97.1766 200.913 97.6364 201.784C98.0961 202.658 99.1878 202.996 100.059 202.534Z" fill="#F4F4F4"/>
<path d="M272.427 125.784C272.421 125.895 272.406 126.006 272.393 126.117C273.19 122.888 271.148 119.267 266.418 116.537C259.219 112.381 248.46 111.826 241.942 115.173C241.733 115.279 241.513 115.38 241.313 115.495L186.163 147.335C183.905 148.638 182.541 150.285 182.04 152.057C181.842 155.009 184.81 158.685 188.714 160.938C196.144 165.228 208.531 164.758 215.961 160.467L267.507 130.71C269.959 129.294 271.597 127.588 272.432 125.784H272.427ZM251.198 127.019C249.915 127.76 247.836 127.76 246.553 127.019C245.27 126.278 245.27 125.078 246.553 124.337C247.836 123.596 249.915 123.596 251.198 124.337C252.482 125.078 252.482 126.278 251.198 127.019ZM246.775 134.264C245.492 133.523 245.492 132.323 246.775 131.582C248.059 130.841 250.137 130.841 251.421 131.582C252.704 132.323 252.704 133.523 251.421 134.264C250.137 135.005 248.059 135.005 246.775 134.264ZM212.767 153.898C211.484 153.157 211.484 151.957 212.767 151.216C214.05 150.475 216.129 150.475 217.412 151.216C218.696 151.957 218.696 153.157 217.412 153.898C216.129 154.639 214.05 154.639 212.767 153.898ZM200.417 161.027C199.134 160.287 199.134 159.086 200.417 158.345C201.7 157.604 203.779 157.604 205.062 158.345C206.346 159.086 206.346 160.287 205.062 161.027C203.779 161.768 201.7 161.768 200.417 161.027ZM192.536 153.809C191.253 154.55 189.174 154.55 187.891 153.809C186.607 153.068 186.607 151.867 187.891 151.127C189.174 150.386 191.253 150.386 192.536 151.127C193.819 151.867 193.819 153.068 192.536 153.809ZM200.195 151.1C201.478 150.36 203.557 150.36 204.84 151.1C206.124 151.841 206.124 153.042 204.84 153.783C203.557 154.523 201.478 154.523 200.195 153.783C198.911 153.042 198.911 151.841 200.195 151.1ZM204.886 146.679C203.603 147.42 201.524 147.42 200.241 146.679C198.957 145.939 198.957 144.738 200.241 143.997C201.524 143.256 203.603 143.256 204.886 143.997C206.169 144.738 206.169 145.939 204.886 146.679ZM238.907 127.039C237.624 127.78 235.545 127.78 234.262 127.039C232.979 126.298 232.979 125.097 234.262 124.357C235.545 123.616 237.624 123.616 238.907 124.357C240.191 125.097 240.191 126.298 238.907 127.039ZM245.043 137.227C245.952 137.752 245.952 139.064 245.043 139.589L226.533 150.277C226.111 150.521 225.592 150.521 225.169 150.277L207.636 140.154C206.727 139.628 206.727 138.317 207.636 137.792L226.145 127.104C226.568 126.86 227.087 126.86 227.509 127.104L245.043 137.227ZM251.257 119.909C249.974 120.65 247.895 120.65 246.612 119.909C245.328 119.169 245.328 117.968 246.612 117.227C247.895 116.486 249.974 116.486 251.257 117.227C252.541 117.968 252.541 119.169 251.257 119.909ZM263.529 127.019C262.245 127.76 260.167 127.76 258.883 127.019C257.6 126.278 257.6 125.078 258.883 124.337C260.167 123.596 262.245 123.596 263.529 124.337C264.812 125.078 264.812 126.278 263.529 127.019Z" fill="#FFC872"/>
<path d="M188.418 162.877C183.439 160.003 180.345 155.717 182.038 152.053C182.038 152.053 182.038 152.055 182.038 152.057C181.84 155.009 184.808 158.685 188.712 160.938C196.142 165.228 208.529 164.758 215.959 160.467L267.505 130.71C269.957 129.294 271.595 127.588 272.43 125.784C272.423 125.895 272.408 126.006 272.395 126.117C272.088 128.669 270.253 131.168 266.876 133.118L215.33 162.875C209.854 166.037 201.877 166.86 195.081 165.361C192.654 164.827 190.375 164.004 188.42 162.873L188.418 162.877Z" fill="#228821"/>
<path d="M227.51 127.106C227.087 126.862 226.568 126.862 226.146 127.106L207.636 137.794C206.727 138.319 206.727 139.631 207.636 140.156L225.169 150.279C225.592 150.523 226.111 150.523 226.533 150.279L245.043 139.592C245.952 139.066 245.952 137.755 245.043 137.23L227.51 127.106ZM224.232 144.601C225.516 143.86 227.595 143.86 228.878 144.601C230.161 145.342 230.161 146.542 228.878 147.283C227.595 148.024 225.516 148.024 224.232 147.283C222.949 146.542 222.949 145.342 224.232 144.601ZM216.351 140.064C215.068 140.805 212.989 140.805 211.706 140.064C210.423 139.324 210.423 138.123 211.706 137.382C212.989 136.641 215.068 136.641 216.351 137.382C217.635 138.123 217.635 139.324 216.351 140.064ZM224.01 137.356C225.294 136.615 227.372 136.615 228.656 137.356C229.939 138.097 229.939 139.297 228.656 140.038C227.372 140.779 225.294 140.779 224.01 140.038C222.727 139.297 222.727 138.097 224.01 137.356ZM228.701 132.935C227.418 133.676 225.339 133.676 224.056 132.935C222.773 132.194 222.773 130.994 224.056 130.253C225.339 129.512 227.418 129.512 228.701 130.253C229.985 130.994 229.985 132.194 228.701 132.935ZM241.228 140.154C239.944 140.895 237.866 140.895 236.582 140.154C235.299 139.413 235.299 138.212 236.582 137.471C237.866 136.731 239.944 136.731 241.228 137.471C242.511 138.212 242.511 139.413 241.228 140.154Z" fill="#228821"/>
<path d="M251.255 119.912C249.972 120.653 247.893 120.653 246.61 119.912C245.326 119.171 245.326 117.97 246.61 117.23C247.893 116.489 249.972 116.489 251.255 117.23C252.539 117.97 252.539 119.171 251.255 119.912Z" fill="white"/>
<path d="M238.905 127.041C237.622 127.782 235.543 127.782 234.26 127.041C232.976 126.3 232.976 125.1 234.26 124.359C235.543 123.618 237.622 123.618 238.905 124.359C240.189 125.1 240.189 126.3 238.905 127.041Z" fill="white"/>
<path d="M251.198 127.022C249.915 127.762 247.836 127.762 246.553 127.022C245.27 126.281 245.27 125.08 246.553 124.339C247.836 123.598 249.915 123.598 251.198 124.339C252.482 125.08 252.482 126.281 251.198 127.022Z" fill="white"/>
<path d="M246.775 134.266C245.492 133.525 245.492 132.325 246.775 131.584C248.059 130.843 250.137 130.843 251.421 131.584C252.704 132.325 252.704 133.525 251.421 134.266C250.137 135.007 248.059 135.007 246.775 134.266Z" fill="white"/>
<path d="M263.529 127.022C262.245 127.762 260.167 127.762 258.883 127.022C257.6 126.281 257.6 125.08 258.883 124.339C260.167 123.598 262.245 123.598 263.529 124.339C264.812 125.08 264.812 126.281 263.529 127.022Z" fill="white"/>
<path d="M204.886 146.682C203.603 147.423 201.524 147.423 200.241 146.682C198.957 145.941 198.957 144.74 200.241 143.999C201.524 143.259 203.603 143.259 204.886 143.999C206.169 144.74 206.169 145.941 204.886 146.682Z" fill="white"/>
<path d="M212.767 153.9C211.484 153.16 211.484 151.959 212.767 151.218C214.05 150.477 216.129 150.477 217.412 151.218C218.696 151.959 218.696 153.16 217.412 153.9C216.129 154.641 214.05 154.641 212.767 153.9Z" fill="white"/>
<path d="M192.536 153.811C191.253 154.552 189.174 154.552 187.891 153.811C186.607 153.07 186.607 151.87 187.891 151.129C189.174 150.388 191.253 150.388 192.536 151.129C193.82 151.87 193.82 153.07 192.536 153.811Z" fill="white"/>
<path d="M200.195 151.103C201.478 150.362 203.557 150.362 204.84 151.103C206.124 151.843 206.124 153.044 204.84 153.785C203.557 154.526 201.478 154.526 200.195 153.785C198.912 153.044 198.912 151.843 200.195 151.103Z" fill="white"/>
<path d="M200.417 158.347C201.701 157.607 203.779 157.607 205.063 158.347C206.346 159.088 206.346 160.289 205.063 161.03C203.779 161.771 201.701 161.771 200.417 161.03C199.134 160.289 199.134 159.088 200.417 158.347Z" fill="white"/>
<path d="M228.701 132.933C227.418 133.674 225.339 133.674 224.056 132.933C222.772 132.192 222.772 130.991 224.056 130.251C225.339 129.51 227.418 129.51 228.701 130.251C229.985 130.991 229.985 132.192 228.701 132.933Z" fill="white"/>
<path d="M241.228 140.152C239.945 140.892 237.866 140.892 236.583 140.152C235.299 139.411 235.299 138.21 236.583 137.469C237.866 136.728 239.945 136.728 241.228 137.469C242.511 138.21 242.511 139.411 241.228 140.152Z" fill="white"/>
<path d="M216.351 140.062C215.068 140.803 212.989 140.803 211.706 140.062C210.423 139.321 210.423 138.121 211.706 137.38C212.989 136.639 215.068 136.639 216.351 137.38C217.635 138.121 217.635 139.321 216.351 140.062Z" fill="white"/>
<path d="M224.01 137.354C225.293 136.613 227.372 136.613 228.656 137.354C229.939 138.095 229.939 139.295 228.656 140.036C227.372 140.777 225.293 140.777 224.01 140.036C222.727 139.295 222.727 138.095 224.01 137.354Z" fill="white"/>
<path d="M224.232 144.599C225.516 143.858 227.594 143.858 228.878 144.599C230.161 145.339 230.161 146.54 228.878 147.281C227.594 148.022 225.516 148.022 224.232 147.281C222.949 146.54 222.949 145.339 224.232 144.599Z" fill="white"/>
<path d="M244.865 35.0777L267.901 34.8284C268.639 34.8204 269.23 34.216 269.222 33.4784L269.12 24.0312C269.112 23.2936 268.508 22.7021 267.77 22.7101L244.734 22.9594C243.996 22.9674 243.405 23.5718 243.413 24.3094L243.515 33.7566C243.523 34.4942 244.127 35.0857 244.865 35.0777Z" fill="#FF6464"/>
<path d="M242.833 34.2038L265.869 33.9545C266.607 33.9465 267.198 33.3421 267.19 32.6045L267.088 23.1573C267.08 22.4197 266.475 21.8282 265.738 21.8362L242.702 22.0855C241.964 22.0935 241.373 22.6979 241.381 23.4355L241.483 32.8827C241.491 33.6203 242.095 34.2118 242.833 34.2038Z" fill="#FFC872"/>
<path d="M242.815 30.2399L265.851 29.9907C266.588 29.9827 267.18 29.3782 267.172 28.6406L267.07 19.1935C267.062 18.4559 266.457 17.8644 265.72 17.8723L242.683 18.1216C241.946 18.1296 241.354 18.734 241.362 19.4717L241.465 28.9188C241.473 29.6564 242.077 30.2479 242.815 30.2399Z" fill="#F4F4F4"/>
<path d="M393.665 211.499L393.796 211.575C395.718 206.867 391.245 200.034 377.343 191.994C363.475 183.973 351.979 181.003 343.514 182.452L343.405 182.389C303.163 188.78 271.436 212.695 241.814 240.945L241.805 240.94C236.07 247.848 237.759 256.286 251.66 264.324C265.562 272.365 279.5 273.933 292.146 270.053L292.083 270.016C339.807 253.036 386.989 235.957 393.663 211.497L393.665 211.499Z" fill="#046A03"/>
<path d="M256.538 222.68L209.601 222.377L209.463 243.734L256.4 244.037L256.538 222.68Z" fill="#F4F4F4"/>
<path d="M379.396 195.883L379.372 183.498L361.751 182.938C361.346 182.685 360.934 182.433 360.509 182.184C345.102 173.14 332.412 169.686 323.145 171.137L323.025 171.068C278.962 177.417 244.627 203.163 212.697 233.706L212.688 233.702C206.537 241.195 208.572 250.495 224.016 259.559C239.458 268.623 254.802 270.58 268.612 266.529L268.542 266.488C310.187 252.201 351.802 237.703 370.266 218.772C376.214 212.674 379.413 204.405 379.398 195.885L379.396 195.883Z" fill="#F4F4F4"/>
<path d="M255.706 222.891L256.809 223.538C260.696 225.819 260.171 229.791 255.639 232.364L202.674 262.435C198.146 265.006 191.261 265.244 187.374 262.963L186.271 262.315C182.384 260.034 182.909 256.062 187.439 253.489L240.404 223.418C244.932 220.847 251.817 220.609 255.704 222.891H255.706Z" fill="#E8C9D7"/>
<path d="M378.98 185.265L379.091 184.941C380.636 179.681 376.073 172.628 360.631 163.561C345.224 154.517 332.534 151.063 323.267 152.514L323.148 152.445C279.084 158.794 244.749 184.54 212.819 215.084L212.811 215.079C206.66 222.572 208.695 231.872 224.139 240.936C239.58 250 254.924 251.957 268.734 247.906L268.664 247.865C320.72 230.007 372.177 212.031 378.982 185.268L378.98 185.265Z" fill="#F4F4F4"/>
<path d="M370.438 185.766C371.879 180.849 368.138 174.508 354.559 166.536C341.01 158.583 329.756 155.597 321.448 156.964L321.341 156.9C281.84 162.91 250.575 186.161 221.347 213.672L221.339 213.667C215.671 220.402 217.273 228.689 230.852 236.661C244.433 244.634 258.09 246.261 270.516 242.538L270.455 242.501C317.363 226.154 363.736 209.708 370.438 185.766Z" fill="#FF6464"/>
<path d="M324.59 203.847L289.771 183.407C286.588 181.537 287.019 178.286 290.728 176.179L310.144 165.156C313.852 163.052 319.489 162.858 322.67 164.725L357.489 185.165C360.673 187.035 360.241 190.286 356.533 192.393L337.116 203.416C333.408 205.52 327.771 205.714 324.59 203.847Z" fill="#F4F4F4"/>
<path d="M324.464 200.104L294.467 182.494C291.804 180.932 292.164 178.21 295.266 176.45L310.904 167.571C314.005 165.81 318.72 165.647 321.383 167.209L351.379 184.819C354.042 186.381 353.683 189.102 350.58 190.863L334.942 199.742C331.841 201.502 327.126 201.666 324.464 200.104Z" fill="white"/>
<path d="M296.299 177.182L311.937 168.303C315.038 166.542 319.753 166.379 322.416 167.941L352.212 185.433C351.979 185.213 351.702 185.008 351.379 184.819L321.383 167.209C318.722 165.647 314.007 165.81 310.904 167.571L295.266 176.45C292.164 178.212 291.804 180.932 294.467 182.494L294.665 182.611C292.963 181.019 293.569 178.729 296.297 177.182H296.299Z" fill="#F4F4F4"/>
<g style="mix-blend-mode:multiply">
<path d="M288.446 232.122L253.551 235.931L253.601 228.388L260.591 215.824L288.494 224.579L288.446 232.122Z" fill="#E8C9D7"/>
<path d="M294.519 228.673L301.698 208.597L304.315 200.779L266.808 204.78L266.758 212.323L294.519 228.673Z" fill="#E8C9D7"/>
</g>
<path d="M332.693 178.434C325.638 178.868 319.677 179.975 315.266 182.043C314.998 182.158 314.737 182.282 314.493 182.422C311.449 184.15 311.442 186.995 314.478 188.775C317.513 190.558 322.439 190.601 325.483 188.874C329.159 186.845 331.214 182.967 332.695 178.434H332.693Z" fill="#8DDE44"/>
<path d="M221.367 232.628C221.53 232.763 221.692 232.898 221.862 233.033C221.548 232.617 221.273 232.201 221.014 231.787C221.121 232.066 221.236 232.347 221.367 232.628Z" fill="#F4F4F4"/>
<path d="M222.413 216.402L222.421 216.406C251.47 188.706 282.583 165.252 322.043 158.986L322.15 159.047C330.451 157.626 341.723 160.537 355.323 168.403C357.356 169.577 359.178 170.726 360.807 171.845C363.705 173.628 366.131 175.345 368.107 176.986C365.553 173.728 361.034 170.057 354.164 166.082C340.563 158.217 329.292 155.305 320.99 156.726L320.884 156.665C281.422 162.932 250.309 186.385 221.262 214.086L221.254 214.081C217.846 218.184 217.111 222.84 220.092 227.625C218.582 223.662 219.558 219.838 222.413 216.402Z" fill="#F4F4F4"/>
<path d="M279.861 230.31L244.968 234.118L245.016 226.575L252.008 214.012L279.911 222.766L279.861 230.31Z" fill="#F4F4F4"/>
<path d="M285.936 226.861L293.116 206.782L293.164 199.239L258.225 202.967L258.175 210.51L285.936 226.861Z" fill="#F4F4F4"/>
<path d="M279.912 222.766L245.017 226.575L252.057 206.468L279.912 222.766Z" fill="white"/>
<path d="M285.986 219.317L293.164 199.239L258.225 202.967L285.986 219.317Z" fill="white"/>
<path d="M197.447 247.834L186.868 253.84C182.665 256.225 182.657 260.189 186.847 262.649C191.037 265.109 197.902 265.17 202.106 262.784L212.66 256.764L197.449 247.834H197.447Z" fill="#89DAAA"/>
<g style="mix-blend-mode:multiply" opacity="0.4">
<path d="M383.898 54.1591L334.739 81.6176C334.243 81.2842 333.874 81.0925 333.874 81.0925L314.417 77.7936L314.051 86.6247C314.051 86.6247 322.076 92.4445 331.085 89.9606C335.184 90.6535 338.764 89.625 341.394 87.0822L385.68 61.8071C386.493 61.5238 387.26 61.1425 387.974 60.6697C392.04 57.9766 388.155 51.782 383.898 54.1591Z" fill="#05053A"/>
</g>
<g style="mix-blend-mode:multiply" opacity="0.4">
<path d="M289.499 90.7711C285.825 92.9587 279.947 92.8323 276.369 90.4878C272.791 88.1433 272.872 84.4697 276.546 82.2821C280.219 80.0945 286.098 80.2208 289.676 82.5653C293.253 84.9098 293.173 88.5834 289.499 90.7711Z" fill="#05053A"/>
</g>
<g style="mix-blend-mode:multiply" opacity="0.4">
<path d="M319.008 82.036L319.017 82.0294L318.84 81.8137L316.927 79.4561L316.676 79.1467L316.657 79.162C315.692 78.2076 314.16 77.7435 312.229 77.9832C307.985 78.5083 303.42 82.2146 302.032 86.2587C301.4 88.0998 301.537 89.6948 302.274 90.8343L302.254 90.8496L304.594 93.7323L304.603 93.7257C305.562 94.7389 307.128 95.2335 309.118 94.9873C313.362 94.4622 317.927 90.7559 319.315 86.7119C319.964 84.8162 319.803 83.1821 319.008 82.036Z" fill="#05053A"/>
</g>
<path d="M387.632 43.8138C388.203 30.0061 379.202 12.8146 367.53 5.41511C361.971 1.89184 356.812 1.22728 352.866 2.98347C352.441 3.17303 352.029 3.39092 351.632 3.63496L302.642 29.054L334.89 83.5263L379.322 58.1662C384.109 56.495 387.314 51.4835 387.632 43.8116V43.8138Z" fill="#F4F4F4"/>
<path d="M332.562 85.3986C341.538 80.6996 342.218 64.2857 334.079 48.7371C325.94 33.1885 312.065 24.3932 303.088 29.0922C294.111 33.7912 293.432 50.2051 301.571 65.7537C309.71 81.3022 323.585 90.0976 332.562 85.3986Z" fill="#FFC872"/>
<path d="M325.78 82.7491C333.192 78.8988 333.804 65.3892 327.147 52.5745C320.491 39.7599 309.086 32.4928 301.674 36.3432C294.261 40.1935 293.649 53.7031 300.306 66.5178C306.962 79.3324 318.367 86.5994 325.78 82.7491Z" fill="white"/>
<path d="M378.187 53.3777C385.599 49.5273 386.212 36.0177 379.555 23.203C372.898 10.3884 361.493 3.12137 354.081 6.9717C346.669 10.822 346.056 24.3317 352.713 37.1463C359.37 49.961 370.775 57.228 378.187 53.3777Z" fill="white"/>
<path d="M317.027 36.9807C311.356 33.3855 306.157 33.1742 302.548 35.7431C305.065 35.8847 307.861 36.8369 310.778 38.6868C321.056 45.2017 328.981 60.3363 328.477 72.4945C328.253 77.9439 326.368 81.8638 323.438 83.9512C329.783 84.3085 334.367 79.4931 334.726 70.7885C335.23 58.6302 327.305 43.4956 317.027 36.9807Z" fill="#8DDE44"/>
<path d="M315.208 81.0076C304.93 74.4927 297.005 59.3581 297.509 47.1998C297.733 41.7504 299.618 37.8306 302.548 35.7432C296.204 35.3858 291.619 40.2012 291.26 48.9059C290.756 61.0641 298.681 76.1987 308.959 82.7136C314.63 86.3088 319.829 86.5202 323.438 83.9512C320.921 83.8096 318.125 82.8574 315.208 81.0076Z" fill="#FF6464"/>
<path opacity="0.37" d="M351.726 16.1309L325.813 30.2698C323.869 31.3309 321.411 30.6075 320.352 28.6639C319.291 26.7204 320.014 24.2626 321.958 23.2036L347.872 9.06478C349.815 8.00366 352.273 8.72705 353.332 10.6706C354.393 12.6142 353.67 15.072 351.726 16.1309Z" fill="white"/>
<path d="M323.714 82.7571C319.851 84.5918 314.012 83.9185 310.669 81.2493C307.327 78.5824 307.747 74.9327 311.611 73.0959C315.474 71.2613 321.313 71.9346 324.656 74.6037C327.998 77.2707 327.578 80.9203 323.714 82.7571Z" fill="#FFE7DE"/>
<path d="M327.274 75.6081L308.826 73.4768L308.4 77.1651L326.848 79.2964L327.274 75.6081Z" fill="#FFE7DE"/>
<path d="M324.063 79.7416C320.2 81.5762 314.36 80.903 311.018 78.2338C307.675 75.5669 308.096 71.9172 311.959 70.0804C315.822 68.2458 321.662 68.919 325.004 71.5882C328.347 74.2552 327.926 77.9048 324.063 79.7416Z" fill="#E8C9D7"/>
<path d="M322.483 78.0486C319.659 79.3908 315.387 78.8962 312.942 76.9461C310.497 74.996 310.806 72.3247 313.63 70.9825C316.454 69.6403 320.727 70.1327 323.172 72.085C325.616 74.0351 325.307 76.7064 322.483 78.0486Z" fill="#FFE7DE"/>
<path d="M310.701 92.0641C314.683 88.8323 316.275 84.1952 314.255 81.7069C312.236 79.2186 307.371 79.8213 303.388 83.0531C299.406 86.2849 297.815 90.922 299.834 93.4103C301.853 95.8986 306.718 95.2959 310.701 92.0641Z" fill="#FFE7DE"/>
<path d="M312.115 79.0797L297.695 90.7817L300.034 93.6647L314.454 81.9627L312.115 79.0797Z" fill="#FFE7DE"/>
<path d="M308.785 89.705C312.768 86.4732 314.359 81.8361 312.34 79.3478C310.32 76.8595 305.455 77.4622 301.473 80.6941C297.49 83.9259 295.899 88.563 297.918 91.0513C299.937 93.5396 304.803 92.9368 308.785 89.705Z" fill="#E8C9D7"/>
<path d="M310.475 84.1559C309.46 87.1149 306.122 89.8233 303.017 90.2089C299.912 90.5924 298.219 88.5072 299.234 85.5483C300.25 82.5893 303.588 79.8809 306.693 79.4953C309.798 79.1118 311.49 81.197 310.475 84.1559Z" fill="#FFE7DE"/>
<path d="M311.114 70.5292C306.941 69.5901 302.762 65.4567 301.777 61.295C300.792 57.1333 303.376 54.5208 307.549 55.4599C311.722 56.399 315.901 60.5324 316.886 64.6941C317.87 68.8558 315.286 71.4683 311.114 70.5292Z" fill="#FFE7DE"/>
<path d="M318.261 67.1573L305.059 54.097L302.448 56.7366L315.65 69.7968L318.261 67.1573Z" fill="#FFE7DE"/>
<path d="M313.249 68.3721C309.076 67.433 304.897 63.2996 303.912 59.1379C302.928 54.9762 305.512 52.3637 309.684 53.3028C313.857 54.2419 318.036 58.3753 319.021 62.537C320.006 66.6987 317.422 69.3112 313.249 68.3721Z" fill="#E8C9D7"/>
<path d="M313.049 66.0646C309.998 65.3783 306.941 62.354 306.22 59.31C305.501 56.2661 307.39 54.3552 310.44 55.0416C313.491 55.7279 316.548 58.7523 317.269 61.7962C317.99 64.8401 316.099 66.751 313.049 66.0646Z" fill="#FFE7DE"/>
<path d="M287.105 89.9716C283.431 92.1592 277.552 92.0329 273.974 89.6884C270.397 87.3439 270.477 83.6703 274.151 81.4826C277.825 79.295 283.703 79.4214 287.281 81.7659C290.859 84.1104 290.778 87.784 287.105 89.9716Z" fill="#FFE7DE"/>
<path d="M290 82.3762L271.433 81.9775L271.353 85.6895L289.92 86.0882L290 82.3762Z" fill="#FFE7DE"/>
<path d="M287.17 86.9364C283.496 89.124 277.618 88.9976 274.04 86.6531C270.462 84.3086 270.543 80.635 274.216 78.4474C277.89 76.2598 283.769 76.3861 287.346 78.7306C290.924 81.0751 290.844 84.7487 287.17 86.9364Z" fill="#E8C9D7"/>
<path d="M287.581 82.4518C287.632 80.1082 284.633 78.1425 280.883 78.0614C277.133 77.9802 274.052 79.8143 274.001 82.1579C273.95 84.5015 276.949 86.4672 280.699 86.5483C284.449 86.6295 287.531 84.7954 287.581 82.4518Z" fill="#FFE7DE"/>
<path d="M285.1 82.9424L275.641 82.8444C275.138 82.84 274.73 82.4239 274.737 81.9205C274.741 81.4172 275.158 81.0098 275.661 81.0163L285.119 81.1144C285.623 81.1187 286.03 81.5349 286.024 82.0382C286.019 82.5415 285.603 82.949 285.1 82.9424Z" fill="#8DDE44"/>
<path d="M308.656 82.0142L301.391 88.0737C301.006 88.3961 300.426 88.3438 300.104 87.9582C299.781 87.5725 299.834 86.9929 300.219 86.6705L307.481 80.6109C307.867 80.2885 308.447 80.3408 308.769 80.7264C309.092 81.1121 309.039 81.6917 308.654 82.0142H308.656Z" fill="#8DDE44"/>
<path d="M322.716 75.4884L313.312 74.5755C312.811 74.5276 312.443 74.0787 312.491 73.5776C312.539 73.0764 312.988 72.706 313.489 72.7539L322.893 73.6669C323.394 73.7148 323.762 74.1637 323.714 74.6648C323.666 75.166 323.218 75.5364 322.716 75.4884Z" fill="#8DDE44"/>
<path d="M313.848 64.692L308.76 56.7303C308.49 56.3076 308.614 55.7389 309.039 55.4687C309.462 55.1964 310.031 55.3228 310.301 55.7455L315.389 63.7071C315.659 64.1298 315.535 64.6985 315.11 64.9687C314.687 65.2411 314.118 65.1147 313.848 64.692Z" fill="#8DDE44"/>
</svg>
