<svg width="28" height="18" viewBox="0 0 28 18" fill="none" xmlns="http://www.w3.org/2000/svg">
<path d="M3.53094 17.5049L26.6589 17.2546C27.3995 17.2466 27.9934 16.6398 27.9854 15.8992L27.8828 6.41437C27.8748 5.6738 27.2678 5.07995 26.5273 5.08797L3.39927 5.33825C2.65871 5.34626 2.06488 5.95311 2.0729 6.69367L2.17554 16.1785C2.18355 16.9191 2.79037 17.5129 3.53094 17.5049Z" fill="#FF6464"/>
<path d="M1.49064 16.6299L24.6186 16.3796C25.3592 16.3716 25.953 15.7648 25.945 15.0242L25.8424 5.53937C25.8344 4.7988 25.2276 4.20496 24.487 4.21297L1.35898 4.46325C0.618409 4.47126 0.0244768 5.0781 0.0324908 5.81867L0.135131 15.3035C0.143145 16.0441 0.75007 16.6379 1.49064 16.6299Z" fill="#FFC872"/>
<path d="M1.47251 12.6477L24.6005 12.3974C25.3411 12.3894 25.9349 11.7826 25.9269 11.042L25.8243 1.5572C25.8162 0.816632 25.2094 0.22278 24.4689 0.230794L1.34085 0.481073C0.600283 0.489087 0.00645815 1.09593 0.0144722 1.8365L0.117112 11.3213C0.125126 12.0619 0.731944 12.6557 1.47251 12.6477Z" fill="#F4F4F4"/>
</svg>
