<svg width="89" height="80" viewBox="0 0 89 80" fill="none" xmlns="http://www.w3.org/2000/svg">
<g style="mix-blend-mode:multiply" opacity="0.4">
<path d="M85.2241 76.1925L63.1763 88.9221C63.1763 88.9221 61.928 89.7266 61.3661 89.9706C61.3337 90.0108 61.2999 90.0459 61.2623 90.0783L62.2602 90.6622C63.1127 91.1605 64.8658 90.936 66.1556 90.1613L95.631 72.4774C96.9208 71.704 97.279 70.662 96.4265 70.1637L86.8877 64.584L86.9629 72.4995C86.9772 73.971 86.1934 75.6332 85.2228 76.1938L85.2241 76.1925Z" fill="#B1B1BA"/>
</g>
<path d="M1.46544 14.9161L60.2437 48.8514C60.52 49.011 60.7757 49.2692 60.9924 49.5793C61.0417 49.5443 61.091 49.5106 61.1416 49.482L84.8452 35.7973C85.3681 35.495 85.8418 35.5754 86.1714 35.9401C86.1428 35.6533 85.9637 35.3821 85.6082 35.1758L26.865 1.25992C26.0099 0.766823 24.5021 0.829109 23.5146 1.39876L0.954183 14.4243C0.446814 14.7175 0.175613 15.0899 0.14447 15.4494C0.323542 14.8032 0.843879 14.5566 1.46674 14.9161H1.46544Z" fill="#EEFCE1"/>
<path d="M63.1761 50.1401V88.9207L85.2239 76.1911C86.1946 75.6305 86.977 73.9683 86.9641 72.4968L86.8888 64.5813L86.6332 37.4663C86.6332 37.4663 86.6332 37.4585 86.6332 37.4546C86.5696 37.5078 75.6916 46.7611 63.1722 50.0778C63.1748 50.0973 63.1774 50.1168 63.1774 50.1401H63.1761Z" fill="#FFC872"/>
<path d="M84.8451 35.7972L61.1416 49.4819C61.0909 49.5105 61.0416 49.5455 60.9923 49.5793C61.1273 49.7713 61.2428 49.9854 61.3401 50.2086C61.4971 50.1645 61.6697 50.1398 61.85 50.1398C62.5443 50.1398 63.1178 49.6999 63.171 50.0775C75.6904 46.7608 86.5684 37.5088 86.632 37.4543L86.6346 37.4517C86.6281 36.7731 86.4516 36.2514 86.17 35.9387C85.8404 35.5728 85.3668 35.4936 84.8438 35.7959L84.8451 35.7972Z" fill="#79ACBA"/>
<path d="M63.1761 88.9223V50.1417C63.1761 50.1184 63.1735 50.0989 63.1709 50.0794C63.1177 49.7005 62.5442 50.1417 61.85 50.1417C61.6696 50.1417 61.497 50.1664 61.34 50.2105C61.523 50.6309 61.6371 51.0864 61.6371 51.5159V89.0339C61.6371 89.444 61.5346 89.7593 61.3659 89.9695C61.9278 89.7256 63.1761 88.921 63.1761 88.921V88.9223Z" fill="#79ACBA"/>
<path d="M1.46534 56.1526L60.2436 90.0879C60.6471 90.3215 61.0079 90.2969 61.2635 90.0776C61.2998 90.0464 61.3349 90.0101 61.3673 89.9698C61.536 89.7596 61.6385 89.4443 61.6385 89.0343V51.5162C61.6385 51.0867 61.5243 50.6312 61.3413 50.2108C61.244 49.9863 61.1272 49.7735 60.9936 49.5815C60.7769 49.2713 60.5213 49.0131 60.2449 48.8535L1.46664 14.9182C0.84508 14.5587 0.324742 14.8053 0.144373 15.4515C0.101552 15.6046 0.072998 15.7746 0.072998 15.9718V53.4899C0.072998 54.5163 0.697151 55.7088 1.46664 56.1526H1.46534ZM5.17394 49.344C4.99877 49.2428 4.89107 49.0572 4.89107 48.8548C4.89107 48.4201 5.36208 48.1476 5.73839 48.3656L27.8446 61.129C28.0198 61.2302 28.1275 61.4157 28.1275 61.6182C28.1275 62.0529 27.6565 62.3254 27.2802 62.1074L5.17394 49.344ZM8.70346 29.5968L47.9084 52.2325C48.6948 52.6867 49.1788 53.5249 49.1788 54.4333V56.4601C49.1788 58.417 47.0611 59.6393 45.3664 58.6609L6.16141 36.0252C5.37506 35.5711 4.89107 34.7328 4.89107 33.8245V31.7989C4.89107 29.8421 7.00877 28.6197 8.70346 29.5981V29.5968ZM4.89107 23.6771C4.89107 23.2424 5.36208 22.9699 5.73839 23.1879L14.3481 28.1591C14.5233 28.2603 14.631 28.4459 14.631 28.6483C14.631 29.083 14.1599 29.3555 13.7836 29.1375L5.17394 24.1676C4.99877 24.0664 4.89107 23.8808 4.89107 23.6784V23.6771ZM6.62857 42.1266L32.603 57.1232C32.9611 57.3296 33.1818 57.7123 33.1818 58.1263C33.1818 59.0177 32.2163 59.5744 31.4442 59.1293L5.46981 44.1328C5.11166 43.9264 4.89107 43.5436 4.89107 43.1297C4.89107 42.2382 5.85649 41.6816 6.62857 42.1266Z" fill="#79ACBA"/>
<path d="M4.89093 33.8231C4.89093 34.7314 5.37492 35.5697 6.16127 36.0238L45.3662 58.6595C47.0609 59.6379 49.1786 58.4155 49.1786 56.4587V54.4318C49.1786 53.5235 48.6946 52.6853 47.9083 52.2311L8.70332 29.5954C7.00863 28.617 4.89093 29.8394 4.89093 31.7962V33.8218V33.8231Z" fill="#89DAAA"/>
<path d="M5.46966 44.1325L31.4441 59.1291C32.2162 59.5754 33.1816 59.0175 33.1816 58.126C33.1816 57.7121 32.961 57.3293 32.6028 57.1229L6.62843 42.1264C5.85634 41.68 4.89093 42.238 4.89093 43.1294C4.89093 43.5434 5.11152 43.9262 5.46966 44.1325Z" fill="#FFE7DE"/>
<path d="M28.1274 61.6169C28.1274 61.4145 28.0197 61.2289 27.8445 61.1277L5.73825 48.3643C5.36194 48.1463 4.89093 48.4188 4.89093 48.8535C4.89093 49.056 4.99862 49.2415 5.1738 49.3427L27.28 62.1061C27.6563 62.3241 28.1274 62.0516 28.1274 61.6169Z" fill="#FFE7DE"/>
<path d="M13.7822 29.1362C14.1585 29.3542 14.6295 29.0817 14.6295 28.647C14.6295 28.4446 14.5218 28.259 14.3466 28.1578L5.73697 23.1866C5.36066 22.9686 4.88962 23.2411 4.88962 23.6758C4.88962 23.8782 4.99731 24.0638 5.17249 24.165L13.7822 29.1349V29.1362Z" fill="#8DDE44"/>
</svg>
