<svg width="197" height="24" viewBox="0 0 197 24" fill="none" xmlns="http://www.w3.org/2000/svg">
<g clip-path="url(#clip0_318_20754)">
<path d="M11.9855 23.9094C18.8843 23.9094 23.971 19.0771 23.971 12.4643C23.971 5.85189 18.8845 1.01953 11.9855 1.01953C5.08688 1.01953 0 5.88341 0 12.4643C0 19.0452 5.08705 23.9094 11.9855 23.9094ZM11.9855 20.2851C7.50288 20.2851 4.1649 17.0103 4.1649 12.4641C4.1649 7.91781 7.50306 4.64354 11.9855 4.64354C16.4679 4.64354 19.8064 7.91781 19.8064 12.4641C19.8064 17.0103 16.4679 20.2851 11.9855 20.2851ZM35.1911 6.42395C32.7113 6.42395 30.6447 7.25035 29.3413 8.8081V6.61458H25.558V23.5916H29.532V15.0079C29.532 11.6061 31.4394 9.88936 34.2687 9.88936C36.8124 9.88936 38.3066 11.3517 38.3066 14.372V23.5917H42.2803V13.8635C42.2803 8.74508 39.2602 6.4243 35.1909 6.4243L35.1911 6.42395ZM61.0356 15.1986C61.0356 9.88919 57.4114 6.42395 52.452 6.42395C47.3968 6.42395 43.6774 10.0481 43.6774 15.1028C43.6774 20.158 47.365 23.8137 53.0556 23.8137C55.9804 23.8137 58.3651 22.86 59.8912 21.0478L57.7608 18.5999C56.5527 19.8401 55.0588 20.4442 53.1511 20.4442C50.1944 20.4442 48.1278 18.8543 47.651 16.3745H60.9719C61.0038 15.9931 61.0356 15.5161 61.0356 15.1986ZM52.452 9.60299C55.0588 9.60299 56.9346 11.2878 57.2525 13.736H47.6196C48.0009 11.2563 49.8767 9.60299 52.452 9.60299Z" fill="#F37436"/>
<path d="M109.663 15.1966C109.663 9.88721 106.039 6.42197 101.08 6.42197C96.0246 6.42197 92.3052 10.0462 92.3052 15.1008C92.3052 20.156 95.9926 23.8117 101.683 23.8117C104.608 23.8117 106.993 22.8581 108.519 21.0458L106.389 18.5979C105.181 19.8381 103.687 20.4422 101.779 20.4422C98.8221 20.4422 96.7557 18.8523 96.2788 16.3725H109.6C109.632 15.9911 109.663 15.5141 109.663 15.1966ZM101.08 9.60101C103.687 9.60101 105.562 11.2858 105.88 13.7341H96.2473C96.6286 11.2543 98.5044 9.60101 101.08 9.60101H101.08ZM112.376 23.5894H116.35V0H112.376V23.5894ZM120.461 23.5894H124.435V0H120.461V23.5894ZM138.179 6.42197C135.699 6.42197 133.633 7.24837 132.329 8.80612V6.6126H128.546V23.5896H132.52V15.0059C132.52 11.6041 134.428 9.88738 137.257 9.88738C139.801 9.88738 141.295 11.3497 141.295 14.37V23.5897H145.269V13.8615C145.269 8.74309 142.248 6.42231 138.179 6.42231V6.42197ZM165.34 15.1966C165.34 9.88721 161.716 6.42197 156.756 6.42197C151.701 6.42197 147.981 10.0462 147.981 15.1008C147.981 20.156 151.669 23.8117 157.36 23.8117C160.285 23.8117 162.669 22.8581 164.195 21.0458L162.065 18.5979C160.857 19.8381 159.363 20.4422 157.455 20.4422C154.498 20.4422 152.432 18.8523 151.955 16.3725H165.276C165.308 15.9911 165.34 15.5141 165.34 15.1966ZM156.756 9.60101C159.363 9.60101 161.239 11.2858 161.557 13.7341H151.924C152.305 11.2543 154.181 9.60101 156.756 9.60101ZM173.297 23.8117C178.066 23.8117 180.991 21.7455 180.991 18.5661C180.991 11.9218 170.5 14.9684 170.5 11.5405C170.5 10.4276 171.644 9.63304 174.061 9.63304C175.682 9.63304 177.303 9.9511 178.925 10.9046L180.451 7.88449C178.925 6.96251 176.349 6.42214 174.092 6.42214C169.514 6.42214 166.621 8.52026 166.621 11.7312C166.621 18.503 177.112 15.4459 177.112 18.6938C177.112 19.8702 176.063 20.5695 173.552 20.5695C171.422 20.5695 169.133 19.8702 167.639 18.8843L166.112 21.9047C167.639 22.9853 170.468 23.8119 173.297 23.8119V23.8117ZM188.568 23.8117C193.337 23.8117 196.261 21.7455 196.261 18.5661C196.261 11.9218 185.77 14.9684 185.77 11.5405C185.77 10.4276 186.915 9.63304 189.331 9.63304C190.952 9.63304 192.574 9.9511 194.195 10.9046L195.721 7.88449C194.195 6.96251 191.62 6.42214 189.363 6.42214C184.785 6.42214 181.892 8.52026 181.892 11.7312C181.892 18.503 192.383 15.4459 192.383 18.6938C192.383 19.8702 191.334 20.5695 188.822 20.5695C186.692 20.5695 184.404 19.8702 182.909 18.8843L181.383 21.9047C182.909 22.9853 185.739 23.8119 188.568 23.8119L188.568 23.8117Z" fill="#3DA647"/>
<path fill-rule="evenodd" clipRule="evenodd" d="M89.0205 6.60938L84.4105 19.1998L79.832 6.60938H76.4938L73.793 13.849C74.5977 15.934 74.7818 18.1797 74.464 20.4383L74.2497 21.9644L78.0832 11.8872L82.471 23.587H86.286L92.5493 6.60938H89.0204H89.0205Z" fill="#3DA647"/>
<path fill-rule="evenodd" clipRule="evenodd" d="M73.4305 20.2939C71.7152 18.6573 71.0652 16.6524 69.6774 15.1756C69.2751 14.719 68.893 13.8479 68.1575 14.3762C67.5851 14.7864 68.1448 15.4466 68.3881 15.9274C69.3592 17.7872 70.411 19.618 70.9847 21.653C71.1897 22.3597 71.5615 23.1759 70.9639 23.716C70.2379 24.3645 69.4485 23.7414 68.7685 23.3977C66.4071 22.1642 64.6885 20.3165 64.0865 17.7026C63.1059 13.4895 62.6942 9.09541 58.7511 5.79565C68.2379 6.44624 74.596 11.9974 73.4307 20.2938L73.4305 20.2939Z" fill="#3DA647"/>
</g>
<defs>
<clipPath id="clip0_318_20754">
<rect width="196.262" height="24" fill="white"/>
</clipPath>
</defs>
</svg>
