<svg width="603" height="385" viewBox="0 0 603 385" fill="none" xmlns="http://www.w3.org/2000/svg">
<g style="mix-blend-mode:multiply" opacity="0.4">
<path d="M322.921 336.519L323.314 336.306L326.125 334.787L330.571 332.382L340.995 326.748C345.209 324.469 350.615 325.696 353.01 329.474C355.406 333.253 353.916 338.209 349.7 340.485L339.501 345.998L336.89 347.408L336.5 347.618L335.559 348.128L331.623 350.256C327.409 352.535 322.003 351.307 319.608 347.529C317.212 343.751 318.702 338.795 322.918 336.519H322.921Z" fill="#8DDE44"/>
</g>
<path d="M348.663 337.575L329.129 348.672C324.472 351.317 318.502 349.672 315.857 345.015C313.212 340.358 314.857 334.385 319.514 331.74L339.048 320.643C343.705 317.998 349.675 319.644 352.32 324.3C354.965 328.957 353.32 334.93 348.663 337.575Z" fill="#FFC872"/>
<path d="M319.078 331.99L324.464 328.93C329.119 326.285 335.091 327.93 337.736 332.587C340.381 337.243 338.736 343.216 334.079 345.861L333.04 346.453L328.693 348.922C324.036 351.567 318.066 349.922 315.421 345.265C312.776 340.608 314.421 334.636 319.078 331.99Z" fill="#89DAAA"/>
<path d="M320.548 331.154L327.53 327.188C332.184 324.543 336.561 327.096 339.206 331.75C341.851 336.407 342.049 341.331 337.395 343.976L334.51 345.614L330.163 348.083C325.506 350.728 319.536 349.083 316.891 344.426C314.246 339.77 315.891 333.797 320.548 331.152V331.154Z" fill="#79ACBA"/>
<path opacity="0.61" d="M327.867 338.837L348.693 327.851C349.655 327.344 350.026 326.141 349.519 325.179C349.012 324.216 347.81 323.843 346.847 324.352L326.021 335.338C325.058 335.845 324.687 337.048 325.195 338.01C325.702 338.973 326.904 339.346 327.867 338.837Z" fill="#F4F4F4"/>
<g style="mix-blend-mode:multiply" opacity="0.31">
<path d="M531.217 40.9444L400.144 116.296C396.737 118.256 391.578 118.459 388.621 116.752L315.699 74.6492C312.742 72.9419 313.108 69.9703 316.513 68.0131L447.586 -7.33885C450.993 -9.29849 456.152 -9.50139 459.108 -7.79413L532.031 34.3084C534.987 36.0156 534.621 38.9872 531.217 40.9444Z" fill="#1C7A37"/>
</g>
<path d="M524.806 36.9139L393.453 112.751C390.039 114.723 384.875 114.936 381.918 113.228L308.996 71.1283C306.039 69.4211 306.41 66.4396 309.825 64.4676L441.177 -11.3694C444.592 -13.3414 449.756 -13.5542 452.712 -11.8469L525.635 30.2556C528.592 31.9628 528.22 34.9444 524.806 36.9164V36.9139Z" fill="#8DDE44"/>
<path d="M482.006 13L361.669 82.4755C360.768 82.9951 359.402 83.052 358.623 82.6017L358.412 82.4805C357.631 82.0301 357.73 81.2433 358.63 80.7212L478.967 11.2457C479.868 10.7261 481.234 10.6692 482.013 11.1195L482.223 11.2408C483.005 11.6911 482.906 12.4779 482.006 13Z" fill="white"/>
<path d="M362.015 63.7325L361.706 63.5593L359.489 62.3221L355.98 60.3674L347.758 55.7826C344.433 53.9294 340.169 55.0824 338.279 58.3435C336.391 61.6071 337.567 65.7911 340.89 67.6443L348.936 72.1302L350.995 73.2783L351.301 73.449L352.044 73.8622L355.149 75.5917C358.474 77.445 362.737 76.292 364.628 73.0284C366.516 69.7648 365.34 65.5808 362.017 63.7275L362.015 63.7325Z" fill="#82EE8F"/>
<path d="M340.137 64.9225L354.696 73.1916C358.165 75.1636 362.616 73.9363 364.588 70.4674C366.56 66.9984 365.333 62.5472 361.864 60.5752L347.305 52.3061C343.836 50.3341 339.385 51.5613 337.413 55.0303C335.441 58.4992 336.668 62.9505 340.137 64.9225Z" fill="#F0F5FF"/>
<path d="M362.185 60.7578L358.17 58.4765C354.701 56.5045 350.249 57.7317 348.277 61.2007C346.305 64.6696 347.533 69.1209 351.001 71.0929L351.776 71.5333L355.015 73.3742C358.484 75.3462 362.935 74.119 364.907 70.65C366.879 67.1811 365.652 62.7298 362.183 60.7578H362.185Z" fill="#134F3A"/>
<path d="M361.089 60.1371L355.886 57.1803C352.417 55.2108 349.153 57.111 347.184 60.58C345.212 64.0489 345.063 67.7208 348.535 69.6903L350.685 70.9101L353.924 72.751C357.393 74.723 361.844 73.4958 363.816 70.0268C365.788 66.5579 364.561 62.1066 361.092 60.1346L361.089 60.1371Z" fill="#89DAAA"/>
<path d="M355.636 65.8628L340.115 57.6753C339.397 57.2968 339.12 56.4011 339.499 55.6836C339.877 54.966 340.773 54.6889 341.491 55.0675L357.012 63.2549C357.729 63.6334 358.006 64.5291 357.628 65.2467C357.249 65.9642 356.354 66.2413 355.636 65.8628Z" fill="white"/>
<path d="M392.28 45.9349L391.971 45.7617L389.754 44.5246L386.246 42.5699L378.024 37.985C374.698 36.1318 370.432 37.2848 368.545 40.5459C366.657 43.8095 367.832 47.9935 371.155 49.8467L379.201 54.3326L381.26 55.4807L381.567 55.6514L382.309 56.0646L385.414 57.7941C388.74 59.6474 393.003 58.4944 394.893 55.2308C396.781 51.9672 395.606 47.7832 392.283 45.9299L392.28 45.9349Z" fill="#82EE8F"/>
<path d="M370.403 47.1254L384.961 55.3944C388.43 57.3664 392.882 56.1392 394.854 52.6702C396.826 49.2013 395.598 44.7501 392.129 42.778L377.571 34.509C374.102 32.537 369.65 33.7642 367.678 37.2332C365.706 40.7021 366.934 45.1533 370.403 47.1254Z" fill="#F0F5FF"/>
<path d="M392.451 42.9638L388.435 40.6825C384.966 38.7105 380.515 39.9378 378.543 43.4067C376.571 46.8757 377.798 51.3269 381.267 53.2989L382.042 53.7394L385.28 55.5802C388.749 57.5522 393.201 56.325 395.173 52.856C397.145 49.3871 395.917 44.9358 392.448 42.9638H392.451Z" fill="#134F3A"/>
<path d="M391.355 42.3402L386.151 39.3834C382.682 37.4139 379.419 39.3142 377.449 42.7831C375.477 46.2521 375.329 49.9239 378.8 51.8934L380.95 53.1133L384.189 54.9541C387.658 56.9261 392.109 55.6989 394.081 52.2299C396.053 48.761 394.826 44.3097 391.357 42.3377L391.355 42.3402Z" fill="#89DAAA"/>
<path d="M385.902 48.0659L370.38 39.8785C369.663 39.4999 369.386 38.6042 369.764 37.8867C370.143 37.1691 371.039 36.892 371.756 37.2706L387.277 45.458C387.995 45.8366 388.272 46.7323 387.894 47.4498C387.515 48.1674 386.619 48.4445 385.902 48.0659Z" fill="white"/>
<path d="M422.548 28.1545L422.239 27.9813L420.022 26.7442L416.514 24.7895L408.292 20.2046C404.966 18.3514 400.7 19.5044 398.813 22.768C396.925 26.0316 398.1 30.2156 401.423 32.0688L409.469 36.5547L411.528 37.7028L411.835 37.8735L412.577 38.2867L415.682 40.0163C419.008 41.8695 423.271 40.7165 425.161 37.4554C427.049 34.1918 425.874 30.0078 422.551 28.1545H422.548Z" fill="#82EE8F"/>
<path d="M400.668 29.3473L415.227 37.6164C418.696 39.5884 423.147 38.3611 425.119 34.8922C427.091 31.4232 425.864 26.9695 422.395 25L407.836 16.7309C404.367 14.7589 399.916 15.9861 397.944 19.4551C395.972 22.924 397.199 27.3753 400.668 29.3473Z" fill="#F0F5FF"/>
<path d="M422.719 25.1829L418.704 22.9017C415.235 20.9321 410.783 22.1569 408.811 25.6259C406.839 29.0948 408.066 33.546 411.535 35.5181L412.31 35.9585L415.549 37.7993C419.018 39.7713 423.469 38.5441 425.441 35.0751C427.413 31.6062 426.186 27.1525 422.717 25.1829H422.719Z" fill="#134F3A"/>
<path d="M421.623 24.5592L416.419 21.6024C412.951 19.6329 409.687 21.5332 407.717 25.0021C405.745 28.4711 405.597 32.1429 409.068 34.1124L411.219 35.3323L414.457 37.1731C417.926 39.1451 422.378 37.9179 424.35 34.4489C426.322 30.98 425.094 26.5287 421.625 24.5567L421.623 24.5592Z" fill="#89DAAA"/>
<path d="M416.17 30.2876L400.648 22.1002C399.931 21.7216 399.654 20.8259 400.032 20.1084C400.411 19.3908 401.307 19.1137 402.024 19.4923L417.545 27.6797C418.263 28.0582 418.54 28.9539 418.161 29.6715C417.783 30.389 416.887 30.6662 416.17 30.2876Z" fill="white"/>
<path d="M452.851 10.399L452.541 10.2258L450.324 8.98864L446.816 7.03397L438.594 2.44911C435.268 0.595869 431.003 1.74888 429.115 5.00999C427.227 8.27358 428.402 12.4576 431.725 14.3108L439.772 18.7967L441.83 19.9448L442.137 20.1155L442.879 20.5287L445.985 22.2582C449.31 24.1115 453.573 22.9585 455.464 19.6949C457.351 16.4313 456.176 12.2473 452.853 10.394L452.851 10.399Z" fill="#82EE8F"/>
<path d="M430.974 11.5917L445.532 19.8607C449.001 21.8328 453.452 20.6055 455.424 17.1366C457.396 13.6676 456.169 9.21636 452.7 7.24435L438.142 -1.02473C434.673 -2.99674 430.221 -1.76949 428.249 1.69947C426.277 5.16842 427.505 9.61966 430.974 11.5917Z" fill="#F0F5FF"/>
<path d="M453.022 7.42771L449.006 5.14641C445.537 3.1744 441.086 4.40167 439.114 7.87062C437.142 11.3396 438.369 15.7908 441.838 17.7628L442.613 18.2032L445.851 20.0441C449.32 22.0161 453.772 20.7889 455.744 17.3199C457.716 13.851 456.488 9.39972 453.02 7.42771H453.022Z" fill="#134F3A"/>
<path d="M451.926 6.80384L446.722 3.84706C443.253 1.87753 439.99 3.77779 438.02 7.24674C436.048 10.7157 435.9 14.3875 439.371 16.3571L441.521 17.5769L444.76 19.4178C448.229 21.3898 452.68 20.1625 454.652 16.6936C456.624 13.2246 455.397 8.77337 451.928 6.80136L451.926 6.80384Z" fill="#89DAAA"/>
<path d="M446.475 12.5322L430.953 4.34479C430.236 3.96622 429.959 3.07053 430.337 2.35299C430.716 1.63545 431.612 1.35833 432.329 1.7369L447.85 9.92431C448.568 10.3029 448.845 11.1986 448.466 11.9161C448.088 12.6337 447.192 12.9108 446.475 12.5322Z" fill="white"/>
<path d="M431.992 71.7142L431.683 71.541L429.466 70.3038L425.958 68.3492L417.736 63.7643C414.41 61.911 410.147 63.0641 408.257 66.3252C406.369 69.5888 407.544 73.7728 410.867 75.626L418.913 80.1119L420.972 81.26L421.279 81.4307L422.021 81.8439L425.126 83.5735C428.452 85.4267 432.715 84.2737 434.605 81.0126C436.493 77.749 435.318 73.5649 431.995 71.7117L431.992 71.7142Z" fill="#82EE8F"/>
<path d="M410.115 72.9049L424.674 81.174C428.143 83.146 432.594 81.9187 434.566 78.4498C436.538 74.9808 435.311 70.5271 431.842 68.5576L417.283 60.2885C413.814 58.3165 409.363 59.5437 407.391 63.0127C405.419 66.4816 406.646 70.9329 410.115 72.9049Z" fill="#F0F5FF"/>
<path d="M432.163 68.7407L428.148 66.4594C424.679 64.4874 420.227 65.7146 418.255 69.1836C416.283 72.6525 417.511 77.1038 420.98 79.0758L421.754 79.5162L424.993 81.3571C428.462 83.3291 432.913 82.1019 434.885 78.6329C436.857 75.164 435.63 70.7103 432.161 68.7407H432.163Z" fill="#134F3A"/>
<path d="M431.067 68.1193L425.864 65.1625C422.395 63.193 419.131 65.0932 417.162 68.5622C415.19 72.0311 415.041 75.703 418.513 77.6725L420.663 78.8923L423.902 80.7332C427.371 82.7052 431.822 81.478 433.794 78.009C435.766 74.5401 434.539 70.0888 431.07 68.1168L431.067 68.1193Z" fill="#89DAAA"/>
<path d="M425.614 73.8447L410.093 65.6573C409.375 65.2787 409.098 64.383 409.477 63.6655C409.855 62.9479 410.751 62.6708 411.469 63.0494L426.99 71.2368C427.707 71.6154 427.984 72.511 427.606 73.2286C427.227 73.9461 426.332 74.2233 425.614 73.8447Z" fill="white"/>
<path d="M401.735 89.5118L401.425 89.3386L399.208 88.1015L395.7 86.1468L387.478 81.5619C384.152 79.7087 379.889 80.8617 377.999 84.1228C376.111 87.3864 377.286 91.5704 380.609 93.4236L388.655 97.9095L390.714 99.0576L391.021 99.2283L391.763 99.6415L394.869 101.371C398.194 103.224 402.457 102.071 404.348 98.8077C406.235 95.5441 405.06 91.3601 401.737 89.5068L401.735 89.5118Z" fill="#82EE8F"/>
<path d="M379.857 90.7047L394.416 98.9738C397.885 100.946 402.336 99.7185 404.308 96.2496C406.28 92.7806 405.053 88.3294 401.584 86.3574L387.025 78.0883C383.556 76.1163 379.105 77.3436 377.133 80.8125C375.161 84.2815 376.388 88.7327 379.857 90.7047Z" fill="#F0F5FF"/>
<path d="M401.905 86.5407L397.889 84.2595C394.42 82.2874 389.969 83.5147 387.997 86.9836C386.025 90.4526 387.252 94.9038 390.721 96.8758L391.496 97.3163L394.735 99.1571C398.204 101.129 402.655 99.9019 404.627 96.4329C406.599 92.964 405.371 88.5127 401.903 86.5407H401.905Z" fill="#134F3A"/>
<path d="M400.809 85.9198L395.606 82.963C392.137 80.9935 388.873 82.8937 386.904 86.3627C384.932 89.8317 384.783 93.5035 388.255 95.473L390.405 96.6929L393.644 98.5337C397.113 100.506 401.564 99.2785 403.536 95.8095C405.508 92.3406 404.281 87.8893 400.812 85.9173L400.809 85.9198Z" fill="#89DAAA"/>
<path d="M395.356 91.645L379.835 83.4576C379.117 83.079 378.84 82.1833 379.219 81.4658C379.597 80.7482 380.493 80.4711 381.211 80.8497L396.732 89.0371C397.449 89.4157 397.726 90.3114 397.348 91.0289C396.969 91.7465 396.074 92.0236 395.356 91.645Z" fill="white"/>
<path d="M462.258 53.9564L461.949 53.7832L459.732 52.546L456.223 50.5913L448.001 46.0065C444.676 44.1532 440.41 45.3063 438.522 48.5674C436.634 51.831 437.81 56.015 441.133 57.8682L449.179 62.3541L451.238 63.5022L451.545 63.6729L452.287 64.0861L455.392 65.8156C458.717 67.6689 462.981 66.5158 464.871 63.2547C466.759 59.9911 465.584 55.8071 462.261 53.9539L462.258 53.9564Z" fill="#82EE8F"/>
<path d="M440.381 55.1495L454.939 63.4186C458.408 65.3906 462.86 64.1634 464.832 60.6944C466.804 57.2255 465.576 52.7717 462.108 50.8022L447.549 42.5331C444.08 40.5611 439.629 41.7884 437.657 45.2573C435.685 48.7263 436.912 53.1775 440.381 55.1495Z" fill="#F0F5FF"/>
<path d="M462.429 50.9845L458.413 48.7032C454.944 46.7336 450.493 47.9584 448.521 51.4274C446.549 54.8963 447.776 59.3476 451.245 61.3196L452.02 61.76L455.258 63.6009C458.727 65.5729 463.179 64.3456 465.151 60.8767C467.123 57.4077 465.895 52.954 462.426 50.9845H462.429Z" fill="#134F3A"/>
<path d="M461.333 50.3637L456.129 47.4069C452.66 45.4373 449.397 47.3376 447.427 50.8065C445.455 54.2755 445.307 57.9474 448.778 59.9169L450.928 61.1367L454.167 62.9776C457.636 64.9496 462.087 63.7223 464.059 60.2534C466.031 56.7844 464.804 52.3332 461.335 50.3612L461.333 50.3637Z" fill="#89DAAA"/>
<path d="M455.882 56.0893L440.361 47.9019C439.643 47.5233 439.366 46.6277 439.745 45.9101C440.123 45.1926 441.019 44.9155 441.737 45.294L457.258 53.4814C457.975 53.86 458.253 54.7557 457.874 55.4732C457.495 56.1908 456.6 56.4679 455.882 56.0893Z" fill="white"/>
<path d="M492.563 36.1788L492.254 36.0056L490.037 34.7684L486.528 32.8138L478.306 28.2289C474.981 26.3756 470.718 27.5287 468.827 30.7898C466.939 34.0534 468.115 38.2374 471.438 40.0906L479.484 44.5765L481.543 45.7246L481.85 45.8953L482.592 46.3085L485.697 48.0381C489.022 49.8913 493.286 48.7383 495.176 45.4772C497.064 42.2136 495.889 38.0295 492.566 36.1763L492.563 36.1788Z" fill="#82EE8F"/>
<path d="M470.686 37.3688L485.245 45.6378C488.713 47.6099 493.165 46.3826 495.137 42.9137C497.109 39.4447 495.882 34.991 492.413 33.0214L477.854 24.7524C474.385 22.7804 469.934 24.0076 467.962 27.4766C465.99 30.9455 467.217 35.3968 470.686 37.3688Z" fill="#F0F5FF"/>
<path d="M492.734 33.207L488.719 30.9257C485.25 28.9537 480.798 30.181 478.826 33.6499C476.854 37.1189 478.082 41.5701 481.551 43.5421L482.325 43.9825L485.564 45.8234C489.033 47.7954 493.484 46.5682 495.456 43.0992C497.428 39.6303 496.201 35.179 492.732 33.207H492.734Z" fill="#228821"/>
<path d="M491.638 32.5836L486.435 29.6268C482.966 27.6573 479.702 29.5576 477.732 33.0265C475.76 36.4955 475.612 40.1673 479.083 42.1369L481.234 43.3567L484.472 45.1976C487.941 47.1696 492.393 45.9423 494.365 42.4734C496.337 39.0044 495.109 34.5532 491.64 32.5812L491.638 32.5836Z" fill="#89DAAA"/>
<g style="mix-blend-mode:multiply" opacity="0.4">
<path d="M442.447 177.054C443.543 177.151 444.669 177.202 445.819 177.202C456.493 177.202 465.144 172.912 465.144 167.622C465.144 165.39 463.6 163.337 461.016 161.708C461.031 161.944 461.046 162.176 461.046 162.414C461.046 170.171 452.839 176.52 442.447 177.057V177.054Z" fill="#B1B1BA"/>
</g>
<path d="M460.905 158.128C460.94 150.136 461.046 125.388 461.046 124.874C461.046 121.212 459.215 117.866 456.192 115.296C455.138 114.37 451.929 113.935 451.646 109.709C451.646 109.709 432.792 104.958 433.112 108.813C433.379 112.059 427.532 113.554 425.854 115.298C422.833 117.869 421 121.214 421 124.876V161.149H421.074C421.025 161.567 421 161.988 421 162.416C421 170.524 429.964 177.098 441.022 177.098C441.502 177.098 441.974 177.081 442.445 177.056C452.837 176.522 461.044 170.173 461.044 162.414C461.044 162.176 461.029 161.943 461.014 161.708L460.903 158.131L460.905 158.128Z" fill="#79ACBA"/>
<path d="M435.361 117.468C436.051 117.592 436.761 117.696 437.491 117.77C439.851 117.275 441.925 116.607 443.699 115.763C442.717 115.872 441.697 115.929 440.651 115.929C432.718 115.929 426.287 112.653 426.287 108.613V106.336C425.315 107.388 424.768 108.563 424.768 109.805C424.768 110.107 424.803 110.404 424.865 110.696C425.535 113.841 429.714 116.446 435.358 117.466L435.361 117.468Z" fill="#05053A"/>
<path d="M455.014 108.618C455.014 112.126 450.167 115.056 443.699 115.766C441.925 116.61 439.852 117.275 437.491 117.772C437.494 117.772 437.496 117.772 437.499 117.772L440.651 117.933C442.507 117.933 444.288 117.77 445.943 117.471C451.587 116.451 455.764 113.846 456.434 110.701C456.496 110.409 456.531 110.112 456.531 109.81C456.531 109.664 456.523 109.521 456.508 109.375C456.504 109.328 456.494 109.281 456.486 109.234C456.474 109.137 456.459 109.043 456.439 108.947C456.427 108.89 456.412 108.835 456.397 108.778C456.375 108.694 456.355 108.608 456.33 108.524C456.313 108.464 456.291 108.405 456.268 108.348C456.241 108.269 456.212 108.19 456.179 108.11C456.155 108.051 456.127 107.992 456.098 107.932C456.063 107.856 456.026 107.779 455.986 107.702C455.954 107.643 455.922 107.583 455.887 107.524C455.845 107.45 455.801 107.375 455.754 107.304C455.717 107.244 455.677 107.185 455.638 107.128C455.588 107.056 455.536 106.985 455.484 106.913C455.442 106.856 455.398 106.799 455.351 106.742C455.294 106.67 455.234 106.601 455.175 106.532C455.128 106.475 455.078 106.42 455.029 106.366C455.024 106.359 455.016 106.354 455.009 106.346V108.62L455.014 108.618Z" fill="#05053A"/>
<path d="M457.674 135.147C457.674 139.049 452.512 142.335 445.488 143.325H436.61C429.593 142.328 424.442 139.047 424.442 135.147V156.377H424.504C424.464 156.805 424.442 157.238 424.442 157.676C424.442 165.997 431.882 172.744 441.056 172.744C450.231 172.744 457.671 165.999 457.671 157.676C457.671 157.045 457.627 156.424 457.545 155.815C457.545 155.815 457.671 135.778 457.671 135.147H457.674Z" fill="#FFC872"/>
<path d="M441.059 144.93C450.235 144.93 457.674 140.857 457.674 135.832C457.674 130.808 450.235 126.734 441.059 126.734C431.883 126.734 424.444 130.808 424.444 135.832C424.444 140.857 431.883 144.93 441.059 144.93Z" fill="#FF6464"/>
<path d="M453.69 103.144C453.69 103.144 454.574 101.925 453.92 102.531C454.259 101.902 453.376 103.028 453.69 102.363C451.411 104.869 446.433 106.611 440.653 106.611C432.721 106.611 426.292 103.335 426.292 99.2944V108.615C426.292 112.656 432.723 115.932 440.653 115.932C441.485 115.598 442.623 115.82 443.387 115.387L447.354 114.034L452.936 111.799L454.487 109.59V103.954L453.69 103.142V103.144Z" fill="#05053A"/>
<path d="M454.967 99.7272C454.766 100.4 454.479 101.09 454.143 101.783C454.004 101.979 453.858 102.174 453.688 102.362C450.57 110.193 441.757 115.486 440.651 115.931C441.697 115.931 442.717 115.872 443.699 115.765C450.167 115.053 455.014 112.123 455.014 108.617V106.343V99.2966C455.014 99.4426 454.984 99.5861 454.967 99.7296V99.7272Z" fill="#05053A"/>
<path d="M440.685 106.975C448.597 106.975 455.011 103.846 455.011 99.9871C455.011 96.1281 448.597 92.9998 440.685 92.9998C432.773 92.9998 426.359 96.1281 426.359 99.9871C426.359 103.846 432.773 106.975 440.685 106.975Z" fill="#05053A"/>
<path d="M440.651 104.334C445.573 104.334 449.563 102.388 449.563 99.987C449.563 97.586 445.573 95.6396 440.651 95.6396C435.729 95.6396 431.738 97.586 431.738 99.987C431.738 102.388 435.729 104.334 440.651 104.334Z" fill="#FFE7DE"/>
<g style="mix-blend-mode:multiply" opacity="0.31">
<path d="M584.438 44.1953L584.431 43.8167L584.349 39.6946L584.339 39.1552H584.307C584.07 37.3267 582.818 35.5526 580.549 34.1967C575.565 31.2177 567.583 31.376 562.721 34.5481C560.507 35.993 559.324 37.8141 559.161 39.6525H559.129L559.22 44.3141L559.228 44.6926H559.243C559.423 46.578 560.688 48.4164 563.023 49.8119C568.007 52.791 575.989 52.6326 580.851 49.4606C583.129 47.9735 584.32 46.0857 584.426 44.1953H584.441H584.438Z" fill="#1C7A37"/>
</g>
<path d="M580.779 47.3996C575.917 50.5741 567.935 50.73 562.952 47.751C557.968 44.7719 557.869 39.7838 562.731 36.6092C567.593 33.4347 575.575 33.2789 580.559 36.2579C585.542 39.2369 585.641 44.2251 580.779 47.3996Z" fill="#79ACBA"/>
<path d="M584.267 37.1138L559.054 37.6111L559.154 42.6502L584.367 42.1529L584.267 37.1138Z" fill="#79ACBA"/>
<path d="M580.697 43.2775C575.835 46.4521 567.853 46.6079 562.87 43.6289C557.887 40.6499 557.788 35.6617 562.65 32.4872C567.512 29.3127 575.494 29.1568 580.477 32.1358C585.46 35.1149 585.559 40.103 580.697 43.2775Z" fill="white"/>
<path d="M578.262 41.2909C574.707 43.6118 568.868 43.7281 565.223 41.5482C561.578 39.3684 561.507 35.7213 565.062 33.4004C568.618 31.0795 574.457 30.9632 578.102 33.1431C581.746 35.3229 581.818 38.97 578.262 41.2909Z" fill="#79ACBA"/>
<path d="M577.659 35.8718L565.614 40.328C564.973 40.5655 564.255 40.2339 564.018 39.5956C563.78 38.9547 564.112 38.2372 564.753 37.9997L576.797 33.5435C577.438 33.3059 578.156 33.6375 578.393 34.2783C578.631 34.9192 578.299 35.6367 577.661 35.8742L577.659 35.8718Z" fill="#ADC7FF"/>
<path d="M511.291 89.8117C506.429 92.9862 498.447 93.1421 493.464 90.1631C488.481 87.184 488.382 82.1959 493.244 79.0214C498.106 75.8468 506.088 75.691 511.071 78.67C516.054 81.6491 516.153 86.6372 511.291 89.8117Z" fill="#79ACBA"/>
<path d="M514.778 79.5242L489.565 80.0215L489.665 85.0606L514.878 84.5633L514.778 79.5242Z" fill="#79ACBA"/>
<path d="M511.209 85.6894C506.347 88.8639 498.365 89.0198 493.382 86.0408C488.399 83.0617 488.3 78.0736 493.162 74.899C498.024 71.7245 506.006 71.5686 510.989 74.5477C515.972 77.5267 516.071 82.5149 511.209 85.6894Z" fill="white"/>
<path d="M508.775 83.7001C505.219 86.021 499.38 86.1373 495.735 83.9574C492.091 81.7776 492.019 78.1305 495.574 75.8096C499.13 73.4887 504.969 73.3724 508.614 75.5522C512.259 77.7321 512.33 81.3792 508.775 83.7001Z" fill="#79ACBA"/>
<path d="M508.314 81.9489L495.725 79.4004C495.057 79.2643 494.619 78.6061 494.755 77.9381C494.891 77.27 495.549 76.8321 496.218 76.9682L508.807 79.5167C509.475 79.6528 509.913 80.3109 509.777 80.979C509.641 81.647 508.982 82.085 508.314 81.9489Z" fill="#ADC7FF"/>
<g style="mix-blend-mode:multiply" opacity="0.31">
<path d="M567.19 72.5829L566.799 72.3652L564.006 70.8089L559.587 68.347L549.229 62.572C545.043 60.2387 539.669 61.6887 537.291 65.7984C534.913 69.9082 536.393 75.1809 540.579 77.5142L550.714 83.163L553.307 84.6105L553.695 84.8257L554.631 85.3478L558.54 87.5276C562.726 89.8609 568.101 88.4085 570.478 84.3012C572.856 80.1914 571.377 74.9187 567.19 72.5854V72.5829Z" fill="#1C7A37"/>
</g>
<path d="M540.772 74.9013L559.109 85.3181C563.479 87.7998 569.085 86.2558 571.57 81.8862C574.051 77.5167 572.507 71.9099 568.138 69.4257L549.801 59.009C545.431 56.5273 539.824 58.0712 537.34 62.4408C534.859 66.8104 536.403 72.4171 540.772 74.9013Z" fill="#CFDEFF"/>
<path d="M568.544 69.6556L563.486 66.7829C559.117 64.3012 553.51 65.8451 551.028 70.2147C548.546 74.5843 550.09 80.1911 554.46 82.6753L555.435 83.2295L559.515 85.5479C563.885 88.0296 569.491 86.4857 571.975 82.1161C574.457 77.7465 572.913 72.1397 568.544 69.6556Z" fill="#79ACBA"/>
<path d="M567.163 68.8714L560.608 65.1476C556.239 62.6659 552.129 65.061 549.647 69.4306C547.166 73.8002 546.978 78.4247 551.347 80.9064L554.054 82.4454L558.134 84.7638C562.504 87.2455 568.11 85.7016 570.595 81.332C573.076 76.9624 571.532 71.3556 567.163 68.8714Z" fill="#79ACBA"/>
<path d="M560.294 76.0837L540.742 65.7708C539.839 65.2933 539.49 64.165 539.965 63.2619C540.443 62.3588 541.571 62.0074 542.474 62.485L562.026 72.7978C562.929 73.2753 563.278 74.4036 562.803 75.3067C562.326 76.2099 561.197 76.5612 560.294 76.0837Z" fill="white"/>
</svg>
