<svg width="48" height="48" viewBox="0 0 48 48" fill="none" xmlns="http://www.w3.org/2000/svg">
<rect width="48" height="48" rx="8" fill="white"/>
<path d="M23.9998 12C20.0398 12 16.7998 15.24 16.7998 19.2C16.7998 23.16 23.9998 32.4 23.9998 32.4C23.9998 32.4 31.1998 23.16 31.1998 19.2C31.1998 15.24 27.9598 12 23.9998 12ZM23.9998 21.6C22.6798 21.6 21.5998 20.52 21.5998 19.2C21.5998 17.88 22.6798 16.8 23.9998 16.8C25.3198 16.8 26.3998 17.88 26.3998 19.2C26.3998 20.52 25.3198 21.6 23.9998 21.6Z" fill="#5BC43A"/>
<path d="M31.5599 25.32C31.1999 26.04 30.8399 26.76 30.3599 27.48C32.3999 28.2 33.5999 29.16 33.5999 30C33.5999 31.44 29.7599 33.6 23.9999 33.6C18.2399 33.6 14.3999 31.44 14.3999 30C14.3999 29.16 15.5999 28.2 17.6399 27.36C17.1599 26.64 16.7999 25.92 16.4399 25.2C13.6799 26.4 11.9999 28.08 11.9999 30C11.9999 33.36 17.0399 36 23.7599 36C29.7599 36 35.9999 33.96 35.9999 30C35.9999 28.08 34.3199 26.4 31.5599 25.32Z" fill="#5BC43A"/>
</svg>
