<svg width="18" height="16" viewBox="0 0 18 16" fill="none" xmlns="http://www.w3.org/2000/svg">
<path fillRule="evenodd" clipRule="evenodd" d="M9.00001 2.41059L3.35926 4.66689L5.2026 5.40422L5.20659 5.40582L9.00001 6.92319L12.7934 5.40582L12.7974 5.40422L14.6408 4.66689L9.00001 2.41059ZM1.45588 6.0596L2.14076 6.33355L1.45588 6.60751C0.198662 7.11039 0.198669 8.89005 1.45588 9.39294L2.14077 9.66689L1.45588 9.94084C0.198662 10.4437 0.198668 12.2234 1.45588 12.7263L8.44293 15.5211C8.80055 15.6641 9.19948 15.6641 9.5571 15.5211L16.5441 12.7263C17.8014 12.2234 17.8014 10.4437 16.5441 9.94084L15.8593 9.66689L16.5441 9.39294C17.8014 8.89005 17.8014 7.11039 16.5441 6.60751L15.8593 6.33355L16.5441 6.0596C17.8014 5.55671 17.8014 3.77706 16.5441 3.27417L9.5571 0.479355C9.19948 0.336308 8.80054 0.336309 8.44293 0.479355L1.45588 3.27417C0.198662 3.77706 0.198669 5.55672 1.45588 6.0596ZM12.7942 8.73885C12.795 8.73852 12.7958 8.73819 12.7967 8.73785L14.6408 8.00022L13.1667 7.41059L9.5571 8.85442C9.19948 8.99747 8.80055 8.99747 8.44293 8.85442L4.83335 7.41059L3.35926 8.00022L5.20332 8.73784C5.20417 8.73818 5.20502 8.73852 5.20587 8.73886L9.00001 10.2565L12.7942 8.73885ZM4.83335 10.7439L8.44293 12.1878C8.80055 12.3308 9.19948 12.3308 9.5571 12.1878L13.1667 10.7439L14.6408 11.3336L9.00001 13.5899L3.35926 11.3336L4.83335 10.7439Z" fill="#101928"/>
</svg>
