<svg width="18" height="18" viewBox="0 0 18 18" fill="none" xmlns="http://www.w3.org/2000/svg">
<path fill-rule="evenodd" clipRule="evenodd" d="M8.16406 0.666504C4.02193 0.666504 0.664062 4.02437 0.664062 8.1665C0.664062 12.3086 4.02193 15.6665 8.16406 15.6665C9.93491 15.6665 11.5624 15.0528 12.8455 14.0264L15.9081 17.0891C16.2336 17.4145 16.7612 17.4145 17.0867 17.0891C17.4121 16.7637 17.4121 16.236 17.0867 15.9106L14.024 12.8479C15.0503 11.5649 15.6641 9.93735 15.6641 8.1665C15.6641 4.02437 12.3062 0.666504 8.16406 0.666504ZM2.33073 8.1665C2.33073 4.94484 4.9424 2.33317 8.16406 2.33317C11.3857 2.33317 13.9974 4.94484 13.9974 8.1665C13.9974 11.3882 11.3857 13.9998 8.16406 13.9998C4.9424 13.9998 2.33073 11.3882 2.33073 8.1665Z" fill="#667185"/>
</svg>
