<svg width="397" height="361" viewBox="0 0 397 361" fill="none" xmlns="http://www.w3.org/2000/svg">
<g clip-path="url(#clip0_318_21348)">
<rect width="397" height="361" rx="40" fill="#C2F2C6" fill-opacity="0.61"/>
<rect x="70" y="170.957" width="368" height="232.09" rx="16" transform="rotate(-4.66928 70 170.957)" fill="white"/>
<rect x="65.6877" y="167.296" width="376" height="240.09" rx="20" transform="rotate(-4.66928 65.6877 167.296)" stroke="#979DB5" stroke-opacity="0.24" stroke-width="8"/>
<g style="mix-blend-mode:multiply" opacity="0.4">
<path d="M139.697 219.44L139.29 219.255L136.38 217.936L131.776 215.847L120.985 210.954C116.622 208.974 111.315 210.576 109.189 214.512C107.063 218.448 108.895 223.288 113.26 225.265L123.818 230.053L126.521 231.277L126.925 231.46L127.899 231.903L131.974 233.751C136.337 235.73 141.644 234.129 143.77 230.193C145.896 226.257 144.064 221.417 139.699 219.44L139.697 219.44Z" fill="#8DDE44"/>
</g>
<path d="M106.788 224.621L127.049 234.328C131.879 236.642 137.72 234.584 140.034 229.754C142.347 224.925 140.289 219.081 135.459 216.767L115.198 207.06C110.369 204.746 104.528 206.804 102.214 211.634C99.9 216.463 101.958 222.307 106.788 224.621Z" fill="#FF6464"/>
<path d="M135.911 216.984L130.324 214.307C125.494 211.993 119.653 214.051 117.339 218.88C115.026 223.71 117.084 229.554 121.913 231.868L122.991 232.385L127.5 234.545C132.33 236.859 138.171 234.801 140.485 229.971C142.799 225.141 140.741 219.298 135.911 216.984Z" fill="#89DAAA"/>
<path d="M134.387 216.255L127.145 212.786C122.315 210.472 118.127 213.324 115.815 218.152C113.502 222.981 113.648 227.907 118.475 230.221L121.467 231.654L125.976 233.814C130.806 236.127 136.647 234.07 138.961 229.24C141.275 224.41 139.216 218.566 134.387 216.253L134.387 216.255Z" fill="#79ACBA"/>
<path opacity="0.61" d="M127.624 224.429L106.082 214.923C105.087 214.484 104.633 213.31 105.072 212.315C105.51 211.319 106.684 210.863 107.68 211.304L129.221 220.81C130.217 221.249 130.671 222.423 130.232 223.418C129.793 224.414 128.62 224.871 127.624 224.429Z" fill="#F4F4F4"/>
<path d="M156.083 211.22L156.077 211.131L158.784 199.303L162.719 199.028L167.06 210.363L167.066 210.452L164.493 210.632L160.984 201.104L160.625 201.129L158.447 211.055L156.083 211.22ZM158.797 208.099L159.189 206.177L163.109 205.902L163.765 207.751L158.797 208.099ZM168.293 210.367L167.666 201.389L169.91 201.232L170.004 202.578L170.363 202.553C170.503 202.112 170.747 201.724 171.094 201.389C171.442 201.054 171.964 200.862 172.663 200.814C173.281 200.77 173.805 200.874 174.233 201.125C174.671 201.365 175.017 201.727 175.271 202.21L175.631 202.185C175.779 201.723 176.032 201.33 176.39 201.004C176.748 200.678 177.261 200.492 177.93 200.445C178.897 200.378 179.643 200.641 180.165 201.236C180.688 201.831 180.987 202.667 181.063 203.745L181.461 209.446L179.037 209.615L178.667 204.318C178.624 203.71 178.491 203.243 178.268 202.918C178.045 202.592 177.709 202.446 177.26 202.477C176.711 202.515 176.308 202.774 176.051 203.253C175.804 203.732 175.704 204.305 175.75 204.973L176.089 209.821L173.665 209.991L173.295 204.694C173.252 204.085 173.119 203.619 172.896 203.293C172.673 202.968 172.337 202.821 171.888 202.853C171.349 202.89 170.951 203.149 170.694 203.628C170.437 204.107 170.332 204.681 170.378 205.349L170.718 210.197L168.293 210.367ZM184.282 209.249C183.981 208.949 183.756 208.604 183.608 208.213C183.47 207.812 183.378 207.282 183.332 206.623L182.682 197.331L185.106 197.162L185.738 206.2C185.791 206.958 185.918 207.545 186.117 207.962C186.316 208.37 186.565 208.708 186.865 208.978L186.871 209.068L184.282 209.249ZM192.095 208.928C190.609 209.032 189.467 208.686 188.669 207.889C187.881 207.082 187.437 205.961 187.336 204.524C187.236 203.088 187.52 201.92 188.189 201.021C188.867 200.112 189.949 199.605 191.436 199.501C192.922 199.397 194.059 199.748 194.848 200.555C195.645 201.352 196.094 202.468 196.195 203.905C196.295 205.341 196.006 206.514 195.328 207.424C194.659 208.322 193.581 208.824 192.095 208.928ZM191.982 207.312C192.64 207.266 193.106 206.973 193.379 206.432C193.652 205.892 193.752 205.103 193.68 204.065C193.608 203.038 193.399 202.281 193.055 201.793C192.709 201.296 192.207 201.071 191.549 201.117C190.89 201.163 190.425 201.456 190.152 201.996C189.878 202.527 189.777 203.306 189.849 204.333C189.922 205.371 190.131 206.138 190.476 206.635C190.822 207.132 191.324 207.358 191.982 207.312ZM201.126 208.251C200.308 208.308 199.621 208.156 199.064 207.794C198.507 207.422 198.074 206.891 197.765 206.201C197.456 205.511 197.27 204.717 197.208 203.819C197.143 202.891 197.215 202.069 197.426 201.352C197.647 200.635 198.008 200.064 198.509 199.638C199.021 199.211 199.675 198.97 200.473 198.914C201.062 198.873 201.548 198.944 201.932 199.128C202.326 199.311 202.645 199.574 202.889 199.918L203.248 199.893L202.97 195.913L205.394 195.743L206.231 207.714L203.987 207.871L203.905 206.704L203.546 206.729C203.363 207.122 203.081 207.463 202.7 207.75C202.319 208.037 201.795 208.204 201.126 208.251ZM201.695 206.497C202.304 206.455 202.769 206.156 203.091 205.603C203.423 205.038 203.557 204.302 203.493 203.394C203.429 202.476 203.194 201.766 202.788 201.263C202.392 200.76 201.889 200.529 201.281 200.572C200.732 200.61 200.316 200.89 200.031 201.411C199.756 201.921 199.653 202.67 199.722 203.658C199.791 204.646 199.998 205.378 200.342 205.855C200.696 206.322 201.147 206.536 201.695 206.497ZM208.449 207.559L207.821 198.581L210.246 198.411L210.873 207.389L208.449 207.559ZM208.961 197.463C208.532 197.493 208.2 197.406 207.966 197.202C207.73 196.988 207.6 196.701 207.575 196.342C207.55 195.983 207.639 195.686 207.843 195.451C208.047 195.207 208.363 195.069 208.792 195.039C209.221 195.009 209.553 195.101 209.789 195.315C210.023 195.52 210.153 195.801 210.178 196.16C210.203 196.519 210.114 196.821 209.911 197.066C209.707 197.301 209.39 197.433 208.961 197.463ZM213.305 210.226L212.468 198.256L214.713 198.099L214.794 199.266L215.154 199.241C215.337 198.847 215.619 198.507 215.999 198.219C216.38 197.932 216.905 197.765 217.573 197.718C218.391 197.661 219.079 197.818 219.636 198.19C220.193 198.553 220.626 199.079 220.935 199.769C221.243 200.449 221.429 201.243 221.492 202.151C221.556 203.068 221.478 203.891 221.259 204.618C221.048 205.334 220.687 205.906 220.176 206.333C219.674 206.759 219.024 207 218.226 207.055C217.648 207.096 217.161 207.025 216.768 206.842C216.374 206.659 216.055 206.395 215.81 206.052L215.451 206.077L215.729 210.057L213.305 210.226ZM217.419 205.398C217.967 205.359 218.379 205.085 218.654 204.575C218.939 204.053 219.046 203.299 218.977 202.311C218.908 201.324 218.697 200.597 218.343 200.13C217.999 199.653 217.553 199.434 217.004 199.472C216.396 199.515 215.925 199.813 215.593 200.368C215.271 200.922 215.142 201.657 215.206 202.575C215.27 203.483 215.5 204.194 215.897 204.707C216.303 205.21 216.81 205.44 217.419 205.398ZM223.424 206.512L222.797 197.533L225.221 197.364L225.849 206.342L223.424 206.512ZM223.936 196.416C223.508 196.446 223.176 196.359 222.941 196.155C222.705 195.941 222.575 195.654 222.55 195.295C222.525 194.936 222.614 194.639 222.818 194.404C223.022 194.159 223.338 194.022 223.767 193.992C224.196 193.962 224.528 194.054 224.764 194.268C224.998 194.472 225.128 194.754 225.154 195.113C225.179 195.472 225.089 195.774 224.886 196.019C224.682 196.254 224.365 196.386 223.936 196.416ZM228.071 206.187L227.443 197.208L229.688 197.052L229.782 198.398L230.141 198.373C230.289 197.912 230.538 197.518 230.886 197.193C231.244 196.868 231.787 196.679 232.515 196.628C233.513 196.559 234.283 196.82 234.826 197.414C235.369 198.008 235.678 198.843 235.753 199.92L236.152 205.622L233.727 205.791L233.357 200.494C233.314 199.875 233.171 199.409 232.928 199.095C232.685 198.772 232.314 198.627 231.816 198.662C231.237 198.703 230.804 198.963 230.517 199.445C230.229 199.916 230.109 200.491 230.156 201.169L230.495 206.017L228.071 206.187ZM242.013 205.437C240.597 205.536 239.485 205.188 238.677 204.392C237.88 203.596 237.43 202.47 237.328 201.013C237.26 200.036 237.366 199.186 237.646 198.465C237.937 197.743 238.388 197.17 239 196.746C239.622 196.322 240.396 196.077 241.324 196.012C242.661 195.919 243.712 196.251 244.476 197.01C245.251 197.768 245.693 198.93 245.803 200.496L245.838 201.005L239.733 201.431C239.836 202.186 240.073 202.771 240.442 203.186C240.822 203.591 241.305 203.773 241.894 203.731C242.363 203.699 242.727 203.533 242.987 203.234C243.257 202.934 243.424 202.597 243.488 202.222L245.792 202.06C245.741 202.615 245.577 203.138 245.3 203.629C245.024 204.119 244.616 204.528 244.078 204.857C243.539 205.185 242.851 205.379 242.013 205.437ZM239.627 199.905L243.367 199.644C243.28 198.968 243.074 198.456 242.749 198.108C242.423 197.75 241.981 197.59 241.422 197.629C240.874 197.668 240.442 197.878 240.128 198.261C239.823 198.633 239.656 199.181 239.627 199.905ZM250.343 204.629L250.336 204.539L252.74 199.77L250.006 195.721L249.999 195.631L252.648 195.446L254.273 198.039L254.632 198.014L255.82 195.224L258.259 195.054L258.265 195.143L256.267 199.463L259.255 203.916L259.261 204.006L256.568 204.194L254.642 201.171L254.283 201.196L252.857 204.453L250.343 204.629ZM260.247 203.937L260.109 201.961C260.893 201.275 261.577 200.661 262.161 200.119C262.744 199.567 263.24 199.066 263.65 198.616C264.265 197.952 264.719 197.359 265.014 196.837C265.318 196.314 265.451 195.779 265.413 195.23C265.378 194.731 265.205 194.337 264.894 194.048C264.592 193.749 264.172 193.618 263.633 193.655C263.025 193.698 262.58 193.929 262.299 194.35C262.017 194.761 261.898 195.29 261.944 195.939L259.699 196.096C259.643 195.288 259.748 194.569 260.014 193.938C260.281 193.308 260.707 192.807 261.293 192.436C261.887 192.053 262.639 191.83 263.547 191.767C264.833 191.677 265.849 191.937 266.593 192.546C267.347 193.145 267.761 193.978 267.836 195.046C267.889 195.814 267.739 196.536 267.386 197.212C267.031 197.879 266.485 198.593 265.746 199.357C265.429 199.69 265.072 200.036 264.676 200.394C264.289 200.742 263.901 201.065 263.511 201.363L263.536 201.722L268.668 201.363L268.807 203.338L260.247 203.937ZM274.787 203.13C273.849 203.196 273.038 203.067 272.354 202.744C271.68 202.42 271.151 201.956 270.768 201.351C270.384 200.737 270.165 200.035 270.11 199.247C270.066 198.619 270.119 198.024 270.27 197.462C270.421 196.89 270.628 196.339 270.892 195.809C271.155 195.28 271.436 194.774 271.733 194.292C271.751 194.271 271.824 194.155 271.949 193.946C272.085 193.736 272.247 193.474 272.436 193.16C272.634 192.846 272.837 192.521 273.044 192.185C273.261 191.849 273.465 191.544 273.657 191.27L276.485 191.073L276.491 191.162C276.318 191.405 276.016 191.822 275.586 192.414C275.156 192.995 274.672 193.68 274.136 194.47C273.809 194.954 273.555 195.337 273.375 195.621C273.204 195.903 273.105 196.071 273.079 196.122L273.438 196.097C273.598 195.946 273.812 195.786 274.081 195.616C274.35 195.447 274.714 195.347 275.173 195.314C275.811 195.27 276.4 195.379 276.94 195.642C277.479 195.895 277.917 196.285 278.255 196.813C278.602 197.34 278.802 197.978 278.855 198.726C278.908 199.494 278.788 200.204 278.492 200.856C278.196 201.499 277.737 202.022 277.113 202.426C276.5 202.83 275.725 203.065 274.787 203.13ZM274.691 201.333C275.32 201.289 275.8 201.06 276.132 200.646C276.473 200.221 276.62 199.664 276.571 198.976C276.522 198.268 276.299 197.737 275.904 197.383C275.507 197.02 275 196.86 274.382 196.904C273.723 196.95 273.219 197.195 272.869 197.641C272.529 198.076 272.381 198.612 272.426 199.251C272.453 199.64 272.553 199.999 272.726 200.327C272.91 200.655 273.163 200.913 273.487 201.101C273.821 201.288 274.222 201.365 274.691 201.333ZM288.4 202.148C287.632 202.202 286.977 202.143 286.433 201.97C285.889 201.788 285.441 201.538 285.088 201.222C284.735 200.906 284.465 200.564 284.279 200.196C284.092 199.818 283.977 199.46 283.933 199.123L286.298 198.957C286.343 199.175 286.443 199.388 286.598 199.598C286.763 199.807 286.99 199.976 287.28 200.107C287.58 200.236 287.934 200.286 288.343 200.258C289.012 200.211 289.486 199.962 289.765 199.512C290.054 199.061 290.175 198.501 290.129 197.832C290.08 197.144 289.868 196.613 289.491 196.238C289.114 195.863 288.616 195.698 287.997 195.741C287.648 195.765 287.359 195.851 287.128 195.997C286.898 196.144 286.714 196.312 286.577 196.502C286.449 196.681 286.356 196.848 286.296 197.003L283.992 197.164L284.235 190.531L291.178 190.045L291.31 191.931L286.267 192.283L286.132 195.089L286.492 195.064C286.671 194.761 286.925 194.518 287.253 194.334C287.59 194.14 288.033 194.024 288.581 193.986C289.34 193.933 290.005 194.052 290.576 194.343C291.147 194.623 291.603 195.048 291.943 195.615C292.294 196.182 292.496 196.855 292.551 197.633C292.609 198.471 292.481 199.217 292.166 199.87C291.85 200.524 291.371 201.053 290.728 201.459C290.094 201.855 289.318 202.084 288.4 202.148ZM298.648 201.462C297.112 201.569 295.927 201.116 295.094 200.101C294.261 199.087 293.779 197.632 293.646 195.737C293.514 193.841 293.789 192.334 294.473 191.213C295.156 190.093 296.266 189.479 297.802 189.371C299.349 189.263 300.533 189.717 301.356 190.732C302.189 191.746 302.671 193.201 302.804 195.096C302.936 196.992 302.661 198.5 301.977 199.62C301.304 200.74 300.194 201.354 298.648 201.462ZM298.51 199.487C299.218 199.437 299.713 199.062 299.995 198.36C300.286 197.658 300.385 196.629 300.29 195.272C300.195 193.916 299.954 192.91 299.568 192.255C299.191 191.6 298.649 191.297 297.94 191.347C297.232 191.396 296.732 191.772 296.44 192.474C296.159 193.175 296.065 194.204 296.16 195.561C296.255 196.918 296.491 197.924 296.867 198.579C297.254 199.234 297.801 199.536 298.51 199.487ZM308.818 200.751C307.282 200.858 306.097 200.405 305.265 199.39C304.432 198.376 303.949 196.921 303.817 195.026C303.684 193.13 303.96 191.622 304.643 190.502C305.327 189.382 306.437 188.768 307.973 188.66C309.519 188.552 310.704 189.006 311.526 190.021C312.359 191.035 312.842 192.49 312.974 194.385C313.107 196.281 312.831 197.789 312.148 198.909C311.474 200.029 310.364 200.643 308.818 200.751ZM308.68 198.776C309.388 198.726 309.883 198.351 310.165 197.649C310.457 196.947 310.555 195.918 310.46 194.561C310.366 193.204 310.125 192.199 309.738 191.544C309.362 190.889 308.819 190.586 308.111 190.635C307.403 190.685 306.903 191.061 306.611 191.763C306.329 192.464 306.236 193.493 306.331 194.85C306.425 196.207 306.661 197.213 307.038 197.868C307.424 198.522 307.972 198.825 308.68 198.776ZM314.994 200.108L314.366 191.13L316.611 190.973L316.705 192.32L317.064 192.295C317.203 191.854 317.447 191.466 317.794 191.131C318.142 190.796 318.665 190.604 319.363 190.555C319.982 190.512 320.505 190.616 320.934 190.866C321.371 191.107 321.717 191.468 321.972 191.952L322.331 191.927C322.479 191.465 322.732 191.072 323.09 190.746C323.449 190.42 323.962 190.234 324.63 190.187C325.598 190.119 326.343 190.383 326.866 190.978C327.389 191.573 327.688 192.409 327.763 193.486L328.162 199.188L325.738 199.357L325.367 194.06C325.325 193.451 325.192 192.985 324.968 192.659C324.745 192.334 324.409 192.187 323.96 192.219C323.412 192.257 323.009 192.516 322.751 192.995C322.504 193.473 322.404 194.047 322.451 194.715L322.79 199.563L320.366 199.733L319.995 194.436C319.953 193.827 319.82 193.36 319.597 193.035C319.373 192.71 319.037 192.563 318.588 192.594C318.05 192.632 317.652 192.89 317.395 193.369C317.137 193.849 317.032 194.422 317.079 195.091L317.418 199.939L314.994 200.108ZM334.275 201.993C333.437 202.052 332.752 201.994 332.218 201.821C331.695 201.657 331.284 201.43 330.983 201.141C330.692 200.85 330.48 200.549 330.348 200.238C330.216 199.926 330.132 199.651 330.095 199.413L332.459 199.248C332.529 199.534 332.688 199.788 332.934 200.012C333.18 200.235 333.577 200.328 334.126 200.289C334.744 200.246 335.195 200.029 335.479 199.638C335.763 199.257 335.882 198.733 335.835 198.065L335.761 197.002L335.402 197.027C335.292 197.466 335.056 197.823 334.695 198.099C334.332 198.365 333.842 198.52 333.223 198.563C332.056 198.645 331.135 198.303 330.46 197.538C329.794 196.763 329.414 195.697 329.319 194.34C329.259 193.472 329.34 192.695 329.562 192.007C329.784 191.31 330.151 190.753 330.663 190.336C331.175 189.92 331.836 189.683 332.644 189.627C333.262 189.583 333.764 189.669 334.15 189.882C334.545 190.085 334.847 190.38 335.054 190.766L335.413 190.741L335.338 189.664L337.582 189.507L338.163 197.812C338.249 199.049 337.977 200.03 337.346 200.756C336.715 201.481 335.692 201.894 334.275 201.993ZM333.762 196.811C334.351 196.77 334.792 196.488 335.087 195.967C335.391 195.444 335.514 194.759 335.454 193.911C335.395 193.063 335.179 192.407 334.805 191.941C334.441 191.466 333.965 191.248 333.376 191.29C332.828 191.328 332.405 191.588 332.108 192.07C331.821 192.551 331.709 193.251 331.773 194.168C331.839 195.106 332.047 195.793 332.399 196.23C332.759 196.656 333.214 196.849 333.762 196.811ZM340.278 200.596L340.271 200.506C340.501 200.059 340.683 199.65 340.817 199.28C340.962 198.909 341.074 198.575 341.153 198.279C340.798 198.224 340.528 198.082 340.342 197.855C340.155 197.617 340.049 197.324 340.024 196.975C339.995 196.556 340.096 196.208 340.327 195.931C340.559 195.654 340.904 195.5 341.363 195.468C341.821 195.436 342.185 195.55 342.454 195.812C342.723 196.074 342.877 196.484 342.916 197.043C342.95 197.532 342.899 198.082 342.761 198.693C342.623 199.304 342.424 199.894 342.163 200.464L340.278 200.596ZM353.397 197.633C352.16 197.72 351.11 197.548 350.248 197.117C349.395 196.675 348.732 196.015 348.26 195.136C347.797 194.256 347.523 193.202 347.437 191.975C347.351 190.738 347.476 189.657 347.812 188.731C348.157 187.795 348.722 187.054 349.506 186.508C350.299 185.951 351.314 185.63 352.551 185.543C353.798 185.456 354.848 185.633 355.701 186.075C356.553 186.506 357.21 187.162 357.673 188.042C358.145 188.911 358.424 189.964 358.51 191.201C358.596 192.428 358.466 193.51 358.121 194.446C357.785 195.382 357.226 196.128 356.443 196.684C355.659 197.23 354.643 197.546 353.397 197.633ZM353.265 195.748C354.272 195.678 354.985 195.267 355.404 194.516C355.832 193.754 355.999 192.71 355.907 191.383C355.813 190.046 355.502 189.036 354.973 188.351C354.454 187.665 353.69 187.358 352.683 187.428C351.675 187.499 350.957 187.91 350.529 188.662C350.11 189.413 349.947 190.457 350.041 191.793C350.134 193.12 350.44 194.131 350.96 194.827C351.489 195.511 352.257 195.819 353.265 195.748ZM355.454 199.535L352.897 196.721L355.77 196.52L358.231 199.25L358.237 199.34L355.454 199.535ZM361.797 196.836C361.549 196.582 361.342 196.271 361.176 195.902C361.019 195.532 360.915 194.968 360.862 194.209L360.54 189.616L359.313 189.701L359.194 187.996L360.451 187.908L360.294 185.663L362.673 185.497L362.83 187.741L364.282 187.64L364.401 189.346L362.95 189.447L363.253 193.787C363.308 194.575 363.44 195.172 363.649 195.578C363.858 195.985 364.096 196.314 364.365 196.566L364.371 196.656L361.797 196.836ZM367.223 199.463L367.221 199.434C367.442 199.007 367.678 198.514 367.929 197.956C368.181 197.397 368.399 196.865 368.585 196.361L364.881 187.688L364.874 187.598L367.269 187.431L368.385 190.06C368.564 190.478 368.746 190.926 368.93 191.405C369.114 191.883 369.307 192.491 369.509 193.229L369.868 193.204C369.965 192.445 370.071 191.816 370.187 191.317C370.302 190.818 370.42 190.348 370.539 189.909L371.279 187.151L373.553 186.991L373.56 187.081L371.342 194.935C371.053 195.968 370.764 196.85 370.475 197.582C370.196 198.323 369.955 198.892 369.752 199.287L367.223 199.463ZM379.152 195.622L379.025 193.796L381.793 193.603L381.364 187.468L378.85 187.644L378.722 186.029L379.436 185.919C379.882 185.847 380.247 185.752 380.529 185.632C380.821 185.501 381.046 185.29 381.206 184.998C381.366 184.706 381.472 184.283 381.524 183.728L383.529 183.587L384.217 193.433L386.746 193.256L386.874 195.082L379.152 195.622ZM388.904 194.94L388.766 192.965C389.55 192.279 390.234 191.664 390.817 191.122C391.4 190.57 391.896 190.069 392.306 189.62C392.921 188.955 393.376 188.362 393.67 187.84C393.975 187.318 394.108 186.782 394.069 186.234C394.034 185.735 393.861 185.341 393.551 185.052C393.249 184.752 392.829 184.621 392.29 184.659C391.682 184.701 391.237 184.933 390.955 185.354C390.673 185.764 390.555 186.294 390.6 186.942L388.356 187.099C388.299 186.291 388.404 185.572 388.671 184.942C388.938 184.312 389.364 183.811 389.949 183.439C390.544 183.057 391.295 182.834 392.203 182.77C393.49 182.68 394.506 182.94 395.25 183.55C396.003 184.149 396.418 184.982 396.492 186.049C396.546 186.817 396.396 187.539 396.042 188.216C395.688 188.882 395.141 189.597 394.403 190.36C394.085 190.693 393.729 191.039 393.333 191.397C392.946 191.745 392.558 192.068 392.167 192.366L392.192 192.725L397.325 192.366L397.463 194.342L388.904 194.94Z" fill="#121212"/>
<path d="M160.637 231.953L160.081 224.005L156.992 224.221L156.945 223.55L163.811 223.07L163.858 223.741L160.769 223.957L161.325 231.905L160.637 231.953ZM166.412 231.73C165.914 231.765 165.492 231.706 165.149 231.554C164.809 231.401 164.548 231.187 164.364 230.911C164.18 230.631 164.076 230.322 164.053 229.982C164.027 229.615 164.081 229.303 164.216 229.045C164.354 228.786 164.546 228.573 164.79 228.403C165.039 228.233 165.316 228.1 165.622 228.002C165.972 227.897 166.35 227.803 166.757 227.718C167.164 227.63 167.552 227.55 167.92 227.481C168.292 227.41 168.594 227.351 168.827 227.303L168.586 227.47C168.554 226.771 168.386 226.261 168.083 225.941C167.783 225.617 167.284 225.48 166.586 225.529C166.095 225.563 165.698 225.703 165.395 225.949C165.095 226.19 164.897 226.547 164.802 227.019L164.082 226.871C164.188 226.274 164.454 225.802 164.879 225.456C165.304 225.109 165.865 224.912 166.564 224.863C167.158 224.821 167.665 224.902 168.084 225.105C168.507 225.308 168.814 225.614 169.002 226.021C169.082 226.188 169.142 226.387 169.182 226.616C169.222 226.842 169.25 227.071 169.266 227.302L169.548 231.33L168.92 231.374L168.801 229.674L169.038 229.718C168.884 230.314 168.574 230.787 168.109 231.136C167.644 231.485 167.079 231.683 166.412 231.73ZM166.404 231.093C166.843 231.062 167.222 230.958 167.543 230.779C167.863 230.596 168.115 230.356 168.298 230.058C168.486 229.757 168.594 229.41 168.623 229.019C168.647 228.801 168.653 228.566 168.639 228.314C168.626 228.063 168.615 227.877 168.607 227.757L168.919 227.928C168.662 227.978 168.353 228.034 167.993 228.095C167.636 228.156 167.272 228.226 166.901 228.304C166.529 228.382 166.194 228.471 165.897 228.572C165.713 228.637 165.529 228.726 165.344 228.839C165.163 228.948 165.015 229.093 164.899 229.274C164.788 229.454 164.741 229.676 164.759 229.939C164.773 230.134 164.835 230.327 164.944 230.515C165.057 230.704 165.232 230.854 165.469 230.966C165.705 231.078 166.017 231.12 166.404 231.093ZM171.102 231.222L170.5 222.603L171.194 222.554L171.562 227.821L174.403 224.495L175.367 224.428L172.391 227.884L176.274 230.86L175.202 230.935L171.579 228.061L171.797 231.173L171.102 231.222ZM179.436 230.819C178.818 230.863 178.274 230.762 177.803 230.518C177.333 230.271 176.956 229.902 176.673 229.413C176.39 228.919 176.225 228.325 176.176 227.631C176.127 226.925 176.206 226.308 176.413 225.78C176.625 225.248 176.944 224.829 177.372 224.522C177.804 224.215 178.329 224.04 178.947 223.997C179.574 223.953 180.118 224.059 180.581 224.316C181.048 224.568 181.416 224.955 181.685 225.477C181.958 226 182.115 226.64 182.156 227.399L181.438 227.449L181.421 227.21C181.34 226.326 181.093 225.665 180.681 225.229C180.27 224.792 179.711 224.599 179.005 224.648C178.275 224.699 177.727 224.98 177.362 225.491C177 225.997 176.85 226.69 176.911 227.567C176.972 228.437 177.217 229.098 177.645 229.549C178.078 230 178.655 230.2 179.377 230.15C179.876 230.115 180.303 229.969 180.658 229.711C181.017 229.45 181.29 229.094 181.48 228.643L182.121 228.875C181.901 229.452 181.556 229.909 181.086 230.247C180.617 230.584 180.067 230.775 179.436 230.819ZM176.662 227.783L176.618 227.161L181.724 226.804L181.767 227.426L176.662 227.783ZM185.85 230.19L185.816 229.531L189.526 225.657C189.855 225.317 190.064 225 190.151 224.705C190.239 224.406 190.271 224.091 190.248 223.76C190.222 223.385 190.108 223.05 189.907 222.755C189.706 222.461 189.445 222.234 189.126 222.076C188.81 221.914 188.462 221.846 188.083 221.872C187.696 221.899 187.355 222.017 187.061 222.226C186.767 222.436 186.541 222.7 186.383 223.02C186.229 223.339 186.164 223.681 186.19 224.044L185.495 224.092C185.46 223.585 185.55 223.12 185.765 222.696C185.979 222.268 186.284 221.92 186.678 221.652C187.076 221.383 187.531 221.231 188.042 221.196C188.556 221.16 189.026 221.251 189.45 221.47C189.878 221.685 190.226 221.989 190.494 222.383C190.763 222.778 190.914 223.222 190.949 223.717C190.973 224.06 190.954 224.37 190.893 224.647C190.836 224.92 190.732 225.18 190.581 225.427C190.429 225.67 190.23 225.918 189.983 226.172L186.48 229.828L186.311 229.478L191.327 229.128L191.374 229.804L185.85 230.19ZM198.051 229.518C197.469 229.558 196.965 229.441 196.541 229.166C196.117 228.891 195.781 228.504 195.533 228.004C195.286 227.504 195.14 226.93 195.094 226.284C195.049 225.634 195.114 225.046 195.29 224.52C195.465 223.991 195.75 223.564 196.144 223.239C196.539 222.915 197.037 222.732 197.64 222.69C198.226 222.649 198.738 222.763 199.174 223.034C199.609 223.304 199.953 223.689 200.205 224.188C200.46 224.688 200.61 225.257 200.655 225.895C200.7 226.542 200.629 227.132 200.442 227.666C200.258 228.196 199.966 228.628 199.564 228.961C199.166 229.289 198.662 229.475 198.051 229.518ZM195.207 229.536L194.605 220.917L195.293 220.869L195.548 224.508L195.488 224.512L195.836 229.492L195.207 229.536ZM197.963 228.862C198.438 228.829 198.825 228.68 199.123 228.414C199.425 228.148 199.641 227.803 199.772 227.376C199.906 226.946 199.955 226.469 199.919 225.947C199.882 225.428 199.77 224.969 199.582 224.569C199.397 224.165 199.137 223.854 198.801 223.637C198.468 223.416 198.057 223.322 197.566 223.356C197.091 223.39 196.702 223.535 196.4 223.793C196.097 224.047 195.88 224.387 195.749 224.813C195.619 225.239 195.572 225.717 195.609 226.248C195.646 226.775 195.757 227.242 195.942 227.65C196.13 228.054 196.393 228.366 196.729 228.588C197.069 228.804 197.48 228.896 197.963 228.862ZM203.076 231.873L204.096 228.403L204.179 229.408L200.861 222.645L201.597 222.593L204.45 228.469L204.067 228.495L205.853 222.296L206.577 222.245L203.794 231.823L203.076 231.873ZM218.201 227.928L217.909 223.582C217.873 223.059 217.694 222.661 217.375 222.386C217.058 222.108 216.679 221.984 216.236 222.015C215.984 222.032 215.739 222.108 215.5 222.241C215.265 222.373 215.074 222.575 214.929 222.846C214.783 223.117 214.726 223.474 214.757 223.917L214.267 223.873C214.218 223.403 214.275 222.988 214.438 222.628C214.605 222.263 214.85 221.973 215.171 221.758C215.497 221.543 215.876 221.421 216.306 221.39C216.941 221.346 217.467 221.506 217.886 221.869C218.308 222.233 218.543 222.754 218.59 223.432L218.889 227.88L218.201 227.928ZM210.51 228.466L210.058 222.002L210.686 221.958L210.788 223.412L210.848 223.408L211.198 228.418L210.51 228.466ZM214.359 228.197L214.071 223.916C214.034 223.382 213.859 222.969 213.546 222.678C213.232 222.383 212.842 222.252 212.375 222.285C211.9 222.318 211.527 222.509 211.254 222.856C210.982 223.2 210.864 223.643 210.902 224.186L210.407 223.98C210.377 223.561 210.447 223.183 210.616 222.847C210.785 222.506 211.028 222.231 211.346 222.02C211.668 221.809 212.045 221.688 212.476 221.658C212.863 221.631 213.222 221.688 213.552 221.83C213.883 221.971 214.156 222.2 214.37 222.518C214.585 222.832 214.709 223.236 214.744 223.731L215.041 228.149L214.359 228.197ZM223.099 227.766C222.457 227.811 221.902 227.703 221.434 227.443C220.967 227.183 220.598 226.804 220.326 226.306C220.055 225.808 219.896 225.223 219.849 224.553C219.802 223.879 219.88 223.278 220.084 222.75C220.287 222.219 220.602 221.796 221.03 221.481C221.461 221.166 221.991 220.987 222.622 220.943C223.264 220.898 223.819 221.005 224.286 221.265C224.757 221.521 225.126 221.896 225.394 222.391C225.665 222.885 225.824 223.466 225.87 224.132C225.918 224.814 225.842 225.421 225.643 225.952C225.443 226.479 225.128 226.902 224.697 227.221C224.266 227.54 223.733 227.722 223.099 227.766ZM223.052 227.096C223.814 227.042 224.365 226.747 224.704 226.21C225.048 225.673 225.191 224.997 225.134 224.183C225.076 223.353 224.84 222.704 224.426 222.236C224.013 221.768 223.427 221.56 222.669 221.613C222.154 221.649 221.737 221.797 221.419 222.055C221.1 222.31 220.871 222.649 220.732 223.072C220.597 223.49 220.548 223.967 220.585 224.501C220.643 225.331 220.881 225.984 221.3 226.46C221.722 226.936 222.306 227.148 223.052 227.096ZM229.908 227.26C229.553 227.285 229.23 227.255 228.94 227.171C228.653 227.087 228.4 226.958 228.179 226.785C227.958 226.608 227.771 226.397 227.617 226.151C227.464 225.901 227.342 225.625 227.253 225.322C227.167 225.02 227.113 224.701 227.09 224.365L226.842 220.828L227.537 220.78L227.772 224.143C227.8 224.55 227.865 224.911 227.968 225.224C228.074 225.538 228.216 225.8 228.396 226.012C228.579 226.224 228.798 226.379 229.054 226.478C229.313 226.576 229.612 226.613 229.952 226.589C230.303 226.565 230.602 226.484 230.849 226.346C231.1 226.204 231.299 226.018 231.447 225.787C231.6 225.556 231.705 225.288 231.764 224.983C231.827 224.674 231.845 224.342 231.821 223.986L232.37 224.014C232.419 224.713 232.339 225.298 232.132 225.769C231.928 226.236 231.632 226.594 231.244 226.842C230.856 227.085 230.411 227.225 229.908 227.26ZM232.095 226.957L231.993 225.502L231.927 225.507L231.577 220.497L232.271 220.448L232.723 226.913L232.095 226.957ZM237.823 226.556C237.485 226.656 237.148 226.708 236.811 226.711C236.475 226.718 236.17 226.666 235.898 226.552C235.629 226.435 235.419 226.241 235.268 225.971C235.144 225.751 235.068 225.526 235.04 225.295C235.012 225.065 234.987 224.8 234.966 224.5L234.546 218.485L235.24 218.436L235.66 224.44C235.679 224.711 235.696 224.936 235.713 225.116C235.733 225.291 235.786 225.449 235.873 225.592C236.036 225.857 236.275 226.009 236.59 226.047C236.905 226.081 237.302 226.043 237.779 225.934L237.823 226.556ZM233.267 221.01L233.223 220.382L237.371 220.092L237.415 220.72L233.267 221.01ZM243.792 226.139L243.557 222.775C243.528 222.368 243.461 222.008 243.355 221.694C243.253 221.381 243.11 221.118 242.927 220.906C242.748 220.694 242.528 220.539 242.269 220.441C242.013 220.343 241.716 220.305 241.377 220.329C241.026 220.354 240.725 220.437 240.474 220.579C240.227 220.716 240.027 220.901 239.875 221.132C239.727 221.363 239.621 221.633 239.559 221.942C239.5 222.247 239.483 222.577 239.508 222.932L238.958 222.904C238.91 222.206 238.987 221.623 239.191 221.155C239.399 220.684 239.696 220.326 240.084 220.083C240.472 219.835 240.917 219.693 241.42 219.658C241.775 219.633 242.096 219.663 242.383 219.747C242.673 219.831 242.929 219.962 243.15 220.139C243.37 220.312 243.558 220.523 243.711 220.773C243.865 221.019 243.984 221.293 244.07 221.596C244.159 221.899 244.215 222.218 244.239 222.553L244.486 226.09L243.792 226.139ZM239.057 226.47L238.455 217.851L239.083 217.807L239.431 222.787L239.497 222.782L239.752 226.421L239.057 226.47ZM251.109 225.807C250.49 225.851 249.946 225.75 249.476 225.507C249.006 225.259 248.629 224.89 248.346 224.401C248.063 223.907 247.897 223.313 247.849 222.619C247.799 221.913 247.878 221.296 248.086 220.768C248.297 220.236 248.617 219.817 249.045 219.51C249.476 219.203 250.001 219.028 250.62 218.985C251.246 218.941 251.791 219.047 252.254 219.304C252.721 219.556 253.089 219.943 253.358 220.466C253.631 220.988 253.788 221.628 253.829 222.387L253.111 222.438L253.094 222.198C253.012 221.314 252.765 220.653 252.354 220.217C251.943 219.781 251.384 219.587 250.677 219.637C249.947 219.688 249.4 219.968 249.034 220.479C248.673 220.986 248.523 221.678 248.584 222.556C248.645 223.426 248.89 224.086 249.318 224.537C249.751 224.988 250.328 225.188 251.05 225.138C251.549 225.103 251.976 224.957 252.331 224.7C252.689 224.438 252.963 224.082 253.152 223.632L253.794 223.863C253.574 224.44 253.229 224.897 252.759 225.235C252.289 225.573 251.739 225.763 251.109 225.807ZM248.334 222.772L248.291 222.149L253.396 221.792L253.44 222.415L248.334 222.772ZM256.879 225.224L254.081 218.923L254.793 218.874L257.179 224.258L258.785 218.594L259.504 218.544L257.609 225.172L256.879 225.224ZM263.477 224.943C262.859 224.986 262.314 224.886 261.844 224.642C261.374 224.394 260.997 224.025 260.714 223.536C260.431 223.042 260.265 222.449 260.217 221.754C260.167 221.048 260.247 220.431 260.454 219.903C260.666 219.371 260.985 218.952 261.413 218.645C261.845 218.338 262.37 218.163 262.988 218.12C263.615 218.076 264.159 218.183 264.622 218.439C265.089 218.691 265.457 219.078 265.726 219.601C265.999 220.123 266.156 220.764 266.197 221.522L265.479 221.573L265.462 221.333C265.38 220.449 265.134 219.788 264.722 219.352C264.311 218.916 263.752 218.722 263.046 218.772C262.315 218.823 261.768 219.104 261.402 219.614C261.041 220.121 260.891 220.813 260.952 221.691C261.013 222.561 261.258 223.221 261.686 223.672C262.119 224.123 262.696 224.324 263.418 224.273C263.917 224.238 264.344 224.092 264.699 223.835C265.058 223.573 265.331 223.217 265.52 222.767L266.162 222.999C265.942 223.575 265.597 224.032 265.127 224.37C264.658 224.708 264.108 224.898 263.477 224.943ZM260.703 221.907L260.659 221.284L265.765 220.927L265.808 221.55L260.703 221.907ZM267.733 224.465L267.281 218L267.91 217.956L268.018 219.507L267.848 219.314C267.907 219.125 267.985 218.949 268.082 218.786C268.183 218.619 268.287 218.481 268.396 218.373C268.557 218.202 268.75 218.068 268.976 217.972C269.201 217.872 269.431 217.808 269.666 217.779C269.9 217.747 270.115 217.75 270.31 217.789L270.356 218.441C270.096 218.399 269.824 218.406 269.539 218.462C269.254 218.518 268.994 218.66 268.757 218.89C268.551 219.096 268.407 219.331 268.325 219.593C268.243 219.852 268.198 220.122 268.189 220.403C268.181 220.68 268.185 220.95 268.204 221.214L268.428 224.416L267.733 224.465ZM273.007 226.983L274.027 223.513L274.109 224.518L270.792 217.755L271.528 217.703L274.381 223.579L273.998 223.605L275.783 217.406L276.508 217.355L273.725 226.933L273.007 226.983ZM283.021 223.576C282.49 223.613 282.016 223.542 281.599 223.363C281.181 223.179 280.845 222.906 280.591 222.543C280.337 222.176 280.191 221.731 280.155 221.208C280.116 220.653 280.218 220.157 280.46 219.719C280.701 219.277 281.098 218.933 281.651 218.686L281.667 219.003C281.178 218.897 280.797 218.661 280.523 218.295C280.248 217.93 280.095 217.515 280.063 217.052C280.03 216.578 280.107 216.163 280.295 215.809C280.486 215.451 280.763 215.169 281.126 214.963C281.488 214.753 281.91 214.632 282.393 214.598C282.876 214.564 283.309 214.626 283.693 214.784C284.081 214.937 284.393 215.178 284.628 215.506C284.867 215.83 285.003 216.23 285.037 216.705C285.069 217.167 284.981 217.597 284.772 217.992C284.563 218.388 284.218 218.673 283.737 218.846L283.674 218.55C284.259 218.71 284.705 218.991 285.014 219.395C285.323 219.798 285.497 220.277 285.536 220.832C285.572 221.355 285.488 221.816 285.284 222.215C285.083 222.61 284.786 222.927 284.394 223.167C284.005 223.403 283.548 223.539 283.021 223.576ZM282.974 222.9C283.556 222.859 284.016 222.664 284.352 222.316C284.693 221.967 284.842 221.49 284.8 220.883C284.757 220.269 284.544 219.815 284.163 219.52C283.785 219.222 283.301 219.093 282.71 219.135C282.116 219.176 281.65 219.371 281.314 219.72C280.981 220.064 280.836 220.543 280.879 221.157C280.921 221.764 281.136 222.216 281.521 222.514C281.907 222.812 282.391 222.94 282.974 222.9ZM282.663 218.458C283.182 218.422 283.594 218.261 283.898 217.975C284.203 217.685 284.337 217.279 284.3 216.756C284.264 216.233 284.075 215.852 283.733 215.611C283.391 215.366 282.961 215.262 282.442 215.298C281.919 215.335 281.506 215.498 281.201 215.788C280.897 216.074 280.762 216.478 280.799 217.001C280.835 217.524 281.025 217.907 281.367 218.152C281.708 218.393 282.14 218.495 282.663 218.458ZM294.387 222.601L294.152 219.237C294.123 218.83 294.056 218.47 293.95 218.156C293.848 217.843 293.705 217.58 293.522 217.368C293.343 217.156 293.123 217.001 292.864 216.903C292.608 216.805 292.311 216.767 291.972 216.791C291.621 216.816 291.32 216.899 291.069 217.041C290.822 217.178 290.622 217.363 290.47 217.594C290.322 217.825 290.217 218.095 290.154 218.404C290.095 218.709 290.078 219.039 290.103 219.394L289.554 219.366C289.505 218.668 289.582 218.085 289.786 217.618C289.994 217.146 290.292 216.788 290.68 216.545C291.067 216.297 291.512 216.156 292.015 216.12C292.37 216.096 292.691 216.125 292.978 216.209C293.268 216.293 293.524 216.424 293.745 216.601C293.966 216.774 294.153 216.985 294.307 217.235C294.46 217.481 294.58 217.755 294.665 218.058C294.754 218.361 294.811 218.68 294.834 219.015L295.081 222.552L294.387 222.601ZM289.653 222.932L289.05 214.313L289.678 214.269L290.027 219.249L290.092 219.244L290.347 222.883L289.653 222.932ZM299.296 222.438C298.653 222.483 298.098 222.375 297.631 222.115C297.164 221.855 296.795 221.476 296.523 220.978C296.252 220.479 296.093 219.895 296.046 219.225C295.999 218.55 296.077 217.95 296.28 217.422C296.484 216.891 296.799 216.468 297.226 216.153C297.657 215.838 298.188 215.659 298.819 215.615C299.461 215.57 300.016 215.677 300.483 215.937C300.954 216.193 301.323 216.568 301.59 217.063C301.862 217.557 302.02 218.137 302.067 218.804C302.115 219.486 302.039 220.093 301.839 220.624C301.64 221.151 301.324 221.574 300.894 221.893C300.463 222.212 299.93 222.394 299.296 222.438ZM299.249 221.768C300.011 221.714 300.562 221.419 300.901 220.882C301.244 220.345 301.388 219.669 301.331 218.855C301.273 218.025 301.037 217.376 300.623 216.908C300.21 216.44 299.624 216.232 298.865 216.285C298.351 216.321 297.934 216.468 297.615 216.727C297.296 216.982 297.067 217.321 296.929 217.744C296.793 218.162 296.744 218.639 296.782 219.173C296.84 220.003 297.078 220.656 297.496 221.132C297.918 221.608 298.503 221.82 299.249 221.768ZM306.105 221.932C305.75 221.956 305.427 221.927 305.137 221.843C304.85 221.759 304.596 221.63 304.376 221.457C304.155 221.28 303.968 221.069 303.814 220.823C303.66 220.573 303.539 220.297 303.449 219.994C303.364 219.691 303.31 219.372 303.286 219.037L303.039 215.5L303.733 215.451L303.968 218.815C303.997 219.222 304.062 219.582 304.164 219.896C304.27 220.209 304.413 220.472 304.592 220.684C304.776 220.896 304.995 221.051 305.25 221.149C305.51 221.248 305.809 221.285 306.148 221.261C306.5 221.236 306.799 221.155 307.046 221.018C307.296 220.876 307.496 220.69 307.644 220.459C307.796 220.228 307.902 219.96 307.961 219.655C308.023 219.346 308.042 219.013 308.017 218.658L308.567 218.686C308.616 219.384 308.536 219.969 308.329 220.441C308.125 220.908 307.829 221.266 307.441 221.513C307.053 221.757 306.608 221.897 306.105 221.932ZM308.291 221.628L308.19 220.174L308.124 220.179L307.773 215.169L308.468 215.12L308.92 221.584L308.291 221.628ZM310.59 221.468L310.138 215.003L310.766 214.96L310.875 216.51L310.705 216.317C310.764 216.129 310.842 215.953 310.939 215.79C311.039 215.622 311.144 215.484 311.252 215.377C311.413 215.205 311.606 215.071 311.832 214.975C312.057 214.875 312.288 214.811 312.522 214.783C312.756 214.75 312.971 214.753 313.166 214.792L313.212 215.444C312.952 215.402 312.68 215.409 312.395 215.465C312.111 215.521 311.85 215.664 311.613 215.893C311.407 216.1 311.263 216.334 311.181 216.597C311.099 216.855 311.054 217.125 311.046 217.406C311.037 217.683 311.042 217.954 311.06 218.217L311.284 221.419L310.59 221.468ZM316.918 221.194C316.171 221.246 315.544 221.131 315.035 220.85C314.53 220.569 314.2 220.151 314.045 219.596L314.743 219.427C314.87 219.803 315.126 220.092 315.513 220.293C315.9 220.495 316.363 220.577 316.902 220.539C317.437 220.502 317.854 220.358 318.153 220.109C318.452 219.859 318.588 219.537 318.56 219.142C318.545 218.927 318.483 218.754 318.374 218.626C318.268 218.493 318.068 218.379 317.773 218.283C317.477 218.187 317.041 218.081 316.463 217.965C315.854 217.848 315.374 217.721 315.023 217.585C314.677 217.449 314.427 217.284 314.273 217.09C314.123 216.896 314.038 216.651 314.017 216.356C313.992 216.001 314.072 215.683 314.257 215.401C314.442 215.116 314.71 214.884 315.063 214.707C315.419 214.53 315.837 214.425 316.316 214.391C316.794 214.358 317.231 214.407 317.625 214.54C318.019 214.669 318.344 214.867 318.599 215.134C318.854 215.396 319.012 215.712 319.074 216.081L318.377 216.262C318.28 215.852 318.048 215.539 317.68 215.324C317.312 215.105 316.864 215.012 316.337 215.045C315.838 215.072 315.438 215.2 315.137 215.43C314.836 215.655 314.697 215.936 314.721 216.271C314.734 216.462 314.8 216.622 314.917 216.75C315.038 216.874 315.242 216.982 315.529 217.074C315.816 217.167 316.219 217.259 316.739 217.351C317.373 217.467 317.869 217.597 318.228 217.74C318.591 217.883 318.852 218.063 319.011 218.28C319.171 218.494 319.262 218.766 319.285 219.097C319.327 219.696 319.136 220.182 318.713 220.557C318.294 220.927 317.696 221.139 316.918 221.194Z" fill="#667085"/>
<g clip-path="url(#clip1_318_21348)">
<rect x="102" y="279.764" width="384" height="253" rx="10" transform="rotate(-4 102 279.764)" fill="white"/>
<path d="M129.429 301.813C129.504 302.885 129.375 303.824 129.043 304.631C128.71 305.439 128.222 306.078 127.577 306.548C126.932 307.018 126.177 307.284 125.31 307.344C124.444 307.405 123.659 307.247 122.955 306.871C122.251 306.495 121.678 305.93 121.237 305.177C120.795 304.424 120.537 303.512 120.462 302.44C120.387 301.369 120.516 300.43 120.848 299.623C121.18 298.815 121.669 298.176 122.314 297.706C122.959 297.236 123.714 296.97 124.581 296.91C125.447 296.849 126.232 297.007 126.936 297.383C127.64 297.759 128.213 298.323 128.654 299.077C129.096 299.83 129.354 300.742 129.429 301.813ZM128.239 301.897C128.177 301.017 127.978 300.285 127.641 299.701C127.308 299.116 126.881 298.686 126.36 298.41C125.842 298.134 125.276 298.017 124.661 298.06C124.046 298.103 123.5 298.298 123.022 298.643C122.548 298.989 122.185 299.474 121.933 300.1C121.684 300.725 121.591 301.478 121.652 302.357C121.714 303.237 121.911 303.969 122.244 304.554C122.581 305.138 123.008 305.568 123.526 305.844C124.047 306.12 124.615 306.237 125.23 306.194C125.845 306.151 126.389 305.956 126.864 305.611C127.341 305.265 127.704 304.78 127.953 304.154C128.205 303.529 128.3 302.776 128.239 301.897ZM132.543 302.094L132.864 306.677L131.693 306.758L131.161 299.141L132.291 299.062L132.375 300.252L132.474 300.245C132.625 299.846 132.875 299.516 133.222 299.256C133.569 298.992 134.03 298.84 134.605 298.8C135.121 298.764 135.58 298.838 135.982 299.023C136.383 299.204 136.706 299.5 136.951 299.912C137.195 300.32 137.34 300.848 137.386 301.496L137.724 306.337L136.554 306.419L136.221 301.657C136.179 301.059 135.991 300.604 135.657 300.291C135.322 299.976 134.884 299.837 134.342 299.875C133.968 299.901 133.64 300.006 133.357 300.188C133.077 300.371 132.864 300.623 132.717 300.946C132.57 301.268 132.512 301.651 132.543 302.094ZM143.068 306.123C142.334 306.174 141.689 306.056 141.134 305.769C140.582 305.479 140.142 305.051 139.814 304.486C139.488 303.918 139.298 303.243 139.244 302.463C139.189 301.682 139.283 300.985 139.526 300.37C139.772 299.751 140.139 299.257 140.628 298.887C141.12 298.514 141.71 298.303 142.398 298.255C142.795 298.227 143.191 298.266 143.587 298.371C143.983 298.477 144.351 298.667 144.689 298.942C145.027 299.214 145.307 299.587 145.529 300.06C145.752 300.532 145.888 301.124 145.938 301.835L145.972 302.331L140.1 302.742L140.03 301.73L144.711 301.403C144.681 300.973 144.568 300.595 144.373 300.27C144.181 299.945 143.921 299.695 143.593 299.522C143.269 299.349 142.895 299.277 142.472 299.307C142.005 299.339 141.61 299.483 141.286 299.738C140.964 299.99 140.726 300.306 140.57 300.686C140.413 301.065 140.35 301.465 140.379 301.885L140.426 302.559C140.467 303.135 140.6 303.616 140.826 304.002C141.056 304.384 141.356 304.667 141.728 304.851C142.099 305.031 142.521 305.104 142.994 305.071C143.302 305.05 143.577 304.987 143.818 304.884C144.064 304.777 144.271 304.63 144.44 304.442C144.61 304.25 144.735 304.019 144.816 303.748L145.968 303.986C145.876 304.378 145.7 304.729 145.439 305.04C145.178 305.347 144.847 305.596 144.445 305.787C144.043 305.975 143.584 306.086 143.068 306.123ZM148.15 305.608L147.44 295.451L148.67 295.365L148.986 299.888L154.402 299.509L154.086 294.986L155.316 294.9L156.026 305.057L154.796 305.143L154.478 300.6L149.062 300.979L149.38 305.522L148.15 305.608ZM161.534 304.831C160.8 304.883 160.156 304.765 159.601 304.478C159.049 304.188 158.609 303.76 158.28 303.195C157.955 302.626 157.765 301.952 157.71 301.171C157.656 300.391 157.75 299.693 157.992 299.078C158.238 298.46 158.606 297.966 159.095 297.596C159.587 297.223 160.177 297.012 160.865 296.964C161.261 296.936 161.658 296.975 162.054 297.08C162.45 297.185 162.817 297.376 163.155 297.651C163.493 297.923 163.774 298.295 163.996 298.768C164.219 299.241 164.355 299.833 164.404 300.544L164.439 301.04L158.567 301.45L158.496 300.439L163.178 300.111C163.148 299.681 163.035 299.304 162.84 298.979C162.647 298.653 162.387 298.404 162.06 298.231C161.735 298.058 161.361 297.986 160.938 298.015C160.472 298.048 160.077 298.192 159.752 298.447C159.431 298.699 159.192 299.015 159.036 299.394C158.88 299.774 158.817 300.174 158.846 300.594L158.893 301.268C158.933 301.843 159.067 302.324 159.293 302.71C159.522 303.093 159.823 303.376 160.195 303.559C160.566 303.739 160.988 303.813 161.461 303.78C161.768 303.758 162.043 303.696 162.285 303.593C162.53 303.486 162.737 303.338 162.907 303.15C163.076 302.959 163.201 302.728 163.282 302.456L164.435 302.695C164.343 303.087 164.166 303.438 163.906 303.748C163.645 304.056 163.313 304.305 162.911 304.496C162.509 304.683 162.05 304.795 161.534 304.831ZM168.712 304.349C168.229 304.383 167.785 304.323 167.379 304.168C166.972 304.011 166.641 303.766 166.386 303.435C166.13 303.101 165.984 302.686 165.95 302.19C165.919 301.754 165.98 301.394 166.133 301.111C166.286 300.824 166.501 300.593 166.778 300.418C167.054 300.242 167.364 300.104 167.706 300.004C168.051 299.9 168.398 299.813 168.749 299.742C169.208 299.65 169.58 299.579 169.865 299.529C170.154 299.476 170.362 299.406 170.489 299.321C170.619 299.235 170.677 299.098 170.664 298.91L170.661 298.87C170.627 298.381 170.467 298.01 170.18 297.758C169.897 297.505 169.485 297.398 168.946 297.435C168.388 297.474 167.958 297.627 167.658 297.894C167.358 298.161 167.153 298.438 167.043 298.725L165.904 298.406C166.07 297.929 166.31 297.55 166.622 297.269C166.938 296.984 167.289 296.777 167.675 296.647C168.065 296.514 168.451 296.433 168.835 296.407C169.079 296.389 169.362 296.4 169.684 296.437C170.009 296.471 170.326 296.566 170.636 296.724C170.949 296.882 171.218 297.134 171.441 297.48C171.665 297.827 171.798 298.302 171.84 298.908L172.191 303.927L171.021 304.008L170.949 302.977L170.889 302.981C170.821 303.152 170.701 303.338 170.529 303.539C170.357 303.741 170.122 303.918 169.824 304.072C169.526 304.226 169.155 304.318 168.712 304.349ZM168.817 303.285C169.28 303.253 169.664 303.135 169.969 302.931C170.277 302.726 170.502 302.475 170.643 302.176C170.789 301.877 170.85 301.568 170.828 301.251L170.753 300.18C170.708 300.243 170.602 300.305 170.437 300.366C170.275 300.424 170.086 300.479 169.871 300.53C169.658 300.579 169.45 300.623 169.247 300.664C169.047 300.701 168.885 300.732 168.76 300.758C168.459 300.819 168.179 300.903 167.921 301.011C167.665 301.115 167.463 301.26 167.313 301.447C167.166 301.63 167.104 301.87 167.124 302.168C167.153 302.574 167.325 302.871 167.64 303.059C167.959 303.242 168.351 303.318 168.817 303.285ZM174.788 293.538L175.498 303.695L174.327 303.777L173.617 293.62L174.788 293.538ZM180.422 295.696L180.491 296.688L176.544 296.964L176.474 295.972L180.422 295.696ZM177.497 294.066L178.668 293.985L179.175 301.245C179.198 301.576 179.264 301.821 179.371 301.979C179.482 302.134 179.615 302.235 179.771 302.28C179.93 302.322 180.096 302.337 180.267 302.325C180.396 302.316 180.502 302.302 180.584 302.283C180.665 302.261 180.73 302.243 180.779 302.23L181.091 303.264C181.013 303.3 180.905 303.337 180.765 303.377C180.625 303.42 180.446 303.449 180.228 303.464C179.897 303.487 179.568 303.439 179.241 303.319C178.917 303.199 178.64 303 178.412 302.724C178.186 302.447 178.058 302.088 178.027 301.645L177.497 294.066ZM183.729 298.515L184.049 303.097L182.879 303.179L182.169 293.022L183.339 292.94L183.6 296.67L183.699 296.663C183.85 296.257 184.096 295.926 184.437 295.669C184.781 295.409 185.252 295.259 185.851 295.217C186.37 295.18 186.832 295.253 187.236 295.434C187.641 295.611 187.965 295.906 188.21 296.318C188.458 296.726 188.605 297.257 188.65 297.911L188.989 302.752L187.819 302.834L187.486 298.073C187.443 297.468 187.254 297.011 186.916 296.702C186.582 296.39 186.139 296.253 185.587 296.292C185.203 296.319 184.865 296.424 184.572 296.607C184.283 296.79 184.061 297.043 183.908 297.366C183.757 297.689 183.698 298.072 183.729 298.515Z" fill="#667185"/>
<path d="M336.757 285.168L336.856 286.585L322.403 287.596L322.304 286.179L336.757 285.168ZM336.971 288.229L337.07 289.646L322.617 290.657L322.518 289.24L336.971 288.229ZM335.232 279.949L336.246 294.459L333.597 294.645L326.652 285.953L326.539 285.961L327.178 295.094L324.117 295.308L323.102 280.798L325.787 280.61L332.696 289.297L332.816 289.288L332.178 280.163L335.232 279.949ZM338.905 294.274L338.75 292.063L343.581 286.92C343.99 286.464 344.332 286.055 344.606 285.694C344.884 285.333 345.09 284.984 345.223 284.647C345.356 284.306 345.409 283.944 345.382 283.561C345.353 283.136 345.23 282.777 345.015 282.483C344.8 282.185 344.518 281.965 344.171 281.823C343.824 281.677 343.438 281.618 343.013 281.648C342.569 281.679 342.188 281.796 341.87 281.999C341.552 282.201 341.315 282.476 341.159 282.824C341.003 283.172 340.941 283.578 340.973 284.04L338.061 284.244C337.995 283.295 338.152 282.455 338.533 281.726C338.914 280.997 339.478 280.414 340.226 279.978C340.974 279.541 341.853 279.287 342.864 279.216C343.903 279.144 344.821 279.265 345.616 279.579C346.416 279.889 347.054 280.352 347.529 280.969C348.004 281.586 348.271 282.313 348.329 283.149C348.368 283.697 348.297 284.245 348.117 284.794C347.942 285.343 347.603 285.962 347.101 286.652C346.598 287.337 345.88 288.168 344.947 289.145L342.974 291.369L342.981 291.468L349.074 291.042L349.249 293.55L338.905 294.274ZM354.642 291.18L354.618 291.964C354.601 292.592 354.526 293.222 354.394 293.853C354.268 294.488 354.128 295.065 353.974 295.584C353.826 296.102 353.705 296.509 353.611 296.805L351.656 296.942C351.707 296.658 351.777 296.262 351.865 295.752C351.953 295.248 352.029 294.682 352.095 294.056C352.16 293.43 352.185 292.794 352.168 292.15L352.148 291.354L354.642 291.18ZM360.998 278.148L362.013 292.658L358.945 292.872L358.134 281.274L358.049 281.28L354.872 283.595L354.681 280.875L358.114 278.349L360.998 278.148ZM370.775 292.244C369.773 292.314 368.868 292.193 368.058 291.879C367.253 291.565 366.598 291.101 366.095 290.486C365.592 289.871 365.301 289.146 365.224 288.311L368.2 288.103C368.272 288.663 368.54 289.102 369.004 289.421C369.467 289.74 370.002 289.878 370.606 289.835C371.088 289.802 371.506 289.666 371.859 289.427C372.217 289.184 372.487 288.864 372.668 288.467C372.853 288.065 372.928 287.613 372.893 287.112C372.858 286.602 372.718 286.161 372.473 285.789C372.234 285.417 371.917 285.135 371.524 284.944C371.131 284.753 370.691 284.673 370.204 284.702C369.779 284.732 369.372 284.848 368.983 285.051C368.598 285.253 368.306 285.513 368.105 285.831L365.343 285.533L365.495 277.833L374.366 277.213L374.541 279.721L368.2 280.164L368.078 283.825L368.164 283.819C368.393 283.443 368.758 283.118 369.256 282.846C369.754 282.574 370.322 282.415 370.96 282.371C371.834 282.31 372.627 282.461 373.341 282.824C374.055 283.187 374.635 283.713 375.082 284.404C375.529 285.089 375.782 285.897 375.842 286.828C375.915 287.805 375.75 288.69 375.345 289.483C374.944 290.27 374.35 290.91 373.564 291.401C372.781 291.888 371.852 292.169 370.775 292.244ZM384.032 291.438C382.813 291.519 381.743 291.292 380.823 290.759C379.908 290.225 379.175 289.41 378.623 288.314C378.077 287.218 377.75 285.876 377.644 284.288C377.533 282.706 377.673 281.341 378.063 280.194C378.457 279.046 379.071 278.151 379.904 277.509C380.742 276.862 381.767 276.496 382.981 276.411C384.195 276.326 385.259 276.546 386.174 277.071C387.094 277.595 387.829 278.398 388.379 279.48C388.929 280.557 389.257 281.886 389.363 283.469C389.474 285.061 389.333 286.438 388.939 287.599C388.551 288.761 387.94 289.67 387.108 290.326C386.276 290.982 385.251 291.353 384.032 291.438ZM383.854 288.895C384.685 288.837 385.32 288.372 385.757 287.502C386.195 286.631 386.353 285.36 386.231 283.688C386.154 282.587 385.977 281.679 385.699 280.963C385.426 280.246 385.071 279.718 384.634 279.378C384.202 279.038 383.71 278.888 383.157 278.926C382.33 278.984 381.698 279.444 381.26 280.305C380.822 281.166 380.658 282.421 380.769 284.07C380.846 285.185 381.023 286.107 381.297 286.838C381.575 287.564 381.933 288.099 382.37 288.443C382.807 288.783 383.301 288.934 383.854 288.895Z" fill="#228821"/>
<path d="M131.94 337.726C132.015 338.797 131.886 339.736 131.554 340.544C131.222 341.351 130.733 341.99 130.088 342.46C129.443 342.931 128.688 343.196 127.821 343.257C126.955 343.317 126.17 343.16 125.466 342.783C124.762 342.407 124.189 341.843 123.748 341.09C123.306 340.336 123.048 339.424 122.973 338.353C122.898 337.282 123.027 336.342 123.359 335.535C123.692 334.728 124.18 334.089 124.825 333.618C125.47 333.148 126.226 332.882 127.092 332.822C127.958 332.761 128.743 332.919 129.447 333.295C130.151 333.671 130.724 334.236 131.166 334.989C131.607 335.742 131.865 336.655 131.94 337.726ZM130.75 337.809C130.688 336.93 130.489 336.198 130.153 335.613C129.819 335.028 129.392 334.598 128.871 334.322C128.354 334.046 127.787 333.93 127.172 333.973C126.557 334.016 126.011 334.21 125.534 334.556C125.059 334.901 124.696 335.387 124.444 336.012C124.196 336.638 124.102 337.39 124.164 338.27C124.225 339.149 124.422 339.881 124.756 340.466C125.092 341.05 125.519 341.481 126.037 341.757C126.558 342.033 127.126 342.149 127.741 342.106C128.356 342.063 128.901 341.869 129.375 341.523C129.852 341.178 130.215 340.692 130.464 340.067C130.716 339.441 130.811 338.689 130.75 337.809ZM136.985 334.821L137.054 335.813L133.106 336.089L133.037 335.097L136.985 334.821ZM134.06 333.192L135.23 333.11L135.738 340.371C135.761 340.701 135.827 340.946 135.934 341.105C136.045 341.26 136.178 341.36 136.334 341.406C136.493 341.448 136.658 341.463 136.83 341.451C136.959 341.442 137.065 341.428 137.146 341.409C137.228 341.386 137.293 341.368 137.342 341.355L137.654 342.39C137.576 342.425 137.468 342.463 137.328 342.502C137.188 342.545 137.009 342.574 136.79 342.59C136.46 342.613 136.131 342.564 135.803 342.444C135.479 342.324 135.203 342.126 134.974 341.849C134.749 341.573 134.621 341.213 134.59 340.77L134.06 333.192ZM140.292 337.64L140.612 342.223L139.442 342.305L138.732 332.148L139.902 332.066L140.163 335.795L140.262 335.788C140.413 335.382 140.659 335.051 141 334.795C141.344 334.535 141.815 334.384 142.413 334.342C142.933 334.306 143.394 334.378 143.799 334.559C144.204 334.737 144.528 335.031 144.773 335.443C145.021 335.851 145.168 336.382 145.213 337.037L145.552 341.877L144.381 341.959L144.048 337.198C144.006 336.593 143.816 336.136 143.479 335.827C143.145 335.515 142.702 335.378 142.15 335.417C141.766 335.444 141.428 335.549 141.135 335.732C140.846 335.915 140.624 336.168 140.471 336.491C140.32 336.814 140.261 337.197 140.292 337.64ZM150.898 341.663C150.164 341.714 149.52 341.597 148.965 341.31C148.413 341.019 147.972 340.592 147.644 340.027C147.318 339.458 147.128 338.783 147.074 338.003C147.019 337.223 147.113 336.525 147.356 335.91C147.602 335.292 147.969 334.797 148.458 334.428C148.951 334.054 149.541 333.844 150.228 333.796C150.625 333.768 151.022 333.807 151.418 333.912C151.814 334.017 152.181 334.207 152.519 334.483C152.857 334.755 153.137 335.127 153.36 335.6C153.582 336.073 153.718 336.665 153.768 337.376L153.803 337.872L147.931 338.282L147.86 337.27L152.542 336.943C152.512 336.513 152.399 336.136 152.203 335.81C152.011 335.485 151.751 335.236 151.423 335.063C151.099 334.889 150.725 334.817 150.302 334.847C149.836 334.88 149.44 335.024 149.116 335.279C148.795 335.531 148.556 335.846 148.4 336.226C148.244 336.606 148.18 337.005 148.21 337.425L148.257 338.1C148.297 338.675 148.43 339.156 148.657 339.542C148.886 339.925 149.187 340.208 149.558 340.391C149.93 340.571 150.352 340.645 150.825 340.612C151.132 340.59 151.407 340.528 151.649 340.424C151.894 340.317 152.101 340.17 152.271 339.982C152.44 339.791 152.565 339.56 152.646 339.288L153.799 339.526C153.707 339.918 153.53 340.269 153.269 340.58C153.008 340.887 152.677 341.137 152.275 341.327C151.873 341.515 151.414 341.627 150.898 341.663ZM155.822 341.159L155.289 333.541L156.42 333.462L156.5 334.613L156.58 334.607C156.692 334.221 156.922 333.897 157.269 333.637C157.617 333.377 158.018 333.231 158.475 333.199C158.561 333.193 158.668 333.187 158.797 333.181C158.926 333.176 159.024 333.174 159.091 333.176L159.174 334.366C159.134 334.359 159.042 334.35 158.898 334.341C158.758 334.327 158.61 334.326 158.454 334.337C158.084 334.363 157.759 334.463 157.479 334.639C157.202 334.811 156.989 335.039 156.839 335.322C156.692 335.601 156.631 335.913 156.655 336.257L156.992 341.077L155.822 341.159ZM166.001 334.507L164.97 334.878C164.892 334.707 164.782 334.544 164.642 334.388C164.504 334.228 164.323 334.101 164.097 334.007C163.871 333.913 163.588 333.878 163.247 333.902C162.781 333.935 162.4 334.069 162.104 334.306C161.811 334.539 161.677 334.819 161.699 335.146C161.72 335.437 161.842 335.66 162.065 335.814C162.288 335.967 162.629 336.085 163.086 336.166L164.237 336.364C164.929 336.482 165.454 336.7 165.812 337.017C166.17 337.331 166.367 337.754 166.404 338.286C166.435 338.723 166.336 339.121 166.109 339.483C165.885 339.844 165.557 340.139 165.125 340.369C164.692 340.599 164.18 340.734 163.588 340.776C162.811 340.83 162.156 340.706 161.624 340.405C161.091 340.103 160.734 339.633 160.553 338.994L161.645 338.639C161.779 339.041 162.001 339.335 162.309 339.519C162.621 339.704 163.017 339.779 163.496 339.745C164.042 339.707 164.467 339.561 164.771 339.307C165.079 339.05 165.221 338.758 165.198 338.43C165.18 338.166 165.072 337.951 164.874 337.785C164.676 337.616 164.382 337.501 163.993 337.438L162.702 337.229C161.993 337.113 161.463 336.892 161.111 336.568C160.763 336.24 160.57 335.813 160.533 335.288C160.503 334.858 160.597 334.469 160.815 334.122C161.037 333.774 161.351 333.491 161.758 333.273C162.168 333.055 162.641 332.928 163.176 332.89C163.93 332.837 164.534 332.961 164.986 333.262C165.443 333.562 165.781 333.977 166.001 334.507Z" fill="#667185"/>
<path d="M336.373 322.132L336.452 323.265L324.89 324.074L324.81 322.94L336.373 322.132ZM336.544 324.58L336.623 325.714L325.061 326.522L324.981 325.389L336.544 324.58ZM335.153 317.957L335.964 329.565L333.844 329.713L328.289 322.76L328.198 322.766L328.709 330.072L326.261 330.243L325.449 318.635L327.597 318.485L333.124 325.435L333.22 325.428L332.71 318.128L335.153 317.957ZM338.091 329.416L337.968 327.648L341.832 323.533C342.16 323.168 342.433 322.841 342.652 322.553C342.875 322.264 343.039 321.985 343.146 321.715C343.252 321.442 343.294 321.152 343.273 320.846C343.249 320.506 343.151 320.219 342.979 319.984C342.807 319.745 342.582 319.569 342.304 319.456C342.027 319.339 341.718 319.292 341.378 319.316C341.022 319.34 340.718 319.434 340.463 319.596C340.209 319.758 340.019 319.978 339.894 320.257C339.769 320.535 339.72 320.859 339.746 321.229L337.416 321.392C337.363 320.633 337.489 319.961 337.794 319.378C338.098 318.795 338.55 318.329 339.148 317.979C339.747 317.63 340.45 317.427 341.259 317.37C342.09 317.312 342.824 317.409 343.46 317.661C344.1 317.908 344.611 318.279 344.991 318.772C345.371 319.266 345.584 319.847 345.631 320.516C345.661 320.954 345.605 321.393 345.461 321.832C345.321 322.271 345.05 322.767 344.648 323.319C344.246 323.867 343.671 324.532 342.925 325.313L341.346 327.092L341.352 327.172L346.226 326.831L346.366 328.837L338.091 329.416ZM350.681 326.941L350.662 327.569C350.648 328.071 350.588 328.574 350.483 329.079C350.382 329.587 350.27 330.049 350.147 330.464C350.028 330.879 349.931 331.204 349.856 331.441L348.292 331.551C348.333 331.324 348.389 331.006 348.459 330.599C348.529 330.195 348.591 329.743 348.643 329.242C348.695 328.741 348.715 328.233 348.702 327.717L348.686 327.08L350.681 326.941ZM356.975 328.255C356.378 328.293 355.795 328.233 355.226 328.075C354.66 327.918 354.143 327.633 353.674 327.221C353.204 326.81 352.816 326.249 352.508 325.537C352.204 324.826 352.014 323.939 351.94 322.877C351.876 321.902 351.926 321.023 352.092 320.241C352.261 319.454 352.533 318.779 352.907 318.213C353.285 317.648 353.753 317.205 354.312 316.885C354.87 316.561 355.508 316.374 356.226 316.324C357.001 316.269 357.696 316.373 358.31 316.634C358.924 316.891 359.429 317.264 359.823 317.752C360.222 318.241 360.482 318.802 360.602 319.435L358.182 319.604C358.059 319.207 357.838 318.903 357.52 318.694C357.201 318.484 356.819 318.395 356.373 318.426C355.618 318.479 355.066 318.848 354.719 319.533C354.376 320.218 354.24 321.125 354.312 322.256L354.391 322.25C354.541 321.894 354.755 321.585 355.032 321.322C355.314 321.056 355.639 320.845 356.008 320.69C356.38 320.531 356.778 320.437 357.201 320.408C357.889 320.36 358.512 320.479 359.072 320.767C359.631 321.05 360.085 321.463 360.434 322.004C360.783 322.546 360.983 323.179 361.034 323.904C361.089 324.69 360.955 325.402 360.631 326.04C360.311 326.678 359.836 327.193 359.207 327.586C358.581 327.976 357.837 328.199 356.975 328.255ZM356.829 326.329C357.207 326.302 357.539 326.188 357.825 325.986C358.111 325.783 358.328 325.521 358.476 325.2C358.624 324.878 358.685 324.524 358.658 324.139C358.631 323.753 358.522 323.414 358.331 323.12C358.143 322.825 357.895 322.597 357.588 322.437C357.281 322.276 356.938 322.209 356.56 322.235C356.277 322.255 356.018 322.326 355.783 322.449C355.553 322.571 355.353 322.733 355.185 322.935C355.021 323.136 354.896 323.365 354.812 323.622C354.727 323.875 354.694 324.141 354.714 324.42C354.74 324.795 354.849 325.131 355.04 325.429C355.236 325.726 355.488 325.957 355.795 326.122C356.107 326.286 356.451 326.355 356.829 326.329ZM367.297 327.533C366.496 327.589 365.771 327.492 365.123 327.241C364.479 326.99 363.956 326.618 363.553 326.126C363.15 325.634 362.918 325.054 362.856 324.386L365.237 324.22C365.295 324.668 365.509 325.019 365.88 325.274C366.251 325.529 366.678 325.64 367.162 325.606C367.547 325.579 367.881 325.47 368.164 325.28C368.451 325.085 368.666 324.829 368.811 324.511C368.96 324.189 369.02 323.828 368.992 323.428C368.963 323.02 368.851 322.667 368.656 322.369C368.464 322.071 368.211 321.846 367.896 321.693C367.582 321.54 367.23 321.476 366.841 321.499C366.5 321.523 366.175 321.616 365.863 321.778C365.556 321.94 365.322 322.148 365.161 322.403L362.951 322.164L363.073 316.004L370.169 315.508L370.31 317.515L365.237 317.869L365.14 320.798L365.208 320.793C365.392 320.492 365.683 320.232 366.082 320.014C366.48 319.797 366.935 319.67 367.445 319.634C368.144 319.585 368.779 319.706 369.35 319.997C369.921 320.287 370.385 320.708 370.742 321.261C371.1 321.809 371.303 322.455 371.351 323.2C371.409 323.982 371.277 324.69 370.953 325.324C370.632 325.954 370.157 326.466 369.528 326.859C368.902 327.248 368.158 327.473 367.297 327.533ZM377.903 326.888C376.927 326.953 376.072 326.772 375.336 326.345C374.603 325.917 374.017 325.265 373.576 324.389C373.138 323.512 372.877 322.438 372.792 321.168C372.704 319.903 372.815 318.811 373.127 317.893C373.443 316.975 373.934 316.259 374.6 315.745C375.27 315.227 376.091 314.935 377.062 314.867C378.033 314.799 378.884 314.975 379.616 315.394C380.352 315.814 380.94 316.456 381.38 317.321C381.82 318.183 382.082 319.247 382.167 320.513C382.256 321.786 382.143 322.888 381.829 323.817C381.518 324.747 381.029 325.474 380.363 325.999C379.698 326.524 378.877 326.82 377.903 326.888ZM377.76 324.854C378.425 324.807 378.933 324.436 379.283 323.739C379.633 323.042 379.759 322.025 379.662 320.688C379.6 319.808 379.458 319.081 379.236 318.508C379.017 317.935 378.733 317.512 378.384 317.24C378.039 316.968 377.645 316.848 377.203 316.879C376.541 316.925 376.035 317.293 375.685 317.982C375.334 318.671 375.203 319.675 375.292 320.994C375.354 321.885 375.495 322.624 375.714 323.208C375.937 323.789 376.223 324.217 376.573 324.492C376.922 324.764 377.318 324.885 377.76 324.854Z" fill="#E8562E"/>
</g>
<rect x="102.534" y="280.228" width="383" height="252" rx="9.5" transform="rotate(-4 102.534 280.228)" stroke="#F0F2F5"/>
<g style="mix-blend-mode:multiply" opacity="0.4">
<path d="M164.01 150.034L23.2282 66.8369C19.5707 64.6743 14.0046 64.3877 10.797 66.1946L8.11559 67.7077L-68.2786 110.785C-71.4862 112.592 -71.116 115.811 -67.4585 117.973L73.3231 201.171C74.2447 201.715 75.2898 202.143 76.3892 202.444C79.6403 203.344 83.3559 203.163 85.7543 201.813L164.834 157.222C168.041 155.415 167.671 152.197 164.014 150.034H164.01ZM75.1664 125.945L76.3566 125.285L76.4799 125.216L79.5206 123.528L81.9988 122.153L91.3059 116.99C95.0686 114.903 99.8546 116.275 101.941 120.034C103.309 122.498 103.182 125.397 101.883 127.694C101.702 130.089 100.341 132.353 98.0549 133.597L89.332 138.343L87.1005 139.559L86.7667 139.74L85.9612 140.179L82.5939 142.012C78.9908 143.975 74.4044 142.683 72.4051 139.145C71.6794 137.864 71.3964 136.457 71.4944 135.089C70.4312 131.631 71.8899 127.759 75.1737 125.941L75.1664 125.945ZM42.7314 106.445L43.0833 106.25L43.3192 106.119L43.9179 105.785L45.4201 104.95L47.0855 104.029L49.5638 102.654L58.8709 97.4903C62.6336 95.4039 67.4196 96.7755 69.506 100.535C70.8739 102.998 70.7469 105.898 69.4479 108.194C69.2665 110.589 67.9058 112.853 65.6198 114.098L56.897 118.844L54.6655 120.06L54.3316 120.241L53.5261 120.68L50.1589 122.512C46.5558 124.475 41.9694 123.184 39.9701 119.646C39.2444 118.365 38.9614 116.957 39.0593 115.589C37.9962 112.131 39.4548 108.26 42.7386 106.442L42.7314 106.445ZM10.2528 86.9713L11.4429 86.311L14.3203 84.7144L14.607 84.5548L16.1382 83.7057L26.3886 78.0199C30.1514 75.9335 34.9374 77.3051 37.0238 81.0642C38.3917 83.5279 38.2647 86.4271 36.9657 88.7239C36.7843 91.1187 35.4236 93.3829 33.1376 94.6274L24.4148 99.3735L22.1832 100.589L21.8494 100.77L21.0439 101.21L17.6766 103.042C14.0736 105.005 9.48716 103.713 7.48787 100.175C6.76217 98.8946 6.47914 97.4867 6.57711 96.1188C5.51397 92.6608 6.97263 88.7892 10.2564 86.9713H10.2528ZM-6.12985 116.083C-6.31128 118.477 -7.67193 120.742 -9.95788 121.986L-18.6808 126.732L-20.9123 127.948L-21.2461 128.129L-22.0517 128.568L-25.4189 130.401C-29.022 132.364 -33.6084 131.072 -35.6077 127.534C-36.3334 126.253 -36.6164 124.845 -36.5184 123.478C-37.5816 120.02 -36.1229 116.148 -32.8391 114.33L-29.6279 112.549L-26.0067 110.538L-16.6996 105.375C-12.9369 103.289 -8.1509 104.66 -6.06452 108.419C-4.69658 110.883 -4.82359 113.782 -6.12259 116.079L-6.12985 116.083ZM26.3487 135.582C26.1673 137.977 24.8066 140.241 22.5207 141.486L13.7978 146.232L11.5663 147.447L11.2324 147.629L10.4269 148.068L7.05968 149.9C3.4566 151.863 -1.12979 150.571 -3.12909 147.034C-3.85478 145.753 -4.13781 144.345 -4.03984 142.977C-5.10299 139.519 -3.64433 135.647 -0.36055 133.83L-0.00859833 133.634L1.18156 132.973L3.99363 131.413L6.47187 130.038L15.7789 124.875C19.5417 122.788 24.3277 124.16 26.4141 127.919C27.782 130.383 27.655 133.282 26.356 135.579L26.3487 135.582ZM58.7838 155.056C58.6024 157.451 57.2417 159.715 54.9557 160.96L46.2329 165.706L44.0013 166.921L43.6675 167.103L42.862 167.542L39.4947 169.374C35.8916 171.337 31.3053 170.046 29.306 166.508C28.5803 165.227 28.2972 163.819 28.3952 162.451C27.3321 158.993 28.7907 155.122 32.0745 153.304L32.4265 153.108L33.0832 152.741L33.261 152.643L38.9033 149.512L48.2104 144.349C51.9731 142.262 56.7591 143.634 58.8455 147.393C60.2134 149.857 60.0864 152.756 58.7874 155.053L58.7838 155.056ZM91.2116 174.578C91.0301 176.972 89.6694 179.236 87.3835 180.481L78.6606 185.227L76.4291 186.443L76.0953 186.624L75.2898 187.063L71.9225 188.896C68.3194 190.859 63.733 189.567 61.7337 186.029C61.008 184.748 60.725 183.34 60.823 181.972C59.7598 178.514 61.2185 174.643 64.5023 172.825L68.8565 170.412L71.3347 169.037L80.6418 163.873C84.4045 161.787 89.1905 163.159 91.2769 166.918C92.6448 169.382 92.5178 172.281 91.2188 174.578H91.2116ZM111.433 168.921L111.205 169.051C110.359 169.53 108.89 169.454 107.921 168.881L-21.0538 92.6608C-22.019 92.0911 -22.117 91.2384 -21.2715 90.7631L-21.0429 90.6325C-20.1975 90.1535 -18.7279 90.2297 -17.7591 90.803L111.215 167.023C112.181 167.593 112.279 168.445 111.433 168.921ZM134.318 147.215C134.137 149.61 132.776 151.874 130.49 153.119L121.767 157.865L119.536 159.08L119.202 159.262L118.396 159.701L115.029 161.533C111.426 163.496 106.839 162.204 104.84 158.667C104.114 157.386 103.831 155.978 103.926 154.61C102.863 151.156 104.321 147.28 107.605 145.463L108.795 144.802L108.879 144.755L111.963 143.046L114.441 141.671L123.748 136.507C127.511 134.421 132.297 135.793 134.383 139.552C135.751 142.015 135.624 144.915 134.325 147.211L134.318 147.215Z" fill="#FFE7DE"/>
</g>
<path d="M158.472 148.028L17.6905 64.83C14.033 62.6675 8.4669 62.3808 5.25932 64.1878L2.57787 65.7009L-73.8163 108.778C-77.0239 110.585 -76.6538 113.804 -72.9962 115.966L67.7854 199.164C68.707 199.708 69.752 200.136 70.8515 200.437C74.1026 201.337 77.8181 201.156 80.2166 199.806L159.296 155.216C162.503 153.409 162.133 150.19 158.476 148.028H158.472ZM55.2816 179.966C54.2185 176.508 55.6771 172.636 58.9609 170.818L63.3151 168.402L65.7934 167.026L75.1004 161.863C78.8632 159.777 83.6492 161.148 85.7355 164.907C87.1035 167.371 86.9765 170.27 85.6775 172.567C85.496 174.962 84.1353 177.226 81.8494 178.471L73.1265 183.217L70.895 184.432L70.5612 184.614L69.7557 185.053L66.3884 186.885C62.7853 188.848 58.1989 187.556 56.1996 184.019C55.474 182.738 55.1909 181.33 55.2853 179.962L55.2816 179.966ZM22.8539 160.444C21.7907 156.986 23.2494 153.115 26.5331 151.297L26.8851 151.101L27.5419 150.734L27.7197 150.636L33.3619 147.505L42.669 142.342C46.4318 140.255 51.2178 141.627 53.3041 145.386C54.6721 147.85 54.5451 150.749 53.2461 153.046C53.0646 155.441 51.7039 157.705 49.418 158.949L40.6951 163.695L38.4636 164.911L38.1298 165.092L37.3243 165.531L33.957 167.364C30.3539 169.327 25.7675 168.035 23.7682 164.497C23.0425 163.216 22.7595 161.809 22.8575 160.441L22.8539 160.444ZM-9.58119 140.97C-10.6443 137.512 -9.18568 133.641 -5.9019 131.823L-5.54995 131.627L-4.35979 130.966L-1.54772 129.406L0.930519 128.031L10.2376 122.868C14.0003 120.781 18.7863 122.153 20.8727 125.912C22.2407 128.376 22.1136 131.275 20.8147 133.572C20.6332 135.966 19.2725 138.231 16.9866 139.475L8.26373 144.221L6.0322 145.437L5.69836 145.618L4.89285 146.057L1.5256 147.89C-2.07749 149.853 -6.66388 148.561 -8.66318 145.023C-9.38887 143.742 -9.6719 142.334 -9.57393 140.967L-9.58119 140.97ZM-35.1693 110.542L-31.548 108.532L-22.241 103.368C-18.4782 101.282 -13.6922 102.653 -11.6059 106.412C-10.2379 108.876 -10.3649 111.775 -11.6639 114.072C-11.8454 116.467 -13.206 118.731 -15.492 119.976L-24.2149 124.722L-26.4464 125.937L-26.7802 126.119L-27.5857 126.558L-30.953 128.39C-34.5561 130.353 -39.1425 129.061 -41.1418 125.524C-41.8675 124.243 -42.1505 122.835 -42.0525 121.467C-43.1157 118.009 -41.657 114.138 -38.3732 112.32L-35.162 110.538L-35.1693 110.542ZM-23.2968 88.7962L105.678 165.016C106.643 165.586 106.741 166.439 105.895 166.914L105.667 167.044C104.821 167.523 103.352 167.447 102.383 166.874L-26.5915 90.654C-27.5567 90.0843 -27.6547 89.2316 -26.8092 88.7563L-26.5806 88.6256C-25.7352 88.1467 -24.2656 88.2229 -23.2968 88.7962ZM31.486 79.0573C32.854 81.5211 32.727 84.4202 31.428 86.7171C31.2465 89.1119 29.8858 91.376 27.5999 92.6206L18.8771 97.3667L16.6455 98.5822L16.3117 98.7636L15.5062 99.2027L12.1389 101.035C8.53584 102.998 3.94944 101.706 1.95015 98.1686C1.22445 96.8877 0.941422 95.4799 1.03939 94.1119C-0.0237503 90.654 1.43491 86.7824 4.71868 84.9645L5.9052 84.3041L8.78257 82.7076L9.06924 82.5479L10.6004 81.6989L20.8509 76.013C24.6137 73.9267 29.3997 75.2982 31.486 79.0573ZM63.9646 98.5314C65.3326 100.995 65.2056 103.894 63.9066 106.191C63.7251 108.586 62.3644 110.85 60.0785 112.095L51.3556 116.841L49.1241 118.056L48.7903 118.238L47.9848 118.677L44.6175 120.509C41.0144 122.472 36.428 121.18 34.4287 117.643C33.703 116.362 33.42 114.954 33.518 113.586C32.4548 110.128 33.9135 106.256 37.1973 104.439L37.5492 104.243L37.7851 104.112L38.3838 103.778L39.886 102.944L41.5478 102.022L44.0261 100.647L53.3331 95.4835C57.0959 93.3971 61.8819 94.7687 63.9682 98.5278L63.9646 98.5314ZM96.3997 118.031C97.7676 120.495 97.6406 123.394 96.3416 125.691C96.1602 128.085 94.7995 130.35 92.5135 131.594L83.7907 136.34L81.5591 137.556L81.2253 137.737L80.4198 138.176L77.0526 140.009C73.4495 141.972 68.8631 140.68 66.8638 137.142C66.1381 135.861 65.8551 134.453 65.953 133.085C64.8899 129.628 66.3485 125.756 69.6323 123.938L70.8225 123.278L70.9458 123.209L73.9865 121.521L76.4647 120.146L85.7718 114.983C89.5346 112.897 94.3205 114.268 96.4069 118.027L96.3997 118.031ZM128.835 137.549C130.203 140.012 130.076 142.911 128.777 145.208C128.595 147.603 127.235 149.867 124.949 151.112L116.226 155.858L113.994 157.073L113.66 157.255L112.855 157.694L109.488 159.526C105.885 161.489 101.298 160.198 99.2988 156.66C98.5731 155.379 98.2901 153.971 98.3844 152.603C97.3213 149.145 98.7799 145.274 102.064 143.456L103.254 142.795L103.337 142.748L106.422 141.039L108.9 139.664L118.207 134.501C121.97 132.414 126.756 133.786 128.842 137.545L128.835 137.549Z" fill="#F4F4F4"/>
<path d="M105.892 166.917L105.663 167.048C104.818 167.527 103.349 167.451 102.38 166.878L-26.5948 90.6575C-27.56 90.0878 -27.658 89.2352 -26.8125 88.7598L-26.5839 88.6292C-25.7385 88.1502 -24.2689 88.2264 -23.3001 88.7997L105.674 165.02C106.64 165.589 106.738 166.442 105.892 166.917Z" fill="#228821"/>
<g style="mix-blend-mode:multiply" opacity="0.4">
<path d="M99.0161 154.091C101.102 157.854 105.888 159.225 109.651 157.135L110.003 156.939L125.787 148.184C127.086 147.465 128.091 146.417 128.777 145.208C128.596 147.603 127.235 149.867 124.949 151.112L116.226 155.858L113.995 157.073L113.661 157.255L112.855 157.694L109.488 159.526C105.885 161.489 101.298 160.198 99.2991 156.66C98.5734 155.379 98.2904 153.971 98.3848 152.603C98.5408 153.111 98.7512 153.608 99.0161 154.091Z" fill="#FFE7DE"/>
</g>
<path d="M128.777 145.211C128.091 146.42 127.086 147.468 125.787 148.187L110.003 156.942L113.164 155.19L114.002 154.725L114.35 154.533L116.68 153.241C120.21 151.282 120.323 147.675 118.595 144.13L125.885 140.378C126.662 139.979 126.97 139.014 126.571 138.237C126.172 137.461 125.207 137.149 124.43 137.552L116.857 141.449C114.771 139.021 111.915 137.994 108.886 139.674L118.193 134.511C121.955 132.425 126.741 133.796 128.828 137.555C130.196 140.019 130.069 142.918 128.77 145.215L128.777 145.211Z" fill="#89DAAA"/>
<path d="M106.415 141.042L103.334 142.752L106.415 141.042Z" fill="#8DDE44"/>
<path d="M100.206 153.434C102.293 157.197 107.079 158.568 110.841 156.478L114.005 154.722L113.167 155.187L110.007 156.939L109.655 157.135C105.892 159.222 101.106 157.85 99.0198 154.091C98.7513 153.608 98.5445 153.111 98.3885 152.603C97.3253 149.145 98.784 145.274 102.068 143.456L103.258 142.795C99.4951 144.882 98.1236 149.668 100.214 153.431L100.206 153.434Z" fill="#228821"/>
<path d="M116.864 141.442L107.612 146.202C106.835 146.602 106.527 147.567 106.926 148.343C107.325 149.12 108.29 149.432 109.067 149.029L118.599 144.123C120.322 147.668 120.214 151.279 116.683 153.234L114.354 154.526L114.005 154.718L110.841 156.475C107.078 158.561 102.293 157.189 100.206 153.43C98.1198 149.668 99.4913 144.882 103.25 142.795L103.334 142.748L106.418 141.039L108.896 139.664C111.926 137.984 114.782 139.011 116.868 141.438L116.864 141.442Z" fill="#952766"/>
<path d="M109.067 149.029C108.291 149.429 107.325 149.12 106.926 148.344C106.527 147.567 106.836 146.602 107.612 146.203L116.865 141.442L124.437 137.545C125.214 137.146 126.179 137.455 126.578 138.231C126.977 139.008 126.669 139.973 125.892 140.372L118.603 144.124L109.071 149.029H109.067Z" fill="#FFE7DE"/>
<g style="mix-blend-mode:multiply" opacity="0.4">
<path d="M66.5813 134.573C68.6677 138.335 73.4537 139.707 77.2164 137.617L77.5684 137.421L83.7368 133.999L84.2484 133.716L93.3523 128.666C94.6513 127.947 95.6564 126.898 96.3421 125.69C96.1607 128.085 94.8 130.349 92.5141 131.594L83.7912 136.34L81.5597 137.555L81.2259 137.737L80.4204 138.176L77.0531 140.008C73.45 141.971 68.8636 140.679 66.8643 137.142C66.1386 135.861 65.8556 134.453 65.9536 133.085C66.1096 133.593 66.3201 134.09 66.5849 134.573H66.5813Z" fill="#FFE7DE"/>
</g>
<path d="M96.3419 125.694C95.6561 126.902 94.651 127.951 93.352 128.669L84.2481 133.72C87.7786 131.761 87.8911 128.154 86.1639 124.609L93.4536 120.857C94.2301 120.458 94.5385 119.493 94.1393 118.716C93.7402 117.94 92.7751 117.628 91.9986 118.031L84.4259 121.928C82.3395 119.5 79.4839 118.473 76.4541 120.153L85.7612 114.99C89.5239 112.904 94.3099 114.275 96.3963 118.034C97.7642 120.498 97.6372 123.397 96.3382 125.694H96.3419Z" fill="#89DAAA"/>
<path d="M77.5646 137.425L78.4027 136.961L81.9188 135.012L83.7366 134.004L77.5682 137.425H77.5646Z" fill="#F4F4F4"/>
<path d="M73.9796 121.525L70.939 123.213L73.9796 121.525Z" fill="#8DDE44"/>
<path d="M67.7714 133.917C69.8578 137.68 74.6438 139.051 78.4065 136.965L77.5683 137.429L77.2164 137.625C73.4536 139.712 68.6676 138.34 66.5813 134.581C66.3128 134.098 66.1059 133.601 65.9499 133.093C64.8868 129.635 66.3454 125.764 69.6292 123.946L70.8194 123.285C67.0566 125.372 65.685 130.158 67.7751 133.92L67.7714 133.917Z" fill="#228821"/>
<path d="M84.43 121.925L75.1774 126.685C74.4009 127.084 74.0925 128.05 74.4916 128.826C74.8907 129.603 75.8559 129.915 76.6324 129.512L86.1644 124.606C87.8879 128.151 87.7791 131.758 84.2486 133.717L83.737 134L81.9191 135.009L78.4067 136.958C74.644 139.044 69.858 137.672 67.7716 133.913C65.6852 130.151 67.0568 125.365 70.8159 123.278L70.9393 123.209L73.98 121.522L76.4582 120.147C79.488 118.467 82.3436 119.494 84.43 121.921V121.925Z" fill="#952766"/>
<path d="M76.632 129.512C75.8555 129.911 74.8904 129.602 74.4913 128.826C74.0921 128.049 74.4005 127.084 75.177 126.685L84.4297 121.924L92.0023 118.027C92.7788 117.628 93.744 117.937 94.1431 118.713C94.5422 119.49 94.2338 120.455 93.4573 120.854L86.1677 124.606L76.6357 129.512H76.632Z" fill="#FFE7DE"/>
<g style="mix-blend-mode:multiply" opacity="0.4">
<path d="M34.1461 115.073C36.2325 118.836 41.0185 120.208 44.7812 118.118L45.1332 117.922L51.3016 114.5L51.8132 114.217L60.9171 109.166C62.2161 108.448 63.2212 107.399 63.907 106.191C63.7255 108.585 62.3648 110.85 60.0789 112.094L51.356 116.84L49.1245 118.056L48.7907 118.237L47.9852 118.676L44.6179 120.509C41.0148 122.472 36.4284 121.18 34.4292 117.642C33.7035 116.361 33.4204 114.953 33.5184 113.586C33.6744 114.094 33.8849 114.591 34.1498 115.073H34.1461Z" fill="#FFE7DE"/>
</g>
<path d="M37.5425 104.242L37.7784 104.112L37.5425 104.242Z" fill="#F4F4F4"/>
<path d="M63.9069 106.194C63.2211 107.403 62.216 108.451 60.917 109.17L51.8131 114.221C55.3436 112.261 55.4561 108.655 53.7289 105.11L61.0186 101.358C61.7951 100.959 62.1035 99.9934 61.7044 99.2169C61.3053 98.4404 60.3401 98.1283 59.5636 98.5311L51.9909 102.428C49.9045 100.001 47.0489 98.9738 44.0191 100.654L53.3262 95.4904C57.0889 93.4041 61.8749 94.7756 63.9613 98.5347C65.3292 100.998 65.2022 103.898 63.9032 106.194H63.9069Z" fill="#89DAAA"/>
<path d="M45.1296 117.926L45.9678 117.461L49.4802 115.513L51.3017 114.504L45.1333 117.926H45.1296Z" fill="#F4F4F4"/>
<path d="M41.5444 102.026L39.8826 102.948L41.5444 102.026Z" fill="#8DDE44"/>
<path d="M35.3326 114.417C37.419 118.18 42.205 119.552 45.9678 117.465L45.1296 117.93L44.7776 118.126C41.0149 120.212 36.2289 118.84 34.1425 115.081C33.874 114.599 33.6672 114.102 33.5111 113.594C32.448 110.136 33.9066 106.264 37.1904 104.446L37.5424 104.25L37.7782 104.12L38.3769 103.786C34.6142 105.872 33.2426 110.658 35.3326 114.421V114.417Z" fill="#228821"/>
<path d="M51.9946 102.425L42.742 107.186C41.9655 107.585 41.657 108.55 42.0562 109.327C42.4553 110.103 43.4205 110.415 44.197 110.012L53.729 105.107C55.4525 108.652 55.3437 112.258 51.8132 114.218L51.3015 114.501L49.4837 115.51L45.9713 117.458C42.2085 119.544 37.4226 118.173 35.3362 114.414C33.2498 110.651 34.6214 105.865 38.3805 103.779L39.8827 102.944L41.5482 102.022L44.0264 100.647C47.0562 98.9673 49.9118 99.9941 51.9982 102.422L51.9946 102.425Z" fill="#952766"/>
<path d="M44.1971 110.012C43.4206 110.411 42.4554 110.103 42.0563 109.326C41.6571 108.55 41.9655 107.585 42.742 107.185L51.9947 102.425L59.5673 98.5279C60.3438 98.1288 61.309 98.4372 61.7081 99.2137C62.1072 99.9902 61.7989 100.955 61.0224 101.355L53.7327 105.106L44.2007 110.012H44.1971Z" fill="#FFE7DE"/>
<g style="mix-blend-mode:multiply" opacity="0.4">
<path d="M1.66754 95.5999C3.75392 99.3626 8.53992 100.734 12.3027 98.6442L12.6546 98.4482L14.1604 97.6137L16.6278 96.2457L16.6568 96.2312L17.0052 96.0389L19.3347 94.7472L28.4385 89.6963C29.7375 88.9779 30.7426 87.9292 31.4284 86.7209C31.247 89.1157 29.8863 91.3799 27.6003 92.6245L18.8775 97.3706L16.6459 98.5861L16.3121 98.7675L15.5066 99.2066L12.1393 101.039C8.53626 103.002 3.94987 101.71 1.95058 98.1725C1.22488 96.8916 0.941853 95.4837 1.03982 94.1158C1.19585 94.6238 1.4063 95.1209 1.67117 95.6035L1.66754 95.5999Z" fill="#FFE7DE"/>
</g>
<path d="M31.428 86.7201C30.7423 87.9284 29.7372 88.9771 28.4382 89.6955L19.3343 94.7464C22.8648 92.787 22.9773 89.1803 21.2501 85.6352L28.5398 81.8834C29.3163 81.4842 29.6247 80.5191 29.2256 79.7426C28.8264 78.9661 27.8613 78.654 27.0848 79.0568L19.5121 82.9538C17.4257 80.5263 14.5701 79.4995 11.5403 81.1794L10.5933 81.7056L20.8437 76.0197C24.6065 73.9334 29.3925 75.3049 31.4789 79.064C32.8468 81.5278 32.7198 84.4269 31.4208 86.7238L31.428 86.7201Z" fill="#89DAAA"/>
<path d="M12.6544 98.4515L13.4926 97.9871L14.1602 97.6169L12.6544 98.4515Z" fill="#F4F4F4"/>
<path d="M9.06575 82.552L8.78271 82.708L9.06575 82.552Z" fill="#8DDE44"/>
<path d="M16.6277 96.2487L16.6554 96.2314L16.6277 96.2487Z" fill="#8DDE44"/>
<path d="M2.85766 94.943C4.94404 98.7057 9.73004 100.077 13.4928 97.9873L12.6546 98.4517L12.3026 98.6476C8.53988 100.734 3.75389 99.3625 1.66751 95.6033C1.399 95.1208 1.19218 94.6236 1.03616 94.1157C-0.0269899 90.6577 1.43167 86.7861 4.71545 84.9682L5.90197 84.3079C2.13923 86.3942 0.767656 91.1802 2.85766 94.943Z" fill="#228821"/>
<path d="M19.5161 82.9508L10.2635 87.7114C9.487 88.1105 9.17857 89.0757 9.57771 89.8522C9.97684 90.6287 10.942 90.9408 11.7185 90.538L21.2505 85.6323C22.9741 89.1773 22.8652 92.784 19.3347 94.7434L17.0052 96.0352L16.6569 96.2275L16.6278 96.242L14.1605 97.6099L13.4929 97.98C9.73012 100.066 4.94412 98.6948 2.85774 94.9357C0.771366 91.173 2.14294 86.387 5.90205 84.3006L8.77941 82.7041L9.06608 82.5444L10.5973 81.6954L11.5443 81.1692C14.5741 79.4893 17.4298 80.5161 19.5161 82.9436V82.9508Z" fill="#952766"/>
<path d="M11.7181 90.5382C10.9416 90.9374 9.97638 90.6289 9.57725 89.8524C9.17812 89.0759 9.48654 88.1108 10.263 87.7116L19.5157 82.9511L27.0883 79.0541C27.8648 78.6549 28.83 78.9633 29.2291 79.7398C29.6283 80.5163 29.3199 81.4815 28.5434 81.8806L21.2537 85.6325L11.7217 90.5382H11.7181Z" fill="#FFE7DE"/>
<g style="mix-blend-mode:multiply" opacity="0.4">
<path d="M34.1207 164.976L34.4727 164.78L50.2566 156.025C51.5556 155.306 52.5607 154.258 53.2464 153.049C53.065 155.444 51.7043 157.708 49.4184 158.953L40.6955 163.699L38.464 164.914L38.1302 165.096L37.3246 165.535L33.9574 167.367C30.3543 169.33 25.7679 168.039 23.7686 164.501C23.0429 163.22 22.7599 161.812 22.8579 160.444C23.0139 160.952 23.2243 161.449 23.4892 161.932C25.5756 165.695 30.3616 167.066 34.1243 164.976H34.1207Z" fill="#FFE7DE"/>
</g>
<path d="M26.8818 151.1L27.5422 150.734L26.8818 151.1Z" fill="#F4F4F4"/>
<path d="M50.2565 156.025L34.4726 164.78L35.3107 164.316L38.8231 162.367L41.1526 161.076C44.6831 159.116 44.7956 155.51 43.0684 151.965L50.3581 148.213C51.1346 147.814 51.443 146.848 51.0439 146.072C50.6447 145.295 49.6796 144.983 48.9031 145.386L41.3304 149.283C39.244 146.856 36.3884 145.829 33.3586 147.509L42.6657 142.345C46.4284 140.259 51.2144 141.631 53.3008 145.39C54.6687 147.853 54.5417 150.753 53.2427 153.049C52.5569 154.258 51.5518 155.306 50.2529 156.025H50.2565Z" fill="#89DAAA"/>
<path d="M26.5298 151.297L26.8817 151.101L27.5385 150.735L27.7163 150.637C23.9536 152.723 22.5856 157.509 24.672 161.272C26.7584 165.035 31.5444 166.406 35.3071 164.32L34.4689 164.784L34.117 164.98C30.3542 167.067 25.5682 165.695 23.4818 161.936C23.2133 161.453 23.0065 160.956 22.8505 160.448C21.7873 156.99 23.246 153.119 26.5298 151.301V151.297Z" fill="#228821"/>
<path d="M41.3343 149.279L32.0817 154.04C31.3052 154.439 30.9968 155.404 31.3959 156.181C31.795 156.957 32.7602 157.269 33.5367 156.867L43.0687 151.961C44.7922 155.506 44.6834 159.116 41.1529 161.072L38.8234 162.364L35.311 164.312C31.5483 166.399 26.7623 165.027 24.6759 161.268C22.5895 157.505 23.9611 152.719 27.7202 150.633L33.3625 147.502C36.3923 145.822 39.2479 146.848 41.3343 149.276V149.279Z" fill="#952766"/>
<path d="M33.5365 156.87C32.7601 157.269 31.7949 156.961 31.3957 156.184C30.9966 155.408 31.305 154.443 32.0815 154.044L41.3342 149.283L48.9068 145.386C49.6833 144.987 50.6485 145.295 51.0476 146.072C51.4468 146.848 51.1383 147.814 50.3618 148.213L43.0722 151.965L33.5402 156.87H33.5365Z" fill="#FFE7DE"/>
<g style="mix-blend-mode:multiply" opacity="0.4">
<path d="M55.9134 181.454C57.9998 185.216 62.7858 186.588 66.5485 184.498L66.9004 184.302L82.6844 175.546C83.9834 174.828 84.9884 173.779 85.6742 172.571C85.4928 174.966 84.1321 177.23 81.8462 178.475L73.1233 183.221L70.8918 184.436L70.5579 184.618L69.7524 185.057L66.3852 186.889C62.7821 188.852 58.1957 187.56 56.1964 184.023C55.4707 182.742 55.1877 181.334 55.282 179.966C55.4381 180.474 55.6485 180.971 55.9134 181.454Z" fill="#FFE7DE"/>
</g>
<path d="M82.6845 175.546L66.9005 184.302L68.9978 183.137L70.7722 182.154L70.9028 182.081L71.2511 181.889L73.5806 180.597C77.1111 178.638 77.2236 175.031 75.4964 171.486L82.7861 167.734C83.5626 167.335 83.871 166.37 83.4719 165.593C83.0727 164.817 82.1075 164.505 81.331 164.907L73.7584 168.804C71.672 166.377 68.8164 165.35 65.7866 167.03L75.0937 161.867C78.8564 159.78 83.6424 161.152 85.7288 164.911C87.0967 167.375 86.9697 170.274 85.6707 172.571C84.9849 173.779 83.9798 174.828 82.6808 175.546H82.6845Z" fill="#89DAAA"/>
<path d="M58.9576 170.819L63.3118 168.402L60.1478 170.158C56.385 172.245 55.0134 177.031 57.1035 180.793C59.1898 184.556 63.9758 185.928 67.7386 183.838L68.9976 183.137L66.9004 184.302L66.5484 184.498C62.7857 186.584 57.9997 185.213 55.9133 181.454C55.6448 180.971 55.438 180.474 55.2819 179.966C54.2188 176.508 55.6775 172.637 58.9612 170.819H58.9576Z" fill="#228821"/>
<path d="M70.8979 182.085L70.7721 182.157L70.8979 182.085Z" fill="#8DDE44"/>
<path d="M73.762 168.801L64.5094 173.562C63.7329 173.961 63.4245 174.926 63.8236 175.703C64.2228 176.479 65.1879 176.791 65.9644 176.389L75.4964 171.483C77.22 175.028 77.1111 178.638 73.5806 180.594L71.2511 181.886L70.9028 182.078L70.7722 182.151L68.9978 183.134L67.7388 183.834C63.976 185.921 59.19 184.549 57.1037 180.79C55.0173 177.027 56.3888 172.241 60.148 170.155L63.312 168.399L65.7902 167.023C68.82 165.344 71.6757 166.37 73.762 168.798V168.801Z" fill="#952766"/>
<path d="M65.9642 176.391C65.1877 176.79 64.2225 176.482 63.8233 175.705C63.4242 174.929 63.7326 173.964 64.5091 173.565L73.7618 168.804L81.3344 164.907C82.1109 164.508 83.0761 164.816 83.4752 165.593C83.8744 166.369 83.5659 167.335 82.7894 167.734L75.4998 171.486L65.9678 176.391H65.9642Z" fill="#FFE7DE"/>
<g style="mix-blend-mode:multiply" opacity="0.4">
<path d="M-8.94943 142.458C-6.86305 146.221 -2.07706 147.592 1.68568 145.502L2.03763 145.306L17.8252 136.551C19.1242 135.832 20.1293 134.784 20.815 133.575C20.6336 135.97 19.2729 138.234 16.987 139.479L8.26413 144.225L6.0326 145.441L5.69876 145.622L4.89325 146.061L1.52601 147.893C-2.07708 149.856 -6.66347 148.565 -8.66277 145.027C-9.38846 143.746 -9.67149 142.338 -9.57352 140.97C-9.4175 141.478 -9.20705 141.975 -8.94217 142.458H-8.94943Z" fill="#FFE7DE"/>
</g>
<path d="M17.8214 136.551L2.03748 145.306L2.87568 144.842L4.0114 144.214L5.20151 143.554L5.9381 143.147L6.39166 142.897L8.72117 141.605C12.2517 139.646 12.3641 136.039 10.637 132.494L17.9266 128.742C18.7031 128.343 19.0116 127.378 18.6124 126.601C18.2133 125.825 17.2481 125.513 16.4716 125.916L8.89896 129.813C6.81258 127.385 3.95697 126.358 0.927185 128.038L10.2342 122.875C13.997 120.789 18.783 122.16 20.8693 125.919C22.2373 128.383 22.1103 131.282 20.8113 133.579C20.1255 134.787 19.1204 135.836 17.8214 136.554V136.551Z" fill="#89DAAA"/>
<path d="M-5.90513 131.823L-5.55318 131.627L-4.71497 131.162C-8.47771 133.249 -9.84929 138.035 -7.75928 141.797C-5.6729 145.56 -0.886905 146.932 2.87584 144.845L2.03763 145.31L1.68568 145.506C-2.07706 147.592 -6.86305 146.221 -8.94943 142.461C-9.21794 141.979 -9.42476 141.482 -9.58079 140.974C-10.6439 137.516 -9.18528 133.644 -5.9015 131.826L-5.90513 131.823Z" fill="#228821"/>
<path d="M5.19798 143.554L4.00787 144.214L5.93094 143.147L5.19798 143.554Z" fill="#8DDE44"/>
<path d="M8.89916 129.81L-0.353477 134.57C-1.12997 134.969 -1.4384 135.934 -1.03927 136.711C-0.640132 137.487 0.325054 137.799 1.10155 137.397L10.6336 132.491C12.3571 136.036 12.2483 139.646 8.71774 141.602L6.38824 142.894L5.93467 143.144L4.00797 144.211L2.87225 144.839C-0.890487 146.925 -5.67648 145.554 -7.76286 141.794C-9.84924 138.032 -8.47767 133.246 -4.71856 131.159L-4.37745 130.971L-1.55453 129.407L0.923759 128.032C3.95354 126.352 6.80915 127.378 8.89553 129.806L8.89916 129.81Z" fill="#952766"/>
<path d="M1.10137 137.396C0.324871 137.795 -0.640315 137.486 -1.03945 136.71C-1.43858 135.933 -1.13016 134.968 -0.353659 134.569L8.89898 129.808L16.4716 125.911C17.2481 125.512 18.2133 125.821 18.6124 126.597C19.0116 127.374 18.7032 128.339 17.9267 128.738L10.637 132.49L1.105 137.396H1.10137Z" fill="#FFE7DE"/>
</g>
<defs>
<clipPath id="clip0_318_21348">
<rect width="397" height="361" rx="40" fill="white"/>
</clipPath>
<clipPath id="clip1_318_21348">
<rect x="102" y="279.764" width="384" height="253" rx="10" transform="rotate(-4 102 279.764)" fill="white"/>
</clipPath>
</defs>
</svg>
